<svg width="20" height="24" viewBox="0 0 20 24" fill="none" xmlns="http://www.w3.org/2000/svg">
<path fill-rule="evenodd" clip-rule="evenodd" d="M14.8785 0.716797C14.9878 2.03061 14.5364 3.33189 13.6203 4.3443C13.1816 4.84657 12.6249 5.25067 11.9919 5.52615C11.359 5.80163 10.6664 5.94131 9.96637 5.93468C9.92171 5.30288 10.0127 4.66918 10.2343 4.06979C10.4558 3.47041 10.8035 2.91709 11.2575 2.44148C12.186 1.46792 13.4789 0.852123 14.8785 0.716797ZM17.4321 10.2792C16.9669 11.0336 16.7166 11.8841 16.7045 12.7515C16.7056 13.7272 17.0187 14.681 17.6048 15.4939C18.1908 16.3069 19.0238 16.9431 20 17.3232C19.6162 18.4709 19.0377 19.5555 18.2859 20.5369C17.2762 21.9273 16.2176 23.2856 14.5374 23.3107C13.7383 23.3277 13.1989 23.1162 12.6368 22.8958C12.0505 22.6658 11.4396 22.4263 10.4835 22.4263C9.46963 22.4263 8.83133 22.6736 8.21572 22.9121C7.68372 23.1182 7.16867 23.3177 6.44279 23.3454C4.84264 23.4 3.61975 21.8615 2.57338 20.4842C0.482005 17.6714 -1.14648 12.5574 1.03673 9.07767C1.54075 8.24392 2.27077 7.54457 3.15568 7.04777C4.04059 6.55097 5.05021 6.27365 6.08616 6.24284C6.9937 6.22565 7.86454 6.54766 8.62804 6.82997C9.21193 7.04587 9.73304 7.23855 10.1598 7.23855C10.5349 7.23855 11.0414 7.05347 11.6318 6.83778C12.5618 6.49801 13.6997 6.08227 14.8592 6.19432C15.7479 6.21992 16.6178 6.43591 17.4 6.82515C18.1821 7.21439 18.8548 7.76615 19.3648 8.4366C18.5621 8.89092 17.8972 9.52477 17.4321 10.2792Z" fill="#33343E"/>
</svg>
