<svg width="37" height="40" viewBox="0 0 37 40" fill="none" xmlns="http://www.w3.org/2000/svg">
<path opacity="0.2" fill-rule="evenodd" clip-rule="evenodd" d="M20.5785 0.553008C19.2923 -0.184336 17.7077 -0.184336 16.4215 0.553009L2.57846 8.48915C1.2923 9.2265 0.5 10.5892 0.5 12.0639V27.9361C0.5 29.4108 1.2923 30.7735 2.57846 31.5108L16.4215 39.447C17.7077 40.1843 19.2923 40.1843 20.5785 39.447L34.4215 31.5108C35.7077 30.7735 36.5 29.4108 36.5 27.9361V12.0639C36.5 10.5892 35.7077 9.2265 34.4215 8.48915L20.5785 0.553008Z" fill="#9A9BA2"/>
<path d="M19.3765 21.4015C19.3765 21.7245 19.2002 22.0066 18.9382 22.1575V23.757C18.9382 23.998 18.742 24.1933 18.5 24.1933C18.2579 24.1933 18.0617 23.998 18.0617 23.757V22.1575C17.7997 22.0066 17.6234 21.7245 17.6234 21.4015C17.6234 20.9195 18.0159 20.5288 18.5 20.5288C18.9841 20.5288 19.3765 20.9195 19.3765 21.4015Z" fill="#9A9BA2"/>
<path fill-rule="evenodd" clip-rule="evenodd" d="M15.3156 16.4367L15.3156 18.182H15.1764C14.4503 18.182 13.8617 18.7681 13.8617 19.4911L13.8617 23.7091C13.8617 25.2354 15.1044 26.4727 16.6373 26.4727H20.3626C21.8956 26.4727 23.1383 25.2354 23.1383 23.7091L23.1383 19.4911C23.1383 18.7681 22.5496 18.182 21.8235 18.182H21.6843V16.4367C21.6843 14.8301 20.3762 13.5277 18.7625 13.5277H18.2374C16.6237 13.5277 15.3156 14.8301 15.3156 16.4367ZM18.7625 14.4004H18.2374C17.1078 14.4004 16.1921 15.312 16.1921 16.4367V18.182L20.8078 18.182V16.4367C20.8078 15.312 19.8921 14.4004 18.7625 14.4004ZM15.1764 19.0547L21.8235 19.0547C22.0655 19.0547 22.2617 19.2501 22.2617 19.4911L22.2617 23.7091C22.2617 24.7534 21.4115 25.6 20.3626 25.6H16.6373C15.5885 25.6 14.7382 24.7534 14.7382 23.7091L14.7382 19.4911C14.7382 19.2501 14.9344 19.0547 15.1764 19.0547Z" fill="#9A9BA2"/>
<path fill-rule="evenodd" clip-rule="evenodd" d="M18.7625 14.5945H18.2374C17.2155 14.5945 16.3872 15.4193 16.3872 16.4367V17.9879L20.6127 17.9879V16.4367C20.6127 15.4193 19.7844 14.5945 18.7625 14.5945ZM15.1206 17.9889L15.1206 16.4367C15.1206 14.7228 16.516 13.3335 18.2374 13.3335H18.7625C20.4839 13.3335 21.8793 14.7228 21.8793 16.4367V17.9889C22.6873 18.0181 23.3333 18.6795 23.3333 19.4911L23.3333 23.7091C23.3333 25.3426 22.0033 26.6668 20.3626 26.6668H16.6373C14.9967 26.6668 13.6666 25.3426 13.6666 23.7091L13.6666 19.4911C13.6666 18.6795 14.3126 18.0181 15.1206 17.9889ZM15.3156 16.4367C15.3156 14.8301 16.6237 13.5277 18.2374 13.5277H18.7625C20.3762 13.5277 21.6843 14.8301 21.6843 16.4367V18.182H21.8235C22.5496 18.182 23.1383 18.7681 23.1383 19.4911L23.1383 23.7091C23.1383 25.2354 21.8956 26.4727 20.3626 26.4727H16.6373C15.1044 26.4727 13.8617 25.2354 13.8617 23.7091L13.8617 19.4911C13.8617 18.7681 14.4503 18.182 15.1764 18.182H15.3156L15.3156 16.4367ZM22.0667 19.4911C22.0667 19.3573 21.9578 19.2489 21.8235 19.2489L15.1764 19.2489C15.0421 19.2489 14.9332 19.3573 14.9332 19.4911L14.9332 23.7091C14.9332 24.6462 15.6962 25.4058 16.6373 25.4058H20.3626C21.3037 25.4058 22.0667 24.6462 22.0667 23.7091L22.0667 19.4911ZM19.1333 22.2622C19.3987 22.0683 19.5715 21.7551 19.5715 21.4015C19.5715 20.8123 19.0918 20.3346 18.5 20.3346C17.9082 20.3346 17.4284 20.8123 17.4284 21.4015C17.4284 21.7551 17.6012 22.0683 17.8667 22.2622V23.757C17.8667 24.1052 18.1502 24.3875 18.5 24.3875C18.8497 24.3875 19.1333 24.1052 19.1333 23.757V22.2622ZM18.0617 22.1575V23.757C18.0617 23.998 18.2579 24.1933 18.5 24.1933C18.742 24.1933 18.9382 23.998 18.9382 23.757V22.1575C19.2002 22.0066 19.3765 21.7245 19.3765 21.4015C19.3765 20.9195 18.9841 20.5288 18.5 20.5288C18.0159 20.5288 17.6234 20.9195 17.6234 21.4015C17.6234 21.7245 17.7997 22.0066 18.0617 22.1575ZM18.2374 14.4004H18.7625C19.8921 14.4004 20.8078 15.312 20.8078 16.4367V18.182L16.1921 18.182V16.4367C16.1921 15.312 17.1078 14.4004 18.2374 14.4004ZM21.8235 19.0547L15.1764 19.0547C14.9344 19.0547 14.7382 19.2501 14.7382 19.4911L14.7382 23.7091C14.7382 24.7534 15.5885 25.6 16.6373 25.6H20.3626C21.4115 25.6 22.2617 24.7534 22.2617 23.7091L22.2617 19.4911C22.2617 19.2501 22.0655 19.0547 21.8235 19.0547Z" fill="#9A9BA2"/>
<path opacity="0.7" d="M21.8573 31.0477C20.6011 30.7154 18.5922 31.6717 18.5922 31.6717C18.5922 31.6717 19.9554 33.5616 21.2526 33.9182C22.4982 34.2607 24.5177 33.419 24.5177 33.419C24.5177 33.419 23.1871 31.3995 21.8573 31.0477Z" fill="#9A9BA2"/>
<path opacity="0.7" d="M25.2804 29.3687C24.1347 29.3511 22.6003 30.6013 22.6003 30.6013C22.6003 30.6013 24.1498 31.934 25.3356 31.9637C26.4742 31.9922 28.0406 30.8383 28.0406 30.8383C28.0406 30.8383 26.4932 29.3872 25.2804 29.3687Z" fill="#9A9BA2"/>
<path opacity="0.7" d="M27.3581 26.5308C26.4316 27.0341 25.7308 28.7301 25.7308 28.7301C25.7308 28.7301 27.5389 29.0995 28.5027 28.5877C29.4282 28.0963 30.1955 26.4631 30.1955 26.4631C30.1955 26.4631 28.3389 25.9979 27.3581 26.5308Z" fill="#9A9BA2"/>
<path opacity="0.7" d="M14.9074 31.0471C16.1379 30.7177 18.1058 31.6655 18.1058 31.6655C18.1058 31.6655 16.7704 33.5383 15.4997 33.8917C14.2795 34.231 12.3012 33.397 12.3012 33.397C12.3012 33.397 13.6047 31.3957 14.9074 31.0471Z" fill="#9A9BA2"/>
<path opacity="0.7" d="M11.5811 29.3332C12.6993 29.316 14.1968 30.5361 14.1968 30.5361C14.1968 30.5361 12.6845 31.8369 11.5272 31.8659C10.4159 31.8937 8.88716 30.7675 8.88716 30.7675C8.88716 30.7675 10.3974 29.3513 11.5811 29.3332Z" fill="#9A9BA2"/>
<path opacity="0.7" d="M9.56722 26.5619C10.4714 27.0532 11.1554 28.7084 11.1554 28.7084C11.1554 28.7084 9.39075 29.0689 8.45011 28.5694C7.54689 28.0898 6.798 26.4959 6.798 26.4959C6.798 26.4959 8.60998 26.0418 9.56722 26.5619Z" fill="#9A9BA2"/>
<path opacity="0.3" fill-rule="evenodd" clip-rule="evenodd" d="M18.5004 8.18356C11.9115 8.18356 6.65421 13.345 6.65421 19.6093C6.65421 21.2066 6.99345 22.7255 7.60633 24.1049L5.64237 25.001C4.90761 23.3473 4.50037 21.5235 4.50037 19.6093C4.50037 12.0477 10.8148 6.00098 18.5004 6.00098C26.186 6.00098 32.5004 12.0477 32.5004 19.6093C32.5004 21.5235 32.0931 23.3473 31.3584 25.001L29.3944 24.1049C30.0073 22.7255 30.3465 21.2066 30.3465 19.6093C30.3465 13.345 25.0892 8.18356 18.5004 8.18356Z" fill="#9A9BA2"/>
</svg>
