<svg width="24" height="23" viewBox="0 0 24 23" fill="none" xmlns="http://www.w3.org/2000/svg">
<path d="M22 6.06188C22 5.50959 21.5523 5.06188 21 5.06188H3C2.44772 5.06188 2 5.50959 2 6.06188C2 6.61416 2.44772 7.06188 3 7.06188H21C21.5523 7.06188 22 6.61416 22 6.06188Z" fill="#33343E"/>
<path d="M22 12.0941C22 11.5418 21.5523 11.0941 21 11.0941H3C2.44772 11.0941 2 11.5418 2 12.0941C2 12.6464 2.44772 13.0941 3 13.0941H21C21.5523 13.0941 22 12.6464 22 12.0941Z" fill="#33343E"/>
<path d="M21 17.1263C21.5523 17.1263 22 17.574 22 18.1263C22 18.6786 21.5523 19.1263 21 19.1263H3C2.44772 19.1263 2 18.6786 2 18.1263C2 17.574 2.44772 17.1263 3 17.1263H21Z" fill="#33343E"/>
</svg>
