<svg width="25" height="24" viewBox="0 0 25 24" fill="none" xmlns="http://www.w3.org/2000/svg">
<path d="M7.39062 3C7.94291 3 8.39062 3.44772 8.39062 4H16.3906C16.3906 3.44772 16.8383 3 17.3906 3C17.9429 3 18.3906 3.44772 18.3906 4H19.3906C20.4952 4 21.3906 4.89543 21.3906 6V19C21.3906 20.1046 20.4952 21 19.3906 21H5.39062C4.28606 21 3.39062 20.1046 3.39062 19V6C3.39062 4.89543 4.28606 4 5.39062 4H6.39062C6.39062 3.44772 6.83834 3 7.39062 3ZM6.39062 6H5.39062V9H19.3906V6H18.3906C18.3906 6.55228 17.9429 7 17.3906 7C16.8383 7 16.3906 6.55228 16.3906 6H8.39062C8.39062 6.55228 7.94291 7 7.39062 7C6.83834 7 6.39062 6.55228 6.39062 6ZM19.3906 11H5.39062V19H19.3906V11Z" fill="#E3E3E7"/>
</svg>
