<svg width="24" height="24" viewBox="0 0 24 24" fill="none" xmlns="http://www.w3.org/2000/svg">
<path d="M17.7062 8.11538C18.095 7.72569 18.0947 7.09466 17.7054 6.70538C17.3158 6.31581 16.6842 6.31581 16.2946 6.70538L11 12L16.2946 17.2946C16.6842 17.6842 17.3158 17.6842 17.7054 17.2946C18.0947 16.9053 18.095 16.2743 17.7062 15.8846L13.83 12L17.7062 8.11538Z" fill="#33343E"/>
<path d="M11.7062 8.11538C12.095 7.72569 12.0947 7.09466 11.7054 6.70538C11.3158 6.31581 10.6842 6.31581 10.2946 6.70538L5 12L10.2946 17.2946C10.6842 17.6842 11.3158 17.6842 11.7054 17.2946C12.0947 16.9053 12.095 16.2743 11.7062 15.8846L7.83 12L11.7062 8.11538Z" fill="#33343E"/>
</svg>
