<svg width="24" height="24" viewBox="0 0 24 24" fill="none" xmlns="http://www.w3.org/2000/svg">
<path d="M5.70388 15.8846C5.31503 16.2743 5.31538 16.9053 5.70465 17.2946C6.09422 17.6842 6.72585 17.6842 7.11542 17.2946L12.41 12L7.11542 6.70538C6.72584 6.31581 6.09422 6.31581 5.70465 6.70538C5.31538 7.09466 5.31503 7.72569 5.70388 8.11538L9.58003 12L5.70388 15.8846Z" fill="#9A9BA2"/>
<path d="M11.7039 15.8846C11.315 16.2743 11.3154 16.9053 11.7046 17.2946C12.0942 17.6842 12.7258 17.6842 13.1154 17.2946L18.41 12L13.1154 6.70538C12.7258 6.31581 12.0942 6.31581 11.7046 6.70538C11.3154 7.09466 11.315 7.72569 11.7039 8.11538L15.58 12L11.7039 15.8846Z" fill="#9A9BA2"/>
</svg>
