<svg width="38" height="42" viewBox="0 0 38 42" fill="none" xmlns="http://www.w3.org/2000/svg">
<path opacity="0.2" fill-rule="evenodd" clip-rule="evenodd" d="M21.1939 0.580659C19.8363 -0.193553 18.1637 -0.193553 16.8061 0.580659L2.19393 8.91361C0.836322 9.68782 0 11.1186 0 12.667V29.333C0 30.8814 0.836322 32.3122 2.19393 33.0864L16.8061 41.4193C18.1637 42.1936 19.8363 42.1936 21.1939 41.4193L35.8061 33.0864C37.1637 32.3122 38 30.8814 38 29.333V12.6671C38 11.1186 37.1637 9.68782 35.8061 8.91361L21.1939 0.580659Z" fill="#FF5655"/>
<path d="M13.5008 22.8681C13.1449 22.5359 13.1449 21.9717 13.5008 21.6395C13.8236 21.3383 14.3245 21.3383 14.6473 21.6395L18.0578 24.8223L18.0578 14.8796C18.0578 14.3938 18.4517 14 18.9375 14C19.4233 14 19.8171 14.3938 19.8171 14.8796C19.8171 18.2327 19.8172 21.5858 19.8171 24.9389L23.3527 21.6395C23.6755 21.3383 24.1764 21.3383 24.4992 21.6395C24.8551 21.9717 24.8551 22.5359 24.4992 22.8681L19 28L13.5008 22.8681Z" fill="#FF5655"/>
</svg>
