<svg width="38" height="42" viewBox="0 0 38 42" fill="none" xmlns="http://www.w3.org/2000/svg">
<path opacity="0.2" fill-rule="evenodd" clip-rule="evenodd" d="M21.1939 0.580659C19.8363 -0.193553 18.1637 -0.193553 16.8061 0.580659L2.19393 8.91361C0.836322 9.68782 0 11.1186 0 12.667V29.333C0 30.8814 0.836322 32.3122 2.19393 33.0864L16.8061 41.4193C18.1637 42.1936 19.8363 42.1936 21.1939 41.4193L35.8061 33.0864C37.1637 32.3122 38 30.8814 38 29.333V12.6671C38 11.1186 37.1637 9.68782 35.8061 8.91361L21.1939 0.580659Z" fill="#7B61FF"/>
<path d="M24.8998 15.1313C25.2433 15.473 25.2433 16.027 24.8998 16.3687L14.3443 26.8687C14.0008 27.2104 13.4438 27.2104 13.1003 26.8687C12.7568 26.527 12.7568 25.973 13.1003 25.6313L23.6558 15.1313C23.9994 14.7896 24.5563 14.7896 24.8998 15.1313Z" fill="#7B61FF"/>
<path d="M23.3982 27.125C24.3698 27.125 25.1575 26.3415 25.1575 25.375C25.1575 24.4085 24.3698 23.625 23.3982 23.625C22.4266 23.625 21.6389 24.4085 21.6389 25.375C21.6389 26.3415 22.4266 27.125 23.3982 27.125Z" fill="#7B61FF"/>
<path d="M14.6019 18.375C15.5735 18.375 16.3612 17.5915 16.3612 16.625C16.3612 15.6585 15.5735 14.875 14.6019 14.875C13.6303 14.875 12.8427 15.6585 12.8427 16.625C12.8427 17.5915 13.6303 18.375 14.6019 18.375Z" fill="#7B61FF"/>
</svg>
