<svg width="38" height="42" viewBox="0 0 38 42" fill="none" xmlns="http://www.w3.org/2000/svg">
<path opacity="0.2" fill-rule="evenodd" clip-rule="evenodd" d="M21.1939 0.580659C19.8363 -0.193553 18.1637 -0.193553 16.8061 0.580659L2.19393 8.91361C0.836322 9.68782 0 11.1186 0 12.667V29.333C0 30.8814 0.836322 32.3122 2.19393 33.0864L16.8061 41.4193C18.1637 42.1936 19.8363 42.1936 21.1939 41.4193L35.8061 33.0864C37.1637 32.3122 38 30.8814 38 29.333V12.6671C38 11.1186 37.1637 9.68782 35.8061 8.91361L21.1939 0.580659Z" fill="#7B61FF"/>
<path fill-rule="evenodd" clip-rule="evenodd" d="M14.7223 13.125C14.17 13.125 13.7223 13.5727 13.7223 14.125V20.6635C13.7223 23.2656 15.6914 25.375 18.1204 25.375L18.1204 27.1229H17.3612C16.8089 27.1229 16.3612 27.5706 16.3612 28.1229V28.8752H21.6389V28.1229C21.6389 27.5706 21.1912 27.1229 20.6389 27.1229H19.8797L19.8797 25.375C22.3087 25.375 24.2778 23.2656 24.2778 20.6635V14.125C24.2778 13.5727 23.8301 13.125 23.2778 13.125H14.7223ZM15.4815 20.6635V15.0096H22.5186V20.6635C22.5186 22.2247 21.3371 23.4904 19.8797 23.4904H18.1204C16.663 23.4904 15.4815 22.2247 15.4815 20.6635ZM12.0834 20.125C11.5311 20.125 11.0834 19.6773 11.0834 19.125V15.875C11.0834 15.3227 11.5311 14.875 12.0834 14.875H12.8426V20.125H12.0834ZM25.1574 20.125V14.875H25.9167C26.469 14.875 26.9167 15.3227 26.9167 15.875V19.125C26.9167 19.6773 26.469 20.125 25.9167 20.125H25.1574Z" fill="#7B61FF"/>
</svg>
