<svg width="36" height="40" viewBox="0 0 36 40" fill="none" xmlns="http://www.w3.org/2000/svg">
<path opacity="0.2" fill-rule="evenodd" clip-rule="evenodd" d="M20.0785 0.553008C18.7923 -0.184336 17.2077 -0.184336 15.9215 0.553009L2.07846 8.48915C0.792305 9.2265 0 10.5892 0 12.0639V27.9361C0 29.4108 0.792305 30.7735 2.07846 31.5108L15.9215 39.447C17.2077 40.1843 18.7923 40.1843 20.0785 39.447L33.9215 31.5108C35.2077 30.7735 36 29.4108 36 27.9361V12.0639C36 10.5892 35.2077 9.2265 33.9215 8.48915L20.0785 0.553008Z" fill="#7B61FF"/>
<path d="M16.3333 13.3332C14.4923 13.3332 13 14.8256 13 16.6665C13 18.5075 14.4923 19.9998 16.3333 19.9998C18.1742 19.9998 19.6666 18.5075 19.6666 16.6665C19.6666 14.8256 18.1742 13.3332 16.3333 13.3332ZM11.3333 16.6665C11.3333 13.9051 13.5719 11.6665 16.3333 11.6665C19.0947 11.6665 21.3333 13.9051 21.3333 16.6665C21.3333 19.4279 19.0947 21.6665 16.3333 21.6665C13.5719 21.6665 11.3333 19.4279 11.3333 16.6665ZM22.0237 13.131C22.3491 12.8055 22.8767 12.8055 23.2022 13.131C25.1548 15.0836 25.1548 18.2494 23.2022 20.202C22.8767 20.5275 22.3491 20.5275 22.0237 20.202C21.6982 19.8766 21.6982 19.349 22.0237 19.0235C23.3254 17.7218 23.3254 15.6112 22.0237 14.3095C21.6982 13.984 21.6982 13.4564 22.0237 13.131ZM22.6082 23.9644C22.7198 23.5179 23.1722 23.2464 23.6187 23.3581C24.7253 23.6347 25.4258 24.3423 25.8286 25.148C26.2185 25.9276 26.3333 26.7974 26.3333 27.4998C26.3333 27.9601 25.9602 28.3332 25.5 28.3332C25.0397 28.3332 24.6666 27.9601 24.6666 27.4998C24.6666 26.9522 24.5731 26.3637 24.3379 25.8933C24.1158 25.4491 23.7746 25.115 23.2145 24.975C22.768 24.8633 22.4966 24.4109 22.6082 23.9644ZM13.4166 24.9998C12.3671 24.9998 11.3333 26.0111 11.3333 27.4998C11.3333 27.9601 10.9602 28.3332 10.5 28.3332C10.0397 28.3332 9.66663 27.9601 9.66663 27.4998C9.66663 25.3067 11.2445 23.3332 13.4166 23.3332H19.25C21.4221 23.3332 23 25.3067 23 27.4998C23 27.9601 22.6269 28.3332 22.1666 28.3332C21.7064 28.3332 21.3333 27.9601 21.3333 27.4998C21.3333 26.0111 20.2995 24.9998 19.25 24.9998H13.4166Z" fill="#7B61FF"/>
</svg>
