<svg width="38" height="42" viewBox="0 0 38 42" fill="none" xmlns="http://www.w3.org/2000/svg">
<path opacity="0.2" fill-rule="evenodd" clip-rule="evenodd" d="M21.1939 0.580659C19.8363 -0.193553 18.1637 -0.193553 16.8061 0.580659L2.19393 8.91361C0.836322 9.68782 0 11.1186 0 12.667V29.333C0 30.8814 0.836322 32.3122 2.19393 33.0864L16.8061 41.4193C18.1637 42.1936 19.8363 42.1936 21.1939 41.4193L35.8061 33.0864C37.1637 32.3122 38 30.8814 38 29.333V12.6671C38 11.1186 37.1637 9.68782 35.8061 8.91361L21.1939 0.580659Z" fill="#FF5655"/>
<path d="M15.182 25.9995V24.3515L19.006 20.4155C19.8593 19.5195 20.286 18.7728 20.286 18.1755C20.286 17.7382 20.1473 17.3862 19.87 17.1195C19.6033 16.8528 19.2567 16.7195 18.83 16.7195C17.9873 16.7195 17.3633 17.1568 16.958 18.0315L15.102 16.9435C15.454 16.1755 15.9607 15.5888 16.622 15.1835C17.2833 14.7782 18.0087 14.5755 18.798 14.5755C19.8113 14.5755 20.6807 14.8955 21.406 15.5355C22.1313 16.1648 22.494 17.0182 22.494 18.0955C22.494 19.2582 21.8807 20.4528 20.654 21.6795L18.462 23.8715H22.67V25.9995H15.182Z" fill="#FF5655"/>
<path opacity="0.7" d="M22.5438 32.6C21.2178 32.2511 19.0973 33.2553 19.0973 33.2553C19.0973 33.2553 20.5363 35.2396 21.9055 35.6141C23.2203 35.9737 25.352 35.0899 25.352 35.0899C25.352 35.0899 23.9475 32.9694 22.5438 32.6Z" fill="#FF5655"/>
<path opacity="0.7" d="M26.1571 30.8368C24.9477 30.8184 23.3281 32.1311 23.3281 32.1311C23.3281 32.1311 24.9637 33.5305 26.2154 33.5617C27.4172 33.5916 29.0707 32.38 29.0707 32.38C29.0707 32.38 27.4373 30.8564 26.1571 30.8368Z" fill="#FF5655"/>
<path opacity="0.7" d="M28.3503 27.8571C27.3724 28.3857 26.6326 30.1664 26.6326 30.1664C26.6326 30.1664 28.5412 30.5543 29.5585 30.0169C30.5354 29.5009 31.3454 27.786 31.3454 27.786C31.3454 27.786 29.3856 27.2976 28.3503 27.8571Z" fill="#FF5655"/>
<path opacity="0.7" d="M15.2078 32.5994C16.5067 32.2536 18.584 33.2487 18.584 33.2487C18.584 33.2487 17.1743 35.2151 15.833 35.5862C14.5451 35.9425 12.4569 35.0668 12.4569 35.0668C12.4569 35.0668 13.8328 32.9654 15.2078 32.5994Z" fill="#FF5655"/>
<path opacity="0.7" d="M11.6967 30.7997C12.877 30.7817 14.4577 32.0628 14.4577 32.0628C14.4577 32.0628 12.8614 33.4286 11.6398 33.459C10.4668 33.4882 8.85308 32.3058 8.85308 32.3058C8.85308 32.3058 10.4472 30.8187 11.6967 30.7997Z" fill="#FF5655"/>
<path opacity="0.7" d="M9.57105 27.8899C10.5255 28.4058 11.2475 30.1437 11.2475 30.1437C11.2475 30.1437 9.38477 30.5222 8.39188 29.9978C7.43847 29.4942 6.64799 27.8206 6.64799 27.8206C6.64799 27.8206 8.56063 27.3438 9.57105 27.8899Z" fill="#FF5655"/>
<path opacity="0.3" fill-rule="evenodd" clip-rule="evenodd" d="M19.0004 8.5925C12.0456 8.5925 6.49616 14.012 6.49616 20.5895C6.49616 22.2667 6.85424 23.8616 7.50117 25.3099L5.4281 26.2508C4.65252 24.5144 4.22266 22.5995 4.22266 20.5895C4.22266 12.6498 10.8878 6.30078 19.0004 6.30078C27.113 6.30078 33.7782 12.6498 33.7782 20.5895C33.7782 22.5995 33.3483 24.5144 32.5728 26.2508L30.4997 25.3099C31.1466 23.8616 31.5047 22.2667 31.5047 20.5895C31.5047 14.012 25.9553 8.5925 19.0004 8.5925Z" fill="#FF5655"/>
</svg>
