<svg width="36" height="24" viewBox="0 0 36 24" fill="none" xmlns="http://www.w3.org/2000/svg">
<path d="M10.3893 0L12.3221 3.80851C10.7919 4.40095 9.7047 5.20497 9.0604 6.22058C8.49664 7.23618 8.21477 7.74398 8.21477 7.74398C8.21477 7.74398 8.61745 7.82862 9.42282 7.99789C10.2282 8.08252 11.1141 8.37874 12.0805 8.88654C13.1275 9.39434 14.0537 10.1984 14.8591 11.2986C15.6644 12.3142 16.0671 13.753 16.0671 15.6149C16.0671 17.9847 15.2617 20.0159 13.651 21.7085C12.1208 23.3166 10.2685 24.0783 8.09396 23.9937C5.83893 23.909 3.90604 22.9781 2.2953 21.2007C0.7651 19.3388 0 17.096 0 14.4724C0 11.1716 0.966443 8.25179 2.89933 5.71278C4.83221 3.08913 7.32886 1.18487 10.3893 0ZM30.3221 0L32.255 3.80851C30.7248 4.40095 29.6376 5.20497 28.9933 6.22058C28.4295 7.23618 28.1476 7.74398 28.1476 7.74398C28.1476 7.74398 28.5503 7.82862 29.3557 7.99789C30.1611 8.08252 31.047 8.37874 32.0134 8.88654C33.0604 9.39434 33.9866 10.1984 34.7919 11.2986C35.5973 12.3142 36 13.753 36 15.6149C36 17.9847 35.1946 20.0159 33.5839 21.7085C32.0537 23.3166 30.2013 24.0783 28.0268 23.9937C25.7718 23.909 23.8389 22.9781 22.2282 21.2007C20.698 19.3388 19.9329 17.096 19.9329 14.4724C19.9329 11.1716 20.8993 8.25179 22.8322 5.71278C24.7651 3.08913 27.2617 1.18487 30.3221 0Z" fill="#9A9BA2"/>
</svg>
