<svg width="36" height="36" viewBox="0 0 36 36" fill="none" xmlns="http://www.w3.org/2000/svg">
<rect x="0.5" y="0.5" width="35" height="35" rx="7.5" stroke="#E3E3E7"/>
<path d="M10.4996 6C9.67463 6 8.99963 6.675 8.99963 7.5V28.5C8.99963 29.325 9.67463 30 10.4996 30H25.4996C26.3246 30 26.9996 29.325 26.9996 28.5V12L20.9996 6H10.4996Z" fill="#E3E3E7"/>
<path d="M22.4998 12H26.9998L20.9998 6V10.5C20.9998 11.325 21.6748 12 22.4998 12Z" fill="#C8C9D0"/>
<path d="M26.9996 16.5L22.4996 12H26.9996V16.5Z" fill="#DDDEE5"/>
<path d="M28.4999 25.5C28.4999 25.9125 28.1061 26.25 27.6233 26.25H8.37644C7.89363 26.25 7.49988 25.9125 7.49988 25.5V18C7.49988 17.5875 7.89363 17.25 8.37644 17.25H27.628C28.1108 17.25 28.5046 17.5875 28.5046 18V25.5H28.4999Z" fill="#33343E"/>
<path d="M26.9996 26.25H8.99963V27H26.9996V26.25Z" fill="#D7DFEC"/>
<path d="M14.3434 21.1453L15.3887 19.8375C15.7028 19.4297 16.3075 19.95 15.9653 20.3391C15.6044 20.7656 15.2294 21.225 14.8684 21.6985L16.0919 23.2219C16.42 23.6719 15.7637 24.1031 15.4403 23.6578L14.334 22.2422L13.2465 23.686C12.9419 24.1219 12.2622 23.6297 12.6044 23.2219L13.809 21.6938C13.4294 21.2203 13.0637 20.7563 12.6981 20.3344C12.3231 19.8844 13.0215 19.425 13.2981 19.8422L14.3434 21.1453Z" fill="white"/>
<path d="M16.828 20.0672C16.828 19.8703 16.9968 19.7015 17.2077 19.7015C17.3999 19.7015 17.5639 19.8703 17.5639 20.0672V23.0719H19.1952C19.7811 23.0719 19.7952 23.8594 19.1952 23.8594H17.2124C17.0014 23.8594 16.8327 23.7094 16.8327 23.4937L16.828 20.0672Z" fill="white"/>
<path d="M20.3297 20.6063C20.4656 19.4438 22.2234 19.2328 23.0531 19.8703C23.4609 20.1984 23.0297 20.7234 22.6688 20.4563C22.2234 20.175 21.2156 20.0438 21.0938 20.6672C20.9297 21.6516 23.5406 21.0891 23.4984 22.6828C23.4563 24.2063 21.2484 24.2391 20.4234 23.5594C20.2266 23.3953 20.2313 23.1328 20.3391 22.9734C20.4938 22.8188 20.6672 22.7625 20.8734 22.9313C21.3656 23.2688 22.6313 23.5172 22.7203 22.6688C22.6359 21.7781 20.1422 22.3125 20.3297 20.6063Z" fill="white"/>
</svg>
