<svg width="38" height="42" viewBox="0 0 38 42" fill="none" xmlns="http://www.w3.org/2000/svg">
<path opacity="0.2" fill-rule="evenodd" clip-rule="evenodd" d="M21.1939 0.580659C19.8363 -0.193553 18.1637 -0.193553 16.8061 0.580659L2.19393 8.91361C0.836322 9.68782 0 11.1186 0 12.667V29.333C0 30.8814 0.836322 32.3122 2.19393 33.0864L16.8061 41.4193C18.1637 42.1936 19.8363 42.1936 21.1939 41.4193L35.8061 33.0864C37.1637 32.3122 38 30.8814 38 29.333V12.6671C38 11.1186 37.1637 9.68782 35.8061 8.91361L21.1939 0.580659Z" fill="#FF5655"/>
<path d="M27.7963 23.625H26.0371V21C26.0371 20.7679 25.9444 20.5454 25.7794 20.3813C25.6145 20.2172 25.3907 20.125 25.1574 20.125H19.8797V18.375H21.6389C21.8722 18.375 22.0959 18.2828 22.2609 18.1187C22.4259 17.9546 22.5185 17.7321 22.5185 17.5V12.25C22.5185 12.0179 22.4259 11.7954 22.2609 11.6313C22.0959 11.4672 21.8722 11.375 21.6389 11.375H16.3611C16.1278 11.375 15.9041 11.4672 15.7391 11.6313C15.5742 11.7954 15.4815 12.0179 15.4815 12.25V17.5C15.4815 17.7321 15.5742 17.9546 15.7391 18.1187C15.9041 18.2828 16.1278 18.375 16.3611 18.375H18.1204V20.125H12.8426C12.6093 20.125 12.3856 20.2172 12.2206 20.3813C12.0557 20.5454 11.963 20.7679 11.963 21V23.625H10.2037C9.97043 23.625 9.7467 23.7172 9.58173 23.8813C9.41677 24.0454 9.3241 24.2679 9.3241 24.5V29.75C9.3241 29.9821 9.41677 30.2046 9.58173 30.3687C9.7467 30.5328 9.97043 30.625 10.2037 30.625H15.4815C15.7148 30.625 15.9385 30.5328 16.1035 30.3687C16.2685 30.2046 16.3611 29.9821 16.3611 29.75V24.5C16.3611 24.2679 16.2685 24.0454 16.1035 23.8813C15.9385 23.7172 15.7148 23.625 15.4815 23.625H13.7222V21.875H24.2778V23.625H22.5185C22.2852 23.625 22.0615 23.7172 21.8966 23.8813C21.7316 24.0454 21.6389 24.2679 21.6389 24.5V29.75C21.6389 29.9821 21.7316 30.2046 21.8966 30.3687C22.0615 30.5328 22.2852 30.625 22.5185 30.625H27.7963C28.0296 30.625 28.2533 30.5328 28.4183 30.3687C28.5833 30.2046 28.6759 29.9821 28.6759 29.75V24.5C28.6759 24.2679 28.5833 24.0454 28.4183 23.8813C28.2533 23.7172 28.0296 23.625 27.7963 23.625ZM14.6019 25.375V28.875H11.0834V25.375H14.6019ZM17.2408 16.625V13.125H20.7593V16.625H17.2408ZM26.9167 28.875H23.3982V25.375H26.9167V28.875Z" fill="#FF5655"/>
</svg>
