<svg width="38" height="42" viewBox="0 0 38 42" fill="none" xmlns="http://www.w3.org/2000/svg">
<path opacity="0.2" fill-rule="evenodd" clip-rule="evenodd" d="M21.1939 0.580659C19.8363 -0.193553 18.1637 -0.193553 16.8061 0.580659L2.19393 8.91361C0.836322 9.68782 0 11.1186 0 12.667V29.333C0 30.8814 0.836322 32.3122 2.19393 33.0864L16.8061 41.4193C18.1637 42.1936 19.8363 42.1936 21.1939 41.4193L35.8061 33.0864C37.1637 32.3122 38 30.8814 38 29.333V12.6671C38 11.1186 37.1637 9.68782 35.8061 8.91361L21.1939 0.580659Z" fill="#38D47E"/>
<path d="M17.2407 14C15.2974 14 13.7221 15.567 13.7221 17.5C13.7221 19.433 15.2974 21 17.2407 21C19.1839 21 20.7592 19.433 20.7592 17.5C20.7592 15.567 19.1839 14 17.2407 14ZM11.9629 17.5C11.9629 14.6005 14.3258 12.25 17.2407 12.25C20.1555 12.25 22.5184 14.6005 22.5184 17.5C22.5184 20.3995 20.1555 22.75 17.2407 22.75C14.3258 22.75 11.9629 20.3995 11.9629 17.5ZM25.1573 20.125C25.6431 20.125 26.0369 20.5168 26.0369 21V21.875H26.9166C27.4024 21.875 27.7962 22.2668 27.7962 22.75C27.7962 23.2332 27.4024 23.625 26.9166 23.625H26.0369V24.5C26.0369 24.9832 25.6431 25.375 25.1573 25.375C24.6715 25.375 24.2777 24.9832 24.2777 24.5V23.625H23.3981C22.9123 23.625 22.5184 23.2332 22.5184 22.75C22.5184 22.2668 22.9123 21.875 23.3981 21.875H24.2777V21C24.2777 20.5168 24.6715 20.125 25.1573 20.125ZM14.1619 26.25C13.0541 26.25 11.9629 27.3118 11.9629 28.875C11.9629 29.3582 11.569 29.75 11.0832 29.75C10.5974 29.75 10.2036 29.3582 10.2036 28.875C10.2036 26.5722 11.8692 24.5 14.1619 24.5H20.3194C22.6121 24.5 24.2777 26.5722 24.2777 28.875C24.2777 29.3582 23.8839 29.75 23.3981 29.75C22.9123 29.75 22.5184 29.3582 22.5184 28.875C22.5184 27.3118 21.4272 26.25 20.3194 26.25H14.1619Z" fill="#38D47E"/>
</svg>
