<svg width="24" height="24" viewBox="0 0 24 24" fill="none" xmlns="http://www.w3.org/2000/svg">
<path fill-rule="evenodd" clip-rule="evenodd" d="M9 2C9 1.44772 8.55228 1 8 1H2C1.44772 1 1 1.44772 1 2V8C1 8.55228 1.44772 9 2 9H8C8.55228 9 9 8.55228 9 8V6H11V20H15V22C15 22.5523 15.4477 23 16 23H22C22.5523 23 23 22.5523 23 22V16C23 15.4477 22.5523 15 22 15H16C15.4477 15 15 15.4477 15 16V18H13V6H15V8C15 8.55228 15.4477 9 16 9H22C22.5523 9 23 8.55228 23 8V2C23 1.44772 22.5523 1 22 1H16C15.4477 1 15 1.44772 15 2V4H9V2ZM21 3H17V7H21V3ZM17 17H21V21H17V17Z" fill="#9A9BA2"/>
</svg>
