<svg width="25" height="24" viewBox="0 0 25 24" fill="none" xmlns="http://www.w3.org/2000/svg">
<path fill-rule="evenodd" clip-rule="evenodd" d="M17.7235 4H7.0568C5.58404 4 4.39014 5.19391 4.39014 6.66667V17.3333C4.39014 18.8061 5.58404 20 7.0568 20H17.7235C19.1962 20 20.3901 18.8061 20.3901 17.3333V6.66667C20.3901 5.19391 19.1962 4 17.7235 4ZM6.168 6.66669C6.168 6.17577 6.56597 5.7778 7.05689 5.7778H17.7236C18.2145 5.7778 18.6124 6.17577 18.6124 6.66669V17.3334C18.6124 17.8243 18.2145 18.2222 17.7236 18.2222H7.05689C6.56597 18.2222 6.168 17.8243 6.168 17.3334V6.66669Z" fill="#33343E"/>
</svg>
