<svg width="38" height="42" viewBox="0 0 38 42" fill="none" xmlns="http://www.w3.org/2000/svg">
<path opacity="0.2" fill-rule="evenodd" clip-rule="evenodd" d="M21.1939 0.580659C19.8363 -0.193553 18.1637 -0.193553 16.8061 0.580659L2.19393 8.91361C0.836322 9.68782 0 11.1186 0 12.667V29.333C0 30.8814 0.836322 32.3122 2.19393 33.0864L16.8061 41.4193C18.1637 42.1936 19.8363 42.1936 21.1939 41.4193L35.8061 33.0864C37.1637 32.3122 38 30.8814 38 29.333V12.6671C38 11.1186 37.1637 9.68782 35.8061 8.91361L21.1939 0.580659Z" fill="#7B61FF"/>
<path d="M17.2407 14C15.2975 14 13.7222 15.567 13.7222 17.5C13.7222 19.433 15.2975 21 17.2407 21C19.184 21 20.7593 19.433 20.7593 17.5C20.7593 15.567 19.184 14 17.2407 14ZM11.963 17.5C11.963 14.6005 14.3259 12.25 17.2407 12.25C20.1556 12.25 22.5185 14.6005 22.5185 17.5C22.5185 20.3995 20.1556 22.75 17.2407 22.75C14.3259 22.75 11.963 20.3995 11.963 17.5ZM23.2472 13.7877C23.5908 13.446 24.1477 13.446 24.4912 13.7877C26.5523 15.8379 26.5523 19.1621 24.4912 21.2123C24.1477 21.554 23.5908 21.554 23.2472 21.2123C22.9037 20.8706 22.9037 20.3166 23.2472 19.9749C24.6213 18.608 24.6213 16.392 23.2472 15.0251C22.9037 14.6834 22.9037 14.1294 23.2472 13.7877ZM23.8642 25.1628C23.9821 24.694 24.4596 24.4089 24.9309 24.5261C26.099 24.8166 26.8384 25.5596 27.2636 26.4056C27.6751 27.2242 27.7963 28.1375 27.7963 28.875C27.7963 29.3582 27.4025 29.75 26.9167 29.75C26.4309 29.75 26.037 29.3582 26.037 28.875C26.037 28.3 25.9383 27.6821 25.6901 27.1882C25.4556 26.7217 25.0954 26.3709 24.5043 26.2239C24.033 26.1067 23.7464 25.6316 23.8642 25.1628ZM14.162 26.25C13.0542 26.25 11.963 27.3118 11.963 28.875C11.963 29.3582 11.5691 29.75 11.0833 29.75C10.5975 29.75 10.2037 29.3582 10.2037 28.875C10.2037 26.5722 11.8693 24.5 14.162 24.5H20.3194C22.6122 24.5 24.2778 26.5722 24.2778 28.875C24.2778 29.3582 23.884 29.75 23.3982 29.75C22.9123 29.75 22.5185 29.3582 22.5185 28.875C22.5185 27.3118 21.4273 26.25 20.3194 26.25H14.162Z" fill="#7B61FF"/>
</svg>
