<svg width="36" height="36" viewBox="0 0 36 36" fill="none" xmlns="http://www.w3.org/2000/svg">
<path opacity="0.5" fill-rule="evenodd" clip-rule="evenodd" d="M0 18C0 8.05887 8.05887 0 18 0C27.9411 0 36 8.05887 36 18C36 27.9411 27.9411 36 18 36C8.05887 36 0 27.9411 0 18Z" fill="#9A9BA2"/>
<path fill-rule="evenodd" clip-rule="evenodd" d="M21.3431 21.2426C23.6863 18.8995 23.6863 15.1005 21.3431 12.7574C19 10.4142 15.201 10.4142 12.8579 12.7574C10.5147 15.1005 10.5147 18.8995 12.8579 21.2426C15.201 23.5858 19 23.5858 21.3431 21.2426ZM22.7574 11.3431C25.6425 14.2283 25.8633 18.769 23.4195 21.9075C23.4348 21.921 23.4498 21.9351 23.4645 21.9497L27.7071 26.1924C28.0976 26.5829 28.0976 27.2161 27.7071 27.6066C27.3166 27.9971 26.6834 27.9971 26.2929 27.6066L22.0503 23.364C22.0356 23.3493 22.0215 23.3343 22.008 23.319C18.8695 25.7628 14.3288 25.542 11.4437 22.6569C8.31946 19.5327 8.31946 14.4673 11.4437 11.3431C14.5678 8.21895 19.6332 8.21895 22.7574 11.3431ZM13.1005 16V18H21.1005V16L13.1005 16Z" fill="white"/>
</svg>
