<svg width="24" height="24" viewBox="0 0 24 24" fill="none" xmlns="http://www.w3.org/2000/svg">
<path fill-rule="evenodd" clip-rule="evenodd" d="M20 3C20.5523 3 21 3.44772 21 4V8C21 8.55228 20.5523 9 20 9H4C3.44772 9 3 8.55228 3 8V4C3 3.44772 3.44772 3 4 3H20ZM5 5H19V7H5V5Z" fill="#7B61FF"/>
<path fill-rule="evenodd" clip-rule="evenodd" d="M20 11C20.5523 11 21 11.4477 21 12V20C21 20.5523 20.5523 21 20 21H14C13.4477 21 13 20.5523 13 20V12C13 11.4477 13.4477 11 14 11H20ZM15 13H19V19H15V13Z" fill="#7B61FF"/>
<path d="M3 12C3 11.4477 3.44772 11 4 11H10C10.5523 11 11 11.4477 11 12C11 12.5523 10.5523 13 10 13H4C3.44772 13 3 12.5523 3 12Z" fill="#7B61FF"/>
<path d="M11 16C11 15.4477 10.5523 15 10 15H4C3.44772 15 3 15.4477 3 16C3 16.5523 3.44772 17 4 17H10C10.5523 17 11 16.5523 11 16Z" fill="#7B61FF"/>
<path d="M3 20C3 19.4477 3.44772 19 4 19H10C10.5523 19 11 19.4477 11 20C11 20.5523 10.5523 21 10 21H4C3.44772 21 3 20.5523 3 20Z" fill="#7B61FF"/>
</svg>
