<svg width="24" height="24" viewBox="0 0 24 24" fill="none" xmlns="http://www.w3.org/2000/svg">
<path fill-rule="evenodd" clip-rule="evenodd" d="M12.2256 2.00302C9.59172 1.94394 6.93894 2.91939 4.92893 4.9294C1.02369 8.83464 1.02369 15.1663 4.92893 19.0715C8.83418 22.9768 15.1658 22.9768 19.0711 19.0715C21.0811 17.0615 22.0565 14.4087 21.9975 11.7748C21.9796 10.9777 21.8669 10.1823 21.6595 9.40692C21.0933 9.94929 20.5078 10.4281 19.9163 10.843C18.5649 11.7911 17.1826 12.4058 15.9301 12.6841C14.0241 13.1077 12.7156 12.7161 12 12.0005C11.2844 11.2849 10.8928 9.97636 11.3163 8.07038C11.5947 6.81787 12.2094 5.4356 13.1575 4.08417C13.5724 3.4927 14.0512 2.90713 14.5935 2.34094C13.8182 2.13354 13.0228 2.0209 12.2256 2.00302ZM17.6569 17.6573C18.9081 16.4061 19.6582 14.8436 19.9072 13.2191C16.3611 15.2648 12.638 15.4669 10.5858 13.4147C8.53361 11.3625 8.73568 7.63944 10.7814 4.0933C9.1569 4.34232 7.59434 5.09242 6.34315 6.34361C3.21895 9.46781 3.21895 14.5331 6.34315 17.6573C9.46734 20.7815 14.5327 20.7815 17.6569 17.6573Z" fill="#7B61FF"/>
</svg>
