<svg width="24" height="24" viewBox="0 0 24 24" fill="none" xmlns="http://www.w3.org/2000/svg">
<path d="M17 13C17 12.4477 16.5523 12 16 12H12C11.4477 12 11 12.4477 11 13C11 13.5523 11.4477 14 12 14H16C16.5523 14 17 13.5523 17 13Z" fill="#7B61FF"/>
<path d="M8 8C7.44772 8 7 8.44772 7 9C7 9.55228 7.44772 10 8 10H12C12.5523 10 13 9.55228 13 9C13 8.44772 12.5523 8 12 8H8Z" fill="#7B61FF"/>
<path d="M10 13C10 12.4477 9.55228 12 9 12H8C7.44772 12 7 12.4477 7 13C7 13.5523 7.44772 14 8 14H9C9.55228 14 10 13.5523 10 13Z" fill="#7B61FF"/>
<path d="M15 8C14.4477 8 14 8.44772 14 9C14 9.55228 14.4477 10 15 10H16C16.5523 10 17 9.55228 17 9C17 8.44772 16.5523 8 16 8H15Z" fill="#7B61FF"/>
<path d="M17.4472 19.1056L20 20.382V3L4 3V20.1315L5.4453 19.1679L6 18.7981L6.5547 19.1679L9 20.7981L11.4453 19.1679L12 18.7981L12.5547 19.1679L14.8726 20.7132L16.2929 19.2929L16.8025 18.7832L17.4472 19.1056Z" stroke="#7B61FF" stroke-width="2"/>
</svg>
