<svg width="119" height="40" viewBox="0 0 119 40" fill="none" xmlns="http://www.w3.org/2000/svg">
<rect opacity="0.04" x="0.390625" width="118" height="40" rx="4" fill="#E3E3E7"/>
<path d="M41.1906 10.4C41.9533 10.4 42.5826 10.672 43.0786 11.216C43.58 11.7547 43.8306 12.416 43.8306 13.2C43.8306 13.984 43.58 14.648 43.0786 15.192C42.5826 15.7307 41.9533 16 41.1906 16H39.0306V10.4H41.1906ZM41.1906 15.472C41.804 15.472 42.3053 15.2533 42.6946 14.816C43.0893 14.3787 43.2866 13.84 43.2866 13.2C43.2866 12.56 43.0893 12.0213 42.6946 11.584C42.3053 11.1467 41.804 10.928 41.1906 10.928H39.5906V15.472H41.1906ZM48.0604 15.496C47.6551 15.896 47.1591 16.096 46.5724 16.096C45.9858 16.096 45.4871 15.896 45.0764 15.496C44.6711 15.0907 44.4684 14.592 44.4684 14C44.4684 13.408 44.6711 12.912 45.0764 12.512C45.4871 12.1067 45.9858 11.904 46.5724 11.904C47.1591 11.904 47.6551 12.1067 48.0604 12.512C48.4711 12.912 48.6764 13.408 48.6764 14C48.6764 14.592 48.4711 15.0907 48.0604 15.496ZM45.4524 15.128C45.7564 15.432 46.1298 15.584 46.5724 15.584C47.0151 15.584 47.3884 15.432 47.6924 15.128C47.9964 14.8187 48.1484 14.4427 48.1484 14C48.1484 13.5573 47.9964 13.184 47.6924 12.88C47.3884 12.5707 47.0151 12.416 46.5724 12.416C46.1298 12.416 45.7564 12.5707 45.4524 12.88C45.1484 13.184 44.9964 13.5573 44.9964 14C44.9964 14.4427 45.1484 14.8187 45.4524 15.128ZM54.2198 12H54.7638L53.5318 16H52.9557L51.9238 12.776L50.8918 16H50.3158L49.0838 12H49.6278L50.6118 15.32L51.6598 12H52.1878L53.2358 15.32L54.2198 12ZM57.432 11.904C57.9173 11.904 58.2987 12.0533 58.576 12.352C58.8587 12.6453 59 13.0427 59 13.544V16H58.472V13.544C58.472 13.1867 58.376 12.9093 58.184 12.712C57.9973 12.5147 57.7307 12.416 57.384 12.416C57 12.416 56.688 12.5387 56.448 12.784C56.208 13.024 56.088 13.3973 56.088 13.904V16H55.56V12H56.088V12.624C56.3867 12.144 56.8347 11.904 57.432 11.904ZM60.0209 16V10.16H60.5489V16H60.0209ZM65.0214 15.496C64.616 15.896 64.12 16.096 63.5334 16.096C62.9467 16.096 62.448 15.896 62.0374 15.496C61.632 15.0907 61.4294 14.592 61.4294 14C61.4294 13.408 61.632 12.912 62.0374 12.512C62.448 12.1067 62.9467 11.904 63.5334 11.904C64.12 11.904 64.616 12.1067 65.0214 12.512C65.432 12.912 65.6374 13.408 65.6374 14C65.6374 14.592 65.432 15.0907 65.0214 15.496ZM62.4134 15.128C62.7174 15.432 63.0907 15.584 63.5334 15.584C63.976 15.584 64.3494 15.432 64.6534 15.128C64.9574 14.8187 65.1094 14.4427 65.1094 14C65.1094 13.5573 64.9574 13.184 64.6534 12.88C64.3494 12.5707 63.976 12.416 63.5334 12.416C63.0907 12.416 62.7174 12.5707 62.4134 12.88C62.1094 13.184 61.9574 13.5573 61.9574 14C61.9574 14.4427 62.1094 14.8187 62.4134 15.128ZM69.9609 12H70.4889V16H69.9609V15.216C69.5929 15.8027 69.0543 16.096 68.3449 16.096C67.7743 16.096 67.2863 15.8933 66.8809 15.488C66.4809 15.0827 66.2809 14.5867 66.2809 14C66.2809 13.4133 66.4809 12.9173 66.8809 12.512C67.2863 12.1067 67.7743 11.904 68.3449 11.904C69.0543 11.904 69.5929 12.1973 69.9609 12.784V12ZM67.2649 15.128C67.5689 15.432 67.9423 15.584 68.3849 15.584C68.8276 15.584 69.2009 15.432 69.5049 15.128C69.8089 14.8187 69.9609 14.4427 69.9609 14C69.9609 13.5573 69.8089 13.184 69.5049 12.88C69.2009 12.5707 68.8276 12.416 68.3849 12.416C67.9423 12.416 67.5689 12.5707 67.2649 12.88C66.9609 13.184 66.8089 13.5573 66.8089 14C66.8089 14.4427 66.9609 14.8187 67.2649 15.128ZM75.0469 10.4H75.5749V16H75.0469V15.216C74.6789 15.8027 74.1402 16.096 73.4309 16.096C72.8602 16.096 72.3722 15.8933 71.9669 15.488C71.5669 15.0827 71.3669 14.5867 71.3669 14C71.3669 13.4133 71.5669 12.9173 71.9669 12.512C72.3722 12.1067 72.8602 11.904 73.4309 11.904C74.1402 11.904 74.6789 12.1973 75.0469 12.784V10.4ZM72.3509 15.128C72.6549 15.432 73.0282 15.584 73.4709 15.584C73.9135 15.584 74.2869 15.432 74.5909 15.128C74.8949 14.8187 75.0469 14.4427 75.0469 14C75.0469 13.5573 74.8949 13.184 74.5909 12.88C74.2869 12.5707 73.9135 12.416 73.4709 12.416C73.0282 12.416 72.6549 12.5707 72.3509 12.88C72.0469 13.184 71.8949 13.5573 71.8949 14C71.8949 14.4427 72.0469 14.8187 72.3509 15.128Z" fill="#E3E3E7"/>
<path d="M47.4146 24.488V25.136C47.4146 26.336 47.0306 27.308 46.2626 28.052C45.4946 28.796 44.5026 29.168 43.2866 29.168C41.9906 29.168 40.9146 28.748 40.0586 27.908C39.2106 27.06 38.7866 26.028 38.7866 24.812C38.7866 23.588 39.2066 22.552 40.0466 21.704C40.8946 20.856 41.9426 20.432 43.1906 20.432C43.9746 20.432 44.6906 20.612 45.3386 20.972C45.9866 21.324 46.4906 21.796 46.8506 22.388L45.4346 23.204C45.2346 22.86 44.9306 22.58 44.5226 22.364C44.1226 22.148 43.6746 22.04 43.1786 22.04C42.3786 22.04 41.7186 22.304 41.1986 22.832C40.6866 23.352 40.4306 24.012 40.4306 24.812C40.4306 25.604 40.6906 26.26 41.2106 26.78C41.7386 27.292 42.4346 27.548 43.2986 27.548C43.9386 27.548 44.4666 27.408 44.8826 27.128C45.3066 26.84 45.5946 26.448 45.7466 25.952H43.2026V24.488H47.4146ZM53.6325 28.256C53.0165 28.864 52.2645 29.168 51.3765 29.168C50.4885 29.168 49.7365 28.864 49.1205 28.256C48.5125 27.64 48.2085 26.888 48.2085 26C48.2085 25.112 48.5125 24.364 49.1205 23.756C49.7365 23.14 50.4885 22.832 51.3765 22.832C52.2645 22.832 53.0165 23.14 53.6325 23.756C54.2485 24.364 54.5565 25.112 54.5565 26C54.5565 26.888 54.2485 27.64 53.6325 28.256ZM50.2125 27.188C50.5245 27.5 50.9125 27.656 51.3765 27.656C51.8405 27.656 52.2285 27.5 52.5405 27.188C52.8525 26.876 53.0085 26.48 53.0085 26C53.0085 25.52 52.8525 25.124 52.5405 24.812C52.2285 24.5 51.8405 24.344 51.3765 24.344C50.9125 24.344 50.5245 24.5 50.2125 24.812C49.9085 25.124 49.7565 25.52 49.7565 26C49.7565 26.48 49.9085 26.876 50.2125 27.188ZM60.7575 28.256C60.1415 28.864 59.3895 29.168 58.5015 29.168C57.6135 29.168 56.8615 28.864 56.2455 28.256C55.6375 27.64 55.3335 26.888 55.3335 26C55.3335 25.112 55.6375 24.364 56.2455 23.756C56.8615 23.14 57.6135 22.832 58.5015 22.832C59.3895 22.832 60.1415 23.14 60.7575 23.756C61.3735 24.364 61.6815 25.112 61.6815 26C61.6815 26.888 61.3735 27.64 60.7575 28.256ZM57.3375 27.188C57.6495 27.5 58.0375 27.656 58.5015 27.656C58.9655 27.656 59.3535 27.5 59.6655 27.188C59.9775 26.876 60.1335 26.48 60.1335 26C60.1335 25.52 59.9775 25.124 59.6655 24.812C59.3535 24.5 58.9655 24.344 58.5015 24.344C58.0375 24.344 57.6495 24.5 57.3375 24.812C57.0335 25.124 56.8815 25.52 56.8815 26C56.8815 26.48 57.0335 26.876 57.3375 27.188ZM67.3665 23H68.8785V28.712C68.8785 29.64 68.5705 30.348 67.9545 30.836C67.3465 31.324 66.6105 31.568 65.7465 31.568C65.0985 31.568 64.5265 31.444 64.0305 31.196C63.5425 30.948 63.1665 30.584 62.9025 30.104L64.2225 29.348C64.5265 29.908 65.0505 30.188 65.7945 30.188C66.2825 30.188 66.6665 30.06 66.9465 29.804C67.2265 29.548 67.3665 29.184 67.3665 28.712V28.064C66.9105 28.672 66.2705 28.976 65.4465 28.976C64.5985 28.976 63.8865 28.68 63.3105 28.088C62.7425 27.488 62.4585 26.76 62.4585 25.904C62.4585 25.056 62.7465 24.332 63.3225 23.732C63.8985 23.132 64.6065 22.832 65.4465 22.832C66.2705 22.832 66.9105 23.136 67.3665 23.744V23ZM64.4745 27.092C64.7945 27.396 65.1985 27.548 65.6865 27.548C66.1745 27.548 66.5745 27.396 66.8865 27.092C67.2065 26.78 67.3665 26.384 67.3665 25.904C67.3665 25.432 67.2065 25.044 66.8865 24.74C66.5745 24.428 66.1745 24.272 65.6865 24.272C65.1985 24.272 64.7945 24.428 64.4745 24.74C64.1625 25.044 64.0065 25.432 64.0065 25.904C64.0065 26.384 64.1625 26.78 64.4745 27.092ZM70.2822 29V20.24H71.8302V29H70.2822ZM74.5551 26.636C74.7631 27.388 75.3271 27.764 76.2471 27.764C76.8391 27.764 77.2871 27.564 77.5911 27.164L78.8391 27.884C78.2471 28.74 77.3751 29.168 76.2231 29.168C75.2311 29.168 74.4351 28.868 73.8351 28.268C73.2351 27.668 72.9351 26.912 72.9351 26C72.9351 25.096 73.2311 24.344 73.8231 23.744C74.4151 23.136 75.1751 22.832 76.1031 22.832C76.9831 22.832 77.7071 23.136 78.2751 23.744C78.8511 24.352 79.1391 25.104 79.1391 26C79.1391 26.2 79.1191 26.412 79.0791 26.636H74.5551ZM74.5311 25.436H77.5911C77.5031 25.028 77.3191 24.724 77.0391 24.524C76.7671 24.324 76.4551 24.224 76.1031 24.224C75.6871 24.224 75.3431 24.332 75.0711 24.548C74.7991 24.756 74.6191 25.052 74.5311 25.436ZM86.4237 20.6C87.2317 20.6 87.9117 20.872 88.4637 21.416C89.0157 21.96 89.2917 22.628 89.2917 23.42C89.2917 24.212 89.0157 24.88 88.4637 25.424C87.9117 25.968 87.2317 26.24 86.4237 26.24H84.9477V29H83.2917V20.6H86.4237ZM86.4237 24.692C86.7757 24.692 87.0677 24.572 87.2997 24.332C87.5317 24.084 87.6477 23.78 87.6477 23.42C87.6477 23.052 87.5317 22.748 87.2997 22.508C87.0677 22.268 86.7757 22.148 86.4237 22.148H84.9477V24.692H86.4237ZM90.2978 29V20.24H91.8458V29H90.2978ZM97.8227 23H99.3707V29H97.8227V28.292C97.3587 28.876 96.7067 29.168 95.8667 29.168C95.0667 29.168 94.3787 28.864 93.8027 28.256C93.2347 27.64 92.9507 26.888 92.9507 26C92.9507 25.112 93.2347 24.364 93.8027 23.756C94.3787 23.14 95.0667 22.832 95.8667 22.832C96.7067 22.832 97.3587 23.124 97.8227 23.708V23ZM94.9667 27.224C95.2787 27.536 95.6747 27.692 96.1547 27.692C96.6347 27.692 97.0307 27.536 97.3427 27.224C97.6627 26.904 97.8227 26.496 97.8227 26C97.8227 25.504 97.6627 25.1 97.3427 24.788C97.0307 24.468 96.6347 24.308 96.1547 24.308C95.6747 24.308 95.2787 24.468 94.9667 24.788C94.6547 25.1 94.4987 25.504 94.4987 26C94.4987 26.496 94.6547 26.904 94.9667 27.224ZM104.686 23H106.342L104.158 29C103.846 29.864 103.43 30.488 102.91 30.872C102.398 31.264 101.758 31.44 100.99 31.4V29.96C101.406 29.968 101.734 29.88 101.974 29.696C102.222 29.512 102.418 29.216 102.562 28.808L100.102 23H101.794L103.354 27.032L104.686 23Z" fill="#E3E3E7"/>
<path d="M10.7979 8.37099C10.5467 8.66028 10.3994 9.10822 10.3994 9.67747V30.3199C10.3994 30.8985 10.5467 31.3464 10.7979 31.6264L10.8585 31.6917L21.5904 20.1387V19.9987V19.8587L10.8585 8.30566L10.7979 8.37099Z" fill="url(#paint0_linear_2173:53515)"/>
<path d="M25.1672 23.9941L21.5898 20.1399V20V19.86L25.1672 16.0059L25.2451 16.0525L29.4807 18.6468C30.6934 19.3841 30.6934 20.5972 29.4807 21.3438L25.2451 23.9381L25.1672 23.9941Z" fill="url(#paint1_linear_2173:53515)"/>
<path d="M25.2457 23.9381L21.5904 20L10.7979 31.6277C11.1963 32.085 11.8546 32.1409 12.5995 31.6837L25.2457 23.9381Z" fill="url(#paint2_linear_2173:53515)"/>
<path d="M25.2455 16.0618L12.5907 8.31624C11.8458 7.85897 11.1875 7.91496 10.7891 8.37223L21.5903 19.9999L25.2455 16.0618Z" fill="url(#paint3_linear_2173:53515)"/>
<path opacity="0.2" d="M25.1677 23.854L12.5908 31.5529C11.8892 31.9822 11.2569 31.9542 10.8585 31.5622L10.7979 31.6276L10.8585 31.6929C11.2656 32.0848 11.8892 32.1128 12.5908 31.6836L25.2457 23.938L25.1677 23.854Z" fill="#E3E3E7"/>
<path opacity="0.12" d="M10.7979 31.4969C10.5467 31.2076 10.3994 30.7597 10.3994 30.1904V30.3304C10.3994 30.909 10.5467 31.3569 10.7979 31.6369L10.8585 31.5716L10.7979 31.4969Z" fill="#E3E3E7"/>
<path opacity="0.12" d="M29.4814 21.2132L25.1592 23.8541L25.2371 23.9381L29.4727 21.3438C30.0791 20.9705 30.3822 20.4853 30.3822 20C30.3389 20.4386 30.0358 20.8772 29.4814 21.2132Z" fill="#E3E3E7"/>
<path opacity="0.25" d="M12.5907 8.44668L29.4811 18.7866C30.0268 19.1225 30.3387 19.5518 30.3906 19.9997C30.3906 19.5145 30.0875 19.0199 29.4811 18.6559L12.5907 8.31603C11.3781 7.5788 10.3906 8.19471 10.3906 9.68784V9.82782C10.3906 8.32536 11.3867 7.70945 12.5907 8.44668Z" fill="white"/>
<defs>
<linearGradient id="paint0_linear_2173:53515" x1="20.6373" y1="9.46255" x2="5.01937" y2="23.9588" gradientUnits="userSpaceOnUse">
<stop stop-color="#00A0FF"/>
<stop offset="0.00657445" stop-color="#00A1FF"/>
<stop offset="0.2601" stop-color="#00BEFF"/>
<stop offset="0.5122" stop-color="#00D2FF"/>
<stop offset="0.7604" stop-color="#00DFFF"/>
<stop offset="1" stop-color="#00E3FF"/>
</linearGradient>
<linearGradient id="paint1_linear_2173:53515" x1="31.061" y1="20.0013" x2="10.1022" y2="20.0013" gradientUnits="userSpaceOnUse">
<stop stop-color="#FFE000"/>
<stop offset="0.4087" stop-color="#FFBD00"/>
<stop offset="0.7754" stop-color="#FFA500"/>
<stop offset="1" stop-color="#FF9C00"/>
</linearGradient>
<linearGradient id="paint2_linear_2173:53515" x1="23.2595" y1="22.1427" x2="2.0803" y2="41.8008" gradientUnits="userSpaceOnUse">
<stop stop-color="#FF3A44"/>
<stop offset="1" stop-color="#C31162"/>
</linearGradient>
<linearGradient id="paint3_linear_2173:53515" x1="8.0756" y1="1.50031" x2="17.5331" y2="10.2784" gradientUnits="userSpaceOnUse">
<stop stop-color="#32A071"/>
<stop offset="0.0685" stop-color="#2DA771"/>
<stop offset="0.4762" stop-color="#15CF74"/>
<stop offset="0.8009" stop-color="#06E775"/>
<stop offset="1" stop-color="#00F076"/>
</linearGradient>
</defs>
</svg>
