<svg width="118" height="40" viewBox="0 0 118 40" fill="none" xmlns="http://www.w3.org/2000/svg">
<rect opacity="0.04" width="118" height="40" rx="4" fill="#33343E"/>
<path d="M40.8 10.4C41.5627 10.4 42.192 10.672 42.688 11.216C43.1893 11.7547 43.44 12.416 43.44 13.2C43.44 13.984 43.1893 14.648 42.688 15.192C42.192 15.7307 41.5627 16 40.8 16H38.64V10.4H40.8ZM40.8 15.472C41.4133 15.472 41.9147 15.2533 42.304 14.816C42.6987 14.3787 42.896 13.84 42.896 13.2C42.896 12.56 42.6987 12.0213 42.304 11.584C41.9147 11.1467 41.4133 10.928 40.8 10.928H39.2V15.472H40.8ZM47.6698 15.496C47.2645 15.896 46.7685 16.096 46.1818 16.096C45.5951 16.096 45.0965 15.896 44.6858 15.496C44.2805 15.0907 44.0778 14.592 44.0778 14C44.0778 13.408 44.2805 12.912 44.6858 12.512C45.0965 12.1067 45.5951 11.904 46.1818 11.904C46.7685 11.904 47.2645 12.1067 47.6698 12.512C48.0805 12.912 48.2858 13.408 48.2858 14C48.2858 14.592 48.0805 15.0907 47.6698 15.496ZM45.0618 15.128C45.3658 15.432 45.7391 15.584 46.1818 15.584C46.6245 15.584 46.9978 15.432 47.3018 15.128C47.6058 14.8187 47.7578 14.4427 47.7578 14C47.7578 13.5573 47.6058 13.184 47.3018 12.88C46.9978 12.5707 46.6245 12.416 46.1818 12.416C45.7391 12.416 45.3658 12.5707 45.0618 12.88C44.7578 13.184 44.6058 13.5573 44.6058 14C44.6058 14.4427 44.7578 14.8187 45.0618 15.128ZM53.8291 12H54.3731L53.1411 16H52.5651L51.5331 12.776L50.5011 16H49.9251L48.6931 12H49.2371L50.2211 15.32L51.2691 12H51.7971L52.8451 15.32L53.8291 12ZM57.0414 11.904C57.5267 11.904 57.908 12.0533 58.1854 12.352C58.468 12.6453 58.6094 13.0427 58.6094 13.544V16H58.0814V13.544C58.0814 13.1867 57.9854 12.9093 57.7934 12.712C57.6067 12.5147 57.34 12.416 56.9934 12.416C56.6094 12.416 56.2974 12.5387 56.0574 12.784C55.8174 13.024 55.6974 13.3973 55.6974 13.904V16H55.1694V12H55.6974V12.624C55.996 12.144 56.444 11.904 57.0414 11.904ZM59.6303 16V10.16H60.1583V16H59.6303ZM64.6308 15.496C64.2254 15.896 63.7294 16.096 63.1428 16.096C62.5561 16.096 62.0574 15.896 61.6468 15.496C61.2414 15.0907 61.0388 14.592 61.0388 14C61.0388 13.408 61.2414 12.912 61.6468 12.512C62.0574 12.1067 62.5561 11.904 63.1428 11.904C63.7294 11.904 64.2254 12.1067 64.6308 12.512C65.0414 12.912 65.2468 13.408 65.2468 14C65.2468 14.592 65.0414 15.0907 64.6308 15.496ZM62.0228 15.128C62.3268 15.432 62.7001 15.584 63.1428 15.584C63.5854 15.584 63.9588 15.432 64.2628 15.128C64.5668 14.8187 64.7188 14.4427 64.7188 14C64.7188 13.5573 64.5668 13.184 64.2628 12.88C63.9588 12.5707 63.5854 12.416 63.1428 12.416C62.7001 12.416 62.3268 12.5707 62.0228 12.88C61.7188 13.184 61.5668 13.5573 61.5668 14C61.5668 14.4427 61.7188 14.8187 62.0228 15.128ZM69.5703 12H70.0983V16H69.5703V15.216C69.2023 15.8027 68.6636 16.096 67.9543 16.096C67.3836 16.096 66.8956 15.8933 66.4903 15.488C66.0903 15.0827 65.8903 14.5867 65.8903 14C65.8903 13.4133 66.0903 12.9173 66.4903 12.512C66.8956 12.1067 67.3836 11.904 67.9543 11.904C68.6636 11.904 69.2023 12.1973 69.5703 12.784V12ZM66.8743 15.128C67.1783 15.432 67.5516 15.584 67.9943 15.584C68.437 15.584 68.8103 15.432 69.1143 15.128C69.4183 14.8187 69.5703 14.4427 69.5703 14C69.5703 13.5573 69.4183 13.184 69.1143 12.88C68.8103 12.5707 68.437 12.416 67.9943 12.416C67.5516 12.416 67.1783 12.5707 66.8743 12.88C66.5703 13.184 66.4183 13.5573 66.4183 14C66.4183 14.4427 66.5703 14.8187 66.8743 15.128ZM74.6562 10.4H75.1843V16H74.6562V15.216C74.2883 15.8027 73.7496 16.096 73.0403 16.096C72.4696 16.096 71.9816 15.8933 71.5763 15.488C71.1763 15.0827 70.9763 14.5867 70.9763 14C70.9763 13.4133 71.1763 12.9173 71.5763 12.512C71.9816 12.1067 72.4696 11.904 73.0403 11.904C73.7496 11.904 74.2883 12.1973 74.6562 12.784V10.4ZM71.9603 15.128C72.2643 15.432 72.6376 15.584 73.0803 15.584C73.5229 15.584 73.8963 15.432 74.2003 15.128C74.5043 14.8187 74.6562 14.4427 74.6562 14C74.6562 13.5573 74.5043 13.184 74.2003 12.88C73.8963 12.5707 73.5229 12.416 73.0803 12.416C72.6376 12.416 72.2643 12.5707 71.9603 12.88C71.6563 13.184 71.5043 13.5573 71.5043 14C71.5043 14.4427 71.6563 14.8187 71.9603 15.128Z" fill="#33343E"/>
<path d="M44.18 29L43.676 27.488H40.328L39.824 29H38.036L40.976 20.6H43.028L45.98 29H44.18ZM40.856 25.94H43.16L42.008 22.508L40.856 25.94ZM50.2156 22.832C51.0236 22.832 51.7116 23.14 52.2796 23.756C52.8556 24.364 53.1436 25.112 53.1436 26C53.1436 26.888 52.8556 27.64 52.2796 28.256C51.7116 28.864 51.0236 29.168 50.2156 29.168C49.3756 29.168 48.7276 28.876 48.2716 28.292V31.4H46.7236V23H48.2716V23.708C48.7276 23.124 49.3756 22.832 50.2156 22.832ZM48.7396 27.224C49.0516 27.536 49.4476 27.692 49.9276 27.692C50.4076 27.692 50.8036 27.536 51.1156 27.224C51.4356 26.904 51.5956 26.496 51.5956 26C51.5956 25.504 51.4356 25.1 51.1156 24.788C50.8036 24.468 50.4076 24.308 49.9276 24.308C49.4476 24.308 49.0516 24.468 48.7396 24.788C48.4276 25.1 48.2716 25.504 48.2716 26C48.2716 26.496 48.4276 26.904 48.7396 27.224ZM57.7273 22.832C58.5353 22.832 59.2233 23.14 59.7913 23.756C60.3673 24.364 60.6553 25.112 60.6553 26C60.6553 26.888 60.3673 27.64 59.7913 28.256C59.2233 28.864 58.5353 29.168 57.7273 29.168C56.8873 29.168 56.2393 28.876 55.7833 28.292V31.4H54.2353V23H55.7833V23.708C56.2393 23.124 56.8873 22.832 57.7273 22.832ZM56.2513 27.224C56.5633 27.536 56.9593 27.692 57.4393 27.692C57.9193 27.692 58.3153 27.536 58.6273 27.224C58.9473 26.904 59.1073 26.496 59.1073 26C59.1073 25.504 58.9473 25.1 58.6273 24.788C58.3153 24.468 57.9193 24.308 57.4393 24.308C56.9593 24.308 56.5633 24.468 56.2513 24.788C55.9393 25.1 55.7833 25.504 55.7833 26C55.7833 26.496 55.9393 26.904 56.2513 27.224ZM67.6871 29.168C66.8551 29.168 66.1551 28.984 65.5871 28.616C65.0191 28.24 64.6191 27.732 64.3871 27.092L65.8031 26.264C66.1311 27.12 66.7751 27.548 67.7351 27.548C68.1991 27.548 68.5391 27.464 68.7551 27.296C68.9711 27.128 69.0791 26.916 69.0791 26.66C69.0791 26.364 68.9471 26.136 68.6831 25.976C68.4191 25.808 67.9471 25.628 67.2671 25.436C66.8911 25.324 66.5711 25.212 66.3071 25.1C66.0511 24.988 65.7911 24.84 65.5271 24.656C65.2711 24.464 65.0751 24.224 64.9391 23.936C64.8031 23.648 64.7351 23.312 64.7351 22.928C64.7351 22.168 65.0031 21.564 65.5391 21.116C66.0831 20.66 66.7351 20.432 67.4951 20.432C68.1751 20.432 68.7711 20.6 69.2831 20.936C69.8031 21.264 70.2071 21.724 70.4951 22.316L69.1031 23.12C68.7671 22.4 68.2311 22.04 67.4951 22.04C67.1511 22.04 66.8791 22.12 66.6791 22.28C66.4871 22.432 66.3911 22.632 66.3911 22.88C66.3911 23.144 66.4991 23.36 66.7151 23.528C66.9391 23.688 67.3631 23.864 67.9871 24.056C68.2431 24.136 68.4351 24.2 68.5631 24.248C68.6991 24.288 68.8791 24.356 69.1031 24.452C69.3351 24.54 69.5111 24.624 69.6311 24.704C69.7591 24.784 69.9031 24.892 70.0631 25.028C70.2231 25.164 70.3431 25.304 70.4231 25.448C70.5111 25.592 70.5831 25.768 70.6391 25.976C70.7031 26.176 70.7351 26.396 70.7351 26.636C70.7351 27.412 70.4511 28.028 69.8831 28.484C69.3231 28.94 68.5911 29.168 67.6871 29.168ZM74.9994 24.488H73.6434V26.984C73.6434 27.192 73.6954 27.344 73.7994 27.44C73.9034 27.536 74.0554 27.592 74.2554 27.608C74.4554 27.616 74.7034 27.612 74.9994 27.596V29C73.9354 29.12 73.1834 29.02 72.7434 28.7C72.3114 28.38 72.0954 27.808 72.0954 26.984V24.488H71.0514V23H72.0954V21.788L73.6434 21.32V23H74.9994V24.488ZM81.0153 28.256C80.3993 28.864 79.6473 29.168 78.7593 29.168C77.8713 29.168 77.1193 28.864 76.5033 28.256C75.8953 27.64 75.5913 26.888 75.5913 26C75.5913 25.112 75.8953 24.364 76.5033 23.756C77.1193 23.14 77.8713 22.832 78.7593 22.832C79.6473 22.832 80.3993 23.14 81.0153 23.756C81.6313 24.364 81.9393 25.112 81.9393 26C81.9393 26.888 81.6313 27.64 81.0153 28.256ZM77.5953 27.188C77.9073 27.5 78.2953 27.656 78.7593 27.656C79.2233 27.656 79.6113 27.5 79.9233 27.188C80.2353 26.876 80.3913 26.48 80.3913 26C80.3913 25.52 80.2353 25.124 79.9233 24.812C79.6113 24.5 79.2233 24.344 78.7593 24.344C78.2953 24.344 77.9073 24.5 77.5953 24.812C77.2913 25.124 77.1393 25.52 77.1393 26C77.1393 26.48 77.2913 26.876 77.5953 27.188ZM84.5763 24.032C84.7203 23.648 84.9563 23.36 85.2843 23.168C85.6203 22.976 85.9923 22.88 86.4003 22.88V24.608C85.9283 24.552 85.5043 24.648 85.1283 24.896C84.7603 25.144 84.5763 25.556 84.5763 26.132V29H83.0283V23H84.5763V24.032ZM88.391 26.636C88.599 27.388 89.163 27.764 90.083 27.764C90.675 27.764 91.123 27.564 91.427 27.164L92.675 27.884C92.083 28.74 91.211 29.168 90.059 29.168C89.067 29.168 88.271 28.868 87.671 28.268C87.071 27.668 86.771 26.912 86.771 26C86.771 25.096 87.067 24.344 87.659 23.744C88.251 23.136 89.011 22.832 89.939 22.832C90.819 22.832 91.543 23.136 92.111 23.744C92.687 24.352 92.975 25.104 92.975 26C92.975 26.2 92.955 26.412 92.915 26.636H88.391ZM88.367 25.436H91.427C91.339 25.028 91.155 24.724 90.875 24.524C90.603 24.324 90.291 24.224 89.939 24.224C89.523 24.224 89.179 24.332 88.907 24.548C88.635 24.756 88.455 25.052 88.367 25.436Z" fill="#33343E"/>
<path fill-rule="evenodd" clip-rule="evenodd" d="M24.8785 8C24.9878 9.39334 24.5364 10.7734 23.6203 11.8471C23.1816 12.3798 22.6249 12.8083 21.9919 13.1005C21.359 13.3927 20.6664 13.5408 19.9664 13.5338C19.9217 12.8637 20.0127 12.1916 20.2343 11.556C20.4558 10.9203 20.8035 10.3335 21.2575 9.82909C22.186 8.79659 23.4789 8.14352 24.8785 8ZM27.4321 18.1412C26.9669 18.9413 26.7166 19.8433 26.7045 20.7632C26.7056 21.7979 27.0187 22.8095 27.6048 23.6717C28.1908 24.5339 29.0238 25.2086 30 25.6116C29.6162 26.8288 29.0377 27.9792 28.2859 29.02C27.2762 30.4945 26.2176 31.9351 24.5374 31.9617C23.7383 31.9797 23.1989 31.7554 22.6368 31.5216C22.0505 31.2778 21.4396 31.0237 20.4835 31.0237C19.4696 31.0237 18.8313 31.2859 18.2157 31.5389C17.6837 31.7575 17.1687 31.9691 16.4428 31.9985C14.8426 32.0563 13.6197 30.4247 12.5734 28.964C10.482 25.981 8.85352 20.5573 11.0367 16.867C11.5407 15.9828 12.2708 15.2411 13.1557 14.7142C14.0406 14.1873 15.0502 13.8932 16.0862 13.8605C16.9937 13.8423 17.8645 14.1838 18.628 14.4832C19.2119 14.7122 19.733 14.9165 20.1598 14.9165C20.5349 14.9165 21.0414 14.7202 21.6318 14.4915C22.5618 14.1312 23.6997 13.6903 24.8592 13.8091C25.7479 13.8362 26.6178 14.0653 27.4 14.4781C28.1821 14.8909 28.8548 15.4761 29.3648 16.1871C28.5621 16.6689 27.8972 17.3412 27.4321 18.1412Z" fill="#33343E"/>
</svg>
