<svg width="58" height="58" viewBox="0 0 58 58" fill="none" xmlns="http://www.w3.org/2000/svg">
<mask id="path-1-inside-1" fill="white">
<path fill-rule="evenodd" clip-rule="evenodd" d="M2.41259 55.2201L32.9264 37.715C45.9836 30.2243 54.0273 16.3809 54.0273 1.39945V0L53.2328 0V1.39945C53.2328 16.096 45.3421 29.6778 32.5304 37.0277L1.91449 54.5914C2.07222 54.8077 2.23841 55.0174 2.41259 55.2201ZM5.41409 57.5947L36.0442 40.0228C49.1398 32.5102 57.2054 18.6274 57.2054 3.60515V0L57.9999 0V3.60515C57.9999 18.9123 49.7814 33.0566 36.4402 40.7101L6.30194 57.9999C5.99839 57.879 5.70215 57.7437 5.41409 57.5947ZM0.362905 51.3849L29.4125 34.7198C41.9513 27.5265 49.7641 14.3448 50.0468 0L49.2521 0C48.9695 14.0599 41.3097 26.9801 29.0165 34.0325L0.174994 50.5783C0.226699 50.8513 0.289498 51.1203 0.362905 51.3849ZM0 46.5821L25.8986 31.7246C37.5079 25.0646 44.9738 13.1544 45.9685 0L45.1717 0C44.1786 12.8694 36.8661 24.5183 25.5026 31.0373L0 45.6677L0 46.5821ZM0 41.5711L22.3847 28.7294C33.0572 22.6069 40.1465 11.9442 41.7592 0L40.9573 0C39.3498 11.6586 32.4148 22.0609 21.9887 28.0422L0 40.6567L0 41.5711ZM0 36.5601L18.8709 25.7343C28.5967 20.1548 35.276 10.715 37.4067 0L36.5963 0C34.4767 10.4285 27.9536 19.6092 18.4749 25.047L0 35.6456L0 36.5601ZM0 31.5491L15.357 22.7391C24.1234 17.71 30.3544 9.46809 32.8955 0L32.0723 0C29.5507 9.18051 23.4791 17.1651 14.961 22.0518L0 30.6346L0 31.5491ZM0 26.5381L11.8431 19.7439C19.6333 15.2748 25.3712 8.20535 28.2058 0L27.3642 0C24.5609 7.91651 18.9869 14.7312 11.4471 19.0566L0 25.6236L0 26.5381ZM0 21.5271L8.32921 16.7488C15.1207 12.8526 20.3123 6.92945 23.311 0L22.4437 0C19.4922 6.63945 14.4711 12.3108 7.93321 16.0615L0 20.6126L0 21.5271ZM0 16.5161L4.81534 13.7536C10.5777 10.4478 15.158 5.64438 18.1748 0L17.2713 0C14.323 5.35367 9.92312 9.90888 4.41934 13.0663L0 15.6016L0 16.5161ZM0 11.5051L1.30147 10.7584C5.99269 8.06716 9.87932 4.35642 12.7442 0L11.7889 0C9.02145 4.06617 5.33005 7.53283 0.905475 10.0711L0 10.5906L0 11.5051ZM0.97877 5.67985C2.97373 4.20667 4.77781 2.5268 6.36789 0.680048C5.59585 0.981144 4.87042 1.3754 4.20542 1.84901C3.59874 2.45926 2.96587 3.04675 2.30788 3.60966C1.78437 4.23912 1.33667 4.93385 0.97877 5.67985Z"/>
</mask>
<path d="M2.41259 55.2201L1.65416 55.8719L2.19303 56.4989L2.9102 56.0875L2.41259 55.2201ZM32.9264 37.715L33.424 38.5824L32.9264 37.715ZM54.0273 0L55.0273 0V-1H54.0273V0ZM53.2328 0V-1H52.2328V0L53.2328 0ZM32.5304 37.0277L33.028 37.8951L32.5304 37.0277ZM1.91449 54.5914L1.41688 53.724L0.449208 54.2791L1.10648 55.1805L1.91449 54.5914ZM5.41409 57.5947L4.91648 56.7273L3.32487 57.6404L4.95485 58.4831L5.41409 57.5947ZM36.0442 40.0228L35.5466 39.1554H35.5466L36.0442 40.0228ZM57.2054 0V-1L56.2054 -1V0L57.2054 0ZM57.9999 0L58.9999 0V-1L57.9999 -1V0ZM36.4402 40.7101L35.9426 39.8427H35.9426L36.4402 40.7101ZM6.30194 57.9999L5.93195 58.9289L6.38063 59.1076L6.79955 58.8673L6.30194 57.9999ZM29.4125 34.7198L29.9101 35.5872L29.4125 34.7198ZM0.362905 51.3849L-0.60071 51.6522L-0.256496 52.8932L0.860515 52.2523L0.362905 51.3849ZM50.0468 0L51.0466 0.0197053L51.0667 -1H50.0468V0ZM49.2521 0V-1H48.272L48.2523 -0.0200959L49.2521 0ZM29.0165 34.0325L29.5141 34.8999H29.5141L29.0165 34.0325ZM0.174994 50.5783L-0.322616 49.7109L-0.939997 50.0651L-0.807535 50.7644L0.174994 50.5783ZM0 46.5821H-1L-1 48.3087L0.49761 47.4495L0 46.5821ZM25.8986 31.7246L25.401 30.8572L25.8986 31.7246ZM45.9685 0L46.9656 0.0754028L47.047 -1L45.9685 -1V0ZM45.1717 0V-1L44.2458 -1L44.1746 -0.076934L45.1717 0ZM25.5026 31.0373L26.0002 31.9047L25.5026 31.0373ZM0 45.6677L-0.49761 44.8003L-1 45.0885V45.6677H0ZM22.3847 28.7294L21.8871 27.862L22.3847 28.7294ZM0 41.5711H-1L-1 43.2977L0.49761 42.4385L0 41.5711ZM41.7592 0L42.7502 0.133806L42.9033 -1L41.7592 -1V0ZM40.9573 0V-1L40.0857 -1L39.9667 -0.136587L40.9573 0ZM21.9887 28.0422L22.4863 28.9096L22.4863 28.9096L21.9887 28.0422ZM0 40.6567L-0.49761 39.7893L-1 40.0775L-1 40.6567H0ZM0 36.5601H-1L-1 38.2867L0.49761 37.4275L0 36.5601ZM18.8709 25.7343L18.3733 24.8669L18.8709 25.7343ZM37.4067 0L38.3875 0.19503L38.6251 -1H37.4067V0ZM36.5963 0V-1H35.7791L35.6163 -0.199179L36.5963 0ZM18.4749 25.047L18.9725 25.9144L18.4749 25.047ZM0 35.6456L-0.49761 34.7782L-1 35.0665V35.6456H0ZM15.357 22.7391L14.8594 21.8717H14.8594L15.357 22.7391ZM0 31.5491H-1L-1 33.2756L0.49761 32.4165L0 31.5491ZM32.8955 0L33.8613 0.259215L34.1993 -1L32.8955 -1V0ZM32.0723 0V-1L31.3099 -1L31.108 -0.264856L32.0723 0ZM14.961 22.0518L15.4586 22.9192H15.4586L14.961 22.0518ZM0 30.6346L-0.49761 29.7672L-1 30.0554L-1 30.6346H0ZM0 26.5381H-1L-1 28.2646L0.49761 27.4055L0 26.5381ZM11.8431 19.7439L12.3407 20.6113L11.8431 19.7439ZM28.2058 0L29.151 0.326523L29.6092 -1H28.2058V0ZM27.3642 0V-1H26.6575L26.4216 -0.333798L27.3642 0ZM11.4471 19.0566L11.9447 19.924H11.9447L11.4471 19.0566ZM0 25.6236L-0.49761 24.7562L-1 25.0444V25.6236H0ZM8.32921 16.7488L8.82682 17.6162H8.82682L8.32921 16.7488ZM0 21.5271H-1L-1 23.2536L0.49761 22.3945L0 21.5271ZM23.311 0L24.2288 0.397156L24.8334 -1L23.311 -1V0ZM22.4437 0V-1H21.7939L21.53 -0.406219L22.4437 0ZM7.93321 16.0615L8.43082 16.9289L7.93321 16.0615ZM0 20.6126L-0.49761 19.7452L-1 20.0334L-1 20.6126H0ZM0 16.5161H-1L-1 18.2426L0.49761 17.3835L0 16.5161ZM4.81534 13.7536L5.31295 14.621L5.31295 14.621L4.81534 13.7536ZM18.1748 0L19.0567 0.471364L19.8431 -1L18.1748 -1V0ZM17.2713 0V-1L16.6804 -1L16.3953 -0.482393L17.2713 0ZM4.41934 13.0663L3.92173 12.1989H3.92173L4.41934 13.0663ZM0 15.6016L-0.49761 14.7342L-1 15.0224V15.6016H0ZM1.30147 10.7584L1.79908 11.6258H1.79908L1.30147 10.7584ZM0 11.5051H-1L-1 13.2316L0.49761 12.3725L0 11.5051ZM12.7442 0L13.5797 0.549453L14.5986 -1L12.7442 -1V0ZM11.7889 0V-1L11.2599 -1L10.9622 -0.562651L11.7889 0ZM0.905475 10.0711L1.40309 10.9385L1.40309 10.9385L0.905475 10.0711ZM0 10.5906L-0.49761 9.72317L-1 10.0114L-1 10.5906H0ZM0.97877 5.67985L0.0771608 5.2473L1.57281 6.48429L0.97877 5.67985ZM6.36789 0.680048L7.1257 1.33253L6.00455 -0.251607L6.36789 0.680048ZM4.20542 1.84901L3.62531 1.03447L3.55613 1.08374L3.49624 1.14398L4.20542 1.84901ZM2.30788 3.60966L1.65781 2.84979L1.59331 2.90497L1.53903 2.97023L2.30788 3.60966ZM2.9102 56.0875L33.424 38.5824L32.4287 36.8476L1.91497 54.3527L2.9102 56.0875ZM33.424 38.5824C46.7901 30.9145 55.0273 16.7413 55.0273 1.39945L53.0273 1.39945C53.0273 16.0205 45.1771 29.5341 32.4287 36.8476L33.424 38.5824ZM55.0273 1.39945V0L53.0273 0V1.39945L55.0273 1.39945ZM53.2328 1L54.0273 1V-1L53.2328 -1V1ZM52.2328 0V1.39945L54.2328 1.39945V0L52.2328 0ZM52.2328 1.39945C52.2328 15.7356 44.5356 28.9877 32.0327 36.1603L33.028 37.8951C46.1486 30.368 54.2328 16.4564 54.2328 1.39945L52.2328 1.39945ZM32.0327 36.1603L1.41688 53.724L2.4121 55.4588L33.028 37.8951L32.0327 36.1603ZM3.17101 54.5684C3.01416 54.3858 2.86451 54.197 2.72251 54.0022L1.10648 55.1805C1.27992 55.4184 1.46266 55.649 1.65416 55.8719L3.17101 54.5684ZM5.9117 58.4621L36.5418 40.8902L35.5466 39.1554L4.91648 56.7273L5.9117 58.4621ZM36.5418 40.8902C49.9463 33.2004 58.2054 18.9878 58.2054 3.60515L56.2054 3.60515C56.2054 18.267 48.3333 31.82 35.5466 39.1554L36.5418 40.8902ZM58.2054 3.60515V0L56.2054 0V3.60515L58.2054 3.60515ZM57.2054 1L57.9999 1V-1H57.2054V1ZM56.9999 0V3.60515H58.9999V0L56.9999 0ZM56.9999 3.60515C56.9999 18.5519 48.9749 32.3664 35.9426 39.8427L36.9378 41.5775C50.5879 33.7468 58.9999 19.2726 58.9999 3.60515H56.9999ZM35.9426 39.8427L5.80433 57.1325L6.79955 58.8673L36.9378 41.5775L35.9426 39.8427ZM6.67192 57.0708C6.39894 56.9621 6.13249 56.8404 5.87332 56.7064L4.95485 58.4831C5.27182 58.6469 5.59783 58.7959 5.93195 58.9289L6.67192 57.0708ZM28.9149 33.8524L-0.134705 50.5175L0.860515 52.2523L29.9101 35.5872L28.9149 33.8524ZM49.047 -0.0197053C48.7712 13.9723 41.1505 26.8331 28.9149 33.8524L29.9101 35.5872C42.7522 28.2199 50.7569 14.7173 51.0466 0.0197053L49.047 -0.0197053ZM49.2521 1L50.0468 1V-1L49.2521 -1V1ZM29.5141 34.8999C42.1104 27.6736 49.9622 14.4327 50.2519 0.0200959L48.2523 -0.0200959C47.9768 13.6872 40.509 26.2866 28.5189 33.1651L29.5141 34.8999ZM0.672605 51.4457L29.5141 34.8999L28.5189 33.1651L-0.322616 49.7109L0.672605 51.4457ZM1.32652 51.1176C1.26051 50.8797 1.20403 50.6377 1.15752 50.3922L-0.807535 50.7644C-0.750635 51.0648 -0.681515 51.3609 -0.60071 51.6522L1.32652 51.1176ZM0.49761 47.4495L26.3962 32.592L25.401 30.8572L-0.49761 45.7147L0.49761 47.4495ZM26.3962 32.592C38.2927 25.7672 45.9459 13.5606 46.9656 0.0754028L44.9713 -0.0754028C44.0016 12.7482 36.7231 24.3619 25.401 30.8572L26.3962 32.592ZM45.1717 1L45.9685 1V-1H45.1717V1ZM44.1746 -0.076934C43.2071 12.4623 36.0817 23.8154 25.005 30.1699L26.0002 31.9047C37.6504 25.2213 45.1502 13.2765 46.1687 0.076934L44.1746 -0.076934ZM25.005 30.1699L-0.49761 44.8003L0.49761 46.5351L26.0002 31.9047L25.005 30.1699ZM1 46.5821L1 45.6677H-1L-1 46.5821H1ZM21.8871 27.862L-0.49761 40.7037L0.49761 42.4385L22.8823 29.5968L21.8871 27.862ZM40.7682 -0.133806C39.1969 11.5033 32.2894 21.8945 21.8871 27.862L22.8823 29.5968C33.825 23.3193 41.096 12.3851 42.7502 0.133806L40.7682 -0.133806ZM40.9573 1L41.7592 1V-1H40.9573V1ZM22.4863 28.9096C33.1818 22.7738 40.2983 12.1012 41.9479 0.136587L39.9667 -0.136587C38.4014 11.2161 31.6479 21.348 21.4911 27.1748L22.4863 28.9096ZM0.49761 41.5241L22.4863 28.9096L21.4911 27.1748L-0.49761 39.7893L0.49761 41.5241ZM1 41.5711L1 40.6567H-1L-1 41.5711H1ZM0.49761 37.4275L19.3685 26.6017L18.3733 24.8669L-0.49761 35.6927L0.49761 37.4275ZM19.3685 26.6017C29.3464 20.8775 36.2008 11.1918 38.3875 0.19503L36.4259 -0.19503C34.3512 10.2382 27.847 19.432 18.3733 24.8669L19.3685 26.6017ZM36.5963 1L37.4067 1V-1L36.5963 -1V1ZM35.6163 -0.199179C33.5536 9.94936 27.2051 18.8857 17.9773 24.1796L18.9725 25.9144C28.7021 20.3327 35.3997 10.9077 37.5763 0.199179L35.6163 -0.199179ZM17.9773 24.1796L-0.49761 34.7782L0.49761 36.5131L18.9725 25.9144L17.9773 24.1796ZM1 36.5601V35.6456H-1L-1 36.5601H1ZM14.8594 21.8717L-0.49761 30.6817L0.49761 32.4165L15.8546 23.6065L14.8594 21.8717ZM31.9297 -0.259215C29.4569 8.95424 23.393 16.9761 14.8594 21.8717L15.8546 23.6065C24.8539 18.4438 31.2518 9.98195 33.8613 0.259215L31.9297 -0.259215ZM32.0723 1L32.8955 1V-1H32.0723V1ZM15.4586 22.9192C24.2078 17.9 30.4457 9.6976 33.0366 0.264856L31.108 -0.264856C28.6557 8.66342 22.7504 16.4303 14.4634 21.1844L15.4586 22.9192ZM0.49761 31.502L15.4586 22.9192L14.4634 21.1844L-0.49761 29.7672L0.49761 31.502ZM1 31.5491V30.6346H-1L-1 31.5491H1ZM0.49761 27.4055L12.3407 20.6113L11.3455 18.8765L-0.49761 25.6707L0.49761 27.4055ZM12.3407 20.6113C20.3429 16.0206 26.2383 8.75771 29.151 0.326523L27.2606 -0.326523C24.504 7.653 18.9236 14.5291 11.3455 18.8765L12.3407 20.6113ZM27.3642 1L28.2058 1V-1L27.3642 -1V1ZM26.4216 -0.333798C23.6971 7.36001 18.2795 13.9841 10.9495 18.1892L11.9447 19.924C19.6943 15.4782 25.4247 8.47302 28.3069 0.333798L26.4216 -0.333798ZM10.9495 18.1892L-0.49761 24.7562L0.49761 26.491L11.9447 19.924L10.9495 18.1892ZM1 26.5381L1 25.6236H-1L-1 26.5381H1ZM7.8316 15.8814L-0.49761 20.6597L0.49761 22.3945L8.82682 17.6162L7.8316 15.8814ZM22.3933 -0.397156C19.4791 6.33697 14.4335 12.094 7.8316 15.8814L8.82682 17.6162C15.8078 13.6113 21.1455 7.52194 24.2288 0.397156L22.3933 -0.397156ZM22.4437 1L23.311 1V-1L22.4437 -1V1ZM8.43082 16.9289C15.1553 13.0711 20.3209 7.23706 23.3575 0.406219L21.53 -0.406219C18.6635 6.04183 13.7869 11.5505 7.4356 15.1941L8.43082 16.9289ZM0.49761 21.48L8.43082 16.9289L7.4356 15.1941L-0.49761 19.7452L0.49761 21.48ZM1 21.5271L1 20.6126H-1L-1 21.5271H1ZM0.49761 17.3835L5.31295 14.621L4.31773 12.8862L-0.49761 15.6487L0.49761 17.3835ZM5.31295 14.621C11.2403 11.2206 15.9528 6.27885 19.0567 0.471364L17.2928 -0.471364C14.3633 5.00992 9.91507 9.6751 4.31773 12.8862L5.31295 14.621ZM17.2713 1L18.1748 1V-1H17.2713V1ZM16.3953 -0.482393C13.5342 4.71297 9.26425 9.13399 3.92173 12.1989L4.91695 13.9337C10.582 10.6838 15.1118 5.99438 18.1473 0.482393L16.3953 -0.482393ZM3.92173 12.1989L-0.49761 14.7342L0.49761 16.469L4.91695 13.9337L3.92173 12.1989ZM1 16.5161V15.6016H-1L-1 16.5161H1ZM0.803864 9.89102L-0.49761 10.6377L0.49761 12.3725L1.79908 11.6258L0.803864 9.89102ZM11.9086 -0.549453C9.12876 3.67777 5.3572 7.27886 0.803863 9.89102L1.79908 11.6258C6.62817 8.85547 10.6299 5.03508 13.5797 0.549453L11.9086 -0.549453ZM11.7889 1L12.7442 1V-1H11.7889V1ZM1.40309 10.9385C5.96079 8.32385 9.7641 4.75231 12.6156 0.562651L10.9622 -0.562651C8.2788 3.38003 4.69931 6.7418 0.407865 9.20372L1.40309 10.9385ZM0.49761 11.458L1.40309 10.9385L0.407865 9.20372L-0.49761 9.72317L0.49761 11.458ZM1 11.5051V10.5906H-1L-1 11.5051H1ZM1.57281 6.48429C3.62828 4.96642 5.48722 3.23549 7.1257 1.33253L5.61009 0.0275668C4.06841 1.81811 2.31918 3.44692 0.384732 4.87541L1.57281 6.48429ZM4.78552 2.66355C5.38423 2.23716 6.03698 1.88246 6.73124 1.6117L6.00455 -0.251607C5.15473 0.0798228 4.35661 0.513648 3.62531 1.03447L4.78552 2.66355ZM3.49624 1.14398C2.90847 1.73521 2.29532 2.3044 1.65781 2.84979L2.95795 4.36954C3.63643 3.7891 4.289 3.18331 4.9146 2.55404L3.49624 1.14398ZM1.88038 6.1124C2.20233 5.44133 2.60527 4.81597 3.07672 4.2491L1.53903 2.97023C0.963477 3.66227 0.471003 4.42638 0.0771608 5.2473L1.88038 6.1124Z" fill="#E3E3E7" mask="url(#path-1-inside-1)"/>
</svg>
