<svg width="118" height="40" viewBox="0 0 118 40" fill="none" xmlns="http://www.w3.org/2000/svg">
<rect opacity="0.04" width="118" height="40" rx="4" fill="#33343E"/>
<path d="M40.8 10.4C41.5627 10.4 42.192 10.672 42.688 11.216C43.1893 11.7547 43.44 12.416 43.44 13.2C43.44 13.984 43.1893 14.648 42.688 15.192C42.192 15.7307 41.5627 16 40.8 16H38.64V10.4H40.8ZM40.8 15.472C41.4133 15.472 41.9147 15.2533 42.304 14.816C42.6987 14.3787 42.896 13.84 42.896 13.2C42.896 12.56 42.6987 12.0213 42.304 11.584C41.9147 11.1467 41.4133 10.928 40.8 10.928H39.2V15.472H40.8ZM47.6698 15.496C47.2645 15.896 46.7685 16.096 46.1818 16.096C45.5951 16.096 45.0965 15.896 44.6858 15.496C44.2805 15.0907 44.0778 14.592 44.0778 14C44.0778 13.408 44.2805 12.912 44.6858 12.512C45.0965 12.1067 45.5951 11.904 46.1818 11.904C46.7685 11.904 47.2645 12.1067 47.6698 12.512C48.0805 12.912 48.2858 13.408 48.2858 14C48.2858 14.592 48.0805 15.0907 47.6698 15.496ZM45.0618 15.128C45.3658 15.432 45.7391 15.584 46.1818 15.584C46.6245 15.584 46.9978 15.432 47.3018 15.128C47.6058 14.8187 47.7578 14.4427 47.7578 14C47.7578 13.5573 47.6058 13.184 47.3018 12.88C46.9978 12.5707 46.6245 12.416 46.1818 12.416C45.7391 12.416 45.3658 12.5707 45.0618 12.88C44.7578 13.184 44.6058 13.5573 44.6058 14C44.6058 14.4427 44.7578 14.8187 45.0618 15.128ZM53.8291 12H54.3731L53.1411 16H52.5651L51.5331 12.776L50.5011 16H49.9251L48.6931 12H49.2371L50.2211 15.32L51.2691 12H51.7971L52.8451 15.32L53.8291 12ZM57.0414 11.904C57.5267 11.904 57.908 12.0533 58.1854 12.352C58.468 12.6453 58.6094 13.0427 58.6094 13.544V16H58.0814V13.544C58.0814 13.1867 57.9854 12.9093 57.7934 12.712C57.6067 12.5147 57.34 12.416 56.9934 12.416C56.6094 12.416 56.2974 12.5387 56.0574 12.784C55.8174 13.024 55.6974 13.3973 55.6974 13.904V16H55.1694V12H55.6974V12.624C55.996 12.144 56.444 11.904 57.0414 11.904ZM59.6303 16V10.16H60.1583V16H59.6303ZM64.6308 15.496C64.2254 15.896 63.7294 16.096 63.1428 16.096C62.5561 16.096 62.0574 15.896 61.6468 15.496C61.2414 15.0907 61.0388 14.592 61.0388 14C61.0388 13.408 61.2414 12.912 61.6468 12.512C62.0574 12.1067 62.5561 11.904 63.1428 11.904C63.7294 11.904 64.2254 12.1067 64.6308 12.512C65.0414 12.912 65.2468 13.408 65.2468 14C65.2468 14.592 65.0414 15.0907 64.6308 15.496ZM62.0228 15.128C62.3268 15.432 62.7001 15.584 63.1428 15.584C63.5854 15.584 63.9588 15.432 64.2628 15.128C64.5668 14.8187 64.7188 14.4427 64.7188 14C64.7188 13.5573 64.5668 13.184 64.2628 12.88C63.9588 12.5707 63.5854 12.416 63.1428 12.416C62.7001 12.416 62.3268 12.5707 62.0228 12.88C61.7188 13.184 61.5668 13.5573 61.5668 14C61.5668 14.4427 61.7188 14.8187 62.0228 15.128ZM69.5703 12H70.0983V16H69.5703V15.216C69.2023 15.8027 68.6636 16.096 67.9543 16.096C67.3836 16.096 66.8956 15.8933 66.4903 15.488C66.0903 15.0827 65.8903 14.5867 65.8903 14C65.8903 13.4133 66.0903 12.9173 66.4903 12.512C66.8956 12.1067 67.3836 11.904 67.9543 11.904C68.6636 11.904 69.2023 12.1973 69.5703 12.784V12ZM66.8743 15.128C67.1783 15.432 67.5516 15.584 67.9943 15.584C68.437 15.584 68.8103 15.432 69.1143 15.128C69.4183 14.8187 69.5703 14.4427 69.5703 14C69.5703 13.5573 69.4183 13.184 69.1143 12.88C68.8103 12.5707 68.437 12.416 67.9943 12.416C67.5516 12.416 67.1783 12.5707 66.8743 12.88C66.5703 13.184 66.4183 13.5573 66.4183 14C66.4183 14.4427 66.5703 14.8187 66.8743 15.128ZM74.6562 10.4H75.1843V16H74.6562V15.216C74.2883 15.8027 73.7496 16.096 73.0403 16.096C72.4696 16.096 71.9816 15.8933 71.5763 15.488C71.1763 15.0827 70.9763 14.5867 70.9763 14C70.9763 13.4133 71.1763 12.9173 71.5763 12.512C71.9816 12.1067 72.4696 11.904 73.0403 11.904C73.7496 11.904 74.2883 12.1973 74.6562 12.784V10.4ZM71.9603 15.128C72.2643 15.432 72.6376 15.584 73.0803 15.584C73.5229 15.584 73.8963 15.432 74.2003 15.128C74.5043 14.8187 74.6562 14.4427 74.6562 14C74.6562 13.5573 74.5043 13.184 74.2003 12.88C73.8963 12.5707 73.5229 12.416 73.0803 12.416C72.6376 12.416 72.2643 12.5707 71.9603 12.88C71.6563 13.184 71.5043 13.5573 71.5043 14C71.5043 14.4427 71.6563 14.8187 71.9603 15.128Z" fill="#33343E"/>
<path d="M47.024 24.488V25.136C47.024 26.336 46.64 27.308 45.872 28.052C45.104 28.796 44.112 29.168 42.896 29.168C41.6 29.168 40.524 28.748 39.668 27.908C38.82 27.06 38.396 26.028 38.396 24.812C38.396 23.588 38.816 22.552 39.656 21.704C40.504 20.856 41.552 20.432 42.8 20.432C43.584 20.432 44.3 20.612 44.948 20.972C45.596 21.324 46.1 21.796 46.46 22.388L45.044 23.204C44.844 22.86 44.54 22.58 44.132 22.364C43.732 22.148 43.284 22.04 42.788 22.04C41.988 22.04 41.328 22.304 40.808 22.832C40.296 23.352 40.04 24.012 40.04 24.812C40.04 25.604 40.3 26.26 40.82 26.78C41.348 27.292 42.044 27.548 42.908 27.548C43.548 27.548 44.076 27.408 44.492 27.128C44.916 26.84 45.204 26.448 45.356 25.952H42.812V24.488H47.024ZM53.2419 28.256C52.6259 28.864 51.8739 29.168 50.9859 29.168C50.0979 29.168 49.3459 28.864 48.7299 28.256C48.1219 27.64 47.8179 26.888 47.8179 26C47.8179 25.112 48.1219 24.364 48.7299 23.756C49.3459 23.14 50.0979 22.832 50.9859 22.832C51.8739 22.832 52.6259 23.14 53.2419 23.756C53.8579 24.364 54.1659 25.112 54.1659 26C54.1659 26.888 53.8579 27.64 53.2419 28.256ZM49.8219 27.188C50.1339 27.5 50.5219 27.656 50.9859 27.656C51.4499 27.656 51.8379 27.5 52.1499 27.188C52.4619 26.876 52.6179 26.48 52.6179 26C52.6179 25.52 52.4619 25.124 52.1499 24.812C51.8379 24.5 51.4499 24.344 50.9859 24.344C50.5219 24.344 50.1339 24.5 49.8219 24.812C49.5179 25.124 49.3659 25.52 49.3659 26C49.3659 26.48 49.5179 26.876 49.8219 27.188ZM60.3669 28.256C59.7509 28.864 58.9989 29.168 58.1109 29.168C57.2229 29.168 56.4709 28.864 55.8549 28.256C55.2469 27.64 54.9429 26.888 54.9429 26C54.9429 25.112 55.2469 24.364 55.8549 23.756C56.4709 23.14 57.2229 22.832 58.1109 22.832C58.9989 22.832 59.7509 23.14 60.3669 23.756C60.9829 24.364 61.2909 25.112 61.2909 26C61.2909 26.888 60.9829 27.64 60.3669 28.256ZM56.9469 27.188C57.2589 27.5 57.6469 27.656 58.1109 27.656C58.5749 27.656 58.9629 27.5 59.2749 27.188C59.5869 26.876 59.7429 26.48 59.7429 26C59.7429 25.52 59.5869 25.124 59.2749 24.812C58.9629 24.5 58.5749 24.344 58.1109 24.344C57.6469 24.344 57.2589 24.5 56.9469 24.812C56.6429 25.124 56.4909 25.52 56.4909 26C56.4909 26.48 56.6429 26.876 56.9469 27.188ZM66.9759 23H68.4879V28.712C68.4879 29.64 68.1799 30.348 67.5639 30.836C66.9559 31.324 66.2199 31.568 65.3559 31.568C64.7079 31.568 64.1359 31.444 63.6399 31.196C63.1519 30.948 62.7759 30.584 62.5119 30.104L63.8319 29.348C64.1359 29.908 64.6599 30.188 65.4039 30.188C65.8919 30.188 66.2759 30.06 66.5559 29.804C66.8359 29.548 66.9759 29.184 66.9759 28.712V28.064C66.5199 28.672 65.8799 28.976 65.0559 28.976C64.2079 28.976 63.4959 28.68 62.9199 28.088C62.3519 27.488 62.0679 26.76 62.0679 25.904C62.0679 25.056 62.3559 24.332 62.9319 23.732C63.5079 23.132 64.2159 22.832 65.0559 22.832C65.8799 22.832 66.5199 23.136 66.9759 23.744V23ZM64.0839 27.092C64.4039 27.396 64.8079 27.548 65.2959 27.548C65.7839 27.548 66.1839 27.396 66.4959 27.092C66.8159 26.78 66.9759 26.384 66.9759 25.904C66.9759 25.432 66.8159 25.044 66.4959 24.74C66.1839 24.428 65.7839 24.272 65.2959 24.272C64.8079 24.272 64.4039 24.428 64.0839 24.74C63.7719 25.044 63.6159 25.432 63.6159 25.904C63.6159 26.384 63.7719 26.78 64.0839 27.092ZM69.8916 29V20.24H71.4396V29H69.8916ZM74.1644 26.636C74.3724 27.388 74.9364 27.764 75.8564 27.764C76.4484 27.764 76.8964 27.564 77.2004 27.164L78.4484 27.884C77.8564 28.74 76.9844 29.168 75.8324 29.168C74.8404 29.168 74.0444 28.868 73.4444 28.268C72.8444 27.668 72.5444 26.912 72.5444 26C72.5444 25.096 72.8404 24.344 73.4324 23.744C74.0244 23.136 74.7844 22.832 75.7124 22.832C76.5924 22.832 77.3164 23.136 77.8844 23.744C78.4604 24.352 78.7484 25.104 78.7484 26C78.7484 26.2 78.7284 26.412 78.6884 26.636H74.1644ZM74.1404 25.436H77.2004C77.1124 25.028 76.9284 24.724 76.6484 24.524C76.3764 24.324 76.0644 24.224 75.7124 24.224C75.2964 24.224 74.9524 24.332 74.6804 24.548C74.4084 24.756 74.2284 25.052 74.1404 25.436ZM86.0331 20.6C86.8411 20.6 87.5211 20.872 88.0731 21.416C88.6251 21.96 88.9011 22.628 88.9011 23.42C88.9011 24.212 88.6251 24.88 88.0731 25.424C87.5211 25.968 86.8411 26.24 86.0331 26.24H84.5571V29H82.9011V20.6H86.0331ZM86.0331 24.692C86.3851 24.692 86.6771 24.572 86.9091 24.332C87.1411 24.084 87.2571 23.78 87.2571 23.42C87.2571 23.052 87.1411 22.748 86.9091 22.508C86.6771 22.268 86.3851 22.148 86.0331 22.148H84.5571V24.692H86.0331ZM89.9072 29V20.24H91.4552V29H89.9072ZM97.4321 23H98.9801V29H97.4321V28.292C96.9681 28.876 96.3161 29.168 95.4761 29.168C94.6761 29.168 93.9881 28.864 93.4121 28.256C92.8441 27.64 92.5601 26.888 92.5601 26C92.5601 25.112 92.8441 24.364 93.4121 23.756C93.9881 23.14 94.6761 22.832 95.4761 22.832C96.3161 22.832 96.9681 23.124 97.4321 23.708V23ZM94.5761 27.224C94.8881 27.536 95.2841 27.692 95.7641 27.692C96.2441 27.692 96.6401 27.536 96.9521 27.224C97.2721 26.904 97.4321 26.496 97.4321 26C97.4321 25.504 97.2721 25.1 96.9521 24.788C96.6401 24.468 96.2441 24.308 95.7641 24.308C95.2841 24.308 94.8881 24.468 94.5761 24.788C94.2641 25.1 94.1081 25.504 94.1081 26C94.1081 26.496 94.2641 26.904 94.5761 27.224ZM104.296 23H105.952L103.768 29C103.456 29.864 103.04 30.488 102.52 30.872C102.008 31.264 101.368 31.44 100.6 31.4V29.96C101.016 29.968 101.344 29.88 101.584 29.696C101.832 29.512 102.028 29.216 102.172 28.808L99.7118 23H101.404L102.964 27.032L104.296 23Z" fill="#33343E"/>
<path d="M10.4072 8.37099C10.156 8.66028 10.0088 9.10822 10.0088 9.67747V30.3199C10.0088 30.8985 10.156 31.3464 10.4072 31.6264L10.4679 31.6917L21.1998 20.1387V19.9987V19.8587L10.4679 8.30566L10.4072 8.37099Z" fill="url(#paint0_linear)"/>
<path d="M24.7768 23.9941L21.1995 20.1399V20V19.86L24.7768 16.0059L24.8547 16.0525L29.0903 18.6468C30.303 19.3841 30.303 20.5972 29.0903 21.3438L24.8547 23.9381L24.7768 23.9941Z" fill="url(#paint1_linear)"/>
<path d="M24.855 23.9381L21.1998 20L10.4072 31.6277C10.8057 32.085 11.464 32.1409 12.2089 31.6837L24.855 23.9381Z" fill="url(#paint2_linear)"/>
<path d="M24.8549 16.0618L12.2001 8.31624C11.4552 7.85897 10.7969 7.91496 10.3984 8.37223L21.1996 19.9999L24.8549 16.0618Z" fill="url(#paint3_linear)"/>
<path opacity="0.2" d="M24.7768 23.854L12.2 31.5529C11.4984 31.9822 10.8661 31.9542 10.4676 31.5622L10.407 31.6276L10.4676 31.6929C10.8747 32.0848 11.4984 32.1128 12.2 31.6836L24.8548 23.938L24.7768 23.854Z" fill="#33343E"/>
<path opacity="0.12" d="M10.4072 31.4969C10.156 31.2076 10.0088 30.7597 10.0088 30.1904V30.3304C10.0088 30.909 10.156 31.3569 10.4072 31.6369L10.4679 31.5716L10.4072 31.4969Z" fill="#33343E"/>
<path opacity="0.12" d="M29.0905 21.2132L24.7683 23.8541L24.8463 23.9381L29.0819 21.3438C29.6882 20.9705 29.9914 20.4853 29.9914 20C29.9481 20.4386 29.6449 20.8772 29.0905 21.2132Z" fill="#33343E"/>
<path opacity="0.25" d="M12.2001 8.44668L29.0905 18.7866C29.6362 19.1225 29.948 19.5518 30 19.9997C30 19.5145 29.6968 19.0199 29.0905 18.6559L12.2001 8.31603C10.9874 7.5788 10 8.19471 10 9.68784V9.82782C10 8.32536 10.9961 7.70945 12.2001 8.44668Z" fill="white"/>
<defs>
<linearGradient id="paint0_linear" x1="20.2467" y1="9.46255" x2="4.62875" y2="23.9588" gradientUnits="userSpaceOnUse">
<stop stop-color="#00A0FF"/>
<stop offset="0.00657445" stop-color="#00A1FF"/>
<stop offset="0.2601" stop-color="#00BEFF"/>
<stop offset="0.5122" stop-color="#00D2FF"/>
<stop offset="0.7604" stop-color="#00DFFF"/>
<stop offset="1" stop-color="#00E3FF"/>
</linearGradient>
<linearGradient id="paint1_linear" x1="30.6706" y1="20.0013" x2="9.7118" y2="20.0013" gradientUnits="userSpaceOnUse">
<stop stop-color="#FFE000"/>
<stop offset="0.4087" stop-color="#FFBD00"/>
<stop offset="0.7754" stop-color="#FFA500"/>
<stop offset="1" stop-color="#FF9C00"/>
</linearGradient>
<linearGradient id="paint2_linear" x1="22.8689" y1="22.1427" x2="1.68968" y2="41.8008" gradientUnits="userSpaceOnUse">
<stop stop-color="#FF3A44"/>
<stop offset="1" stop-color="#C31162"/>
</linearGradient>
<linearGradient id="paint3_linear" x1="7.68497" y1="1.50031" x2="17.1424" y2="10.2784" gradientUnits="userSpaceOnUse">
<stop stop-color="#32A071"/>
<stop offset="0.0685" stop-color="#2DA771"/>
<stop offset="0.4762" stop-color="#15CF74"/>
<stop offset="0.8009" stop-color="#06E775"/>
<stop offset="1" stop-color="#00F076"/>
</linearGradient>
</defs>
</svg>
