<svg width="119" height="40" viewBox="0 0 119 40" fill="none" xmlns="http://www.w3.org/2000/svg">
<rect opacity="0.04" x="0.390625" width="118" height="40" rx="4" fill="#E3E3E7"/>
<path d="M41.1906 10.4C41.9533 10.4 42.5826 10.672 43.0786 11.216C43.58 11.7547 43.8306 12.416 43.8306 13.2C43.8306 13.984 43.58 14.648 43.0786 15.192C42.5826 15.7307 41.9533 16 41.1906 16H39.0306V10.4H41.1906ZM41.1906 15.472C41.804 15.472 42.3053 15.2533 42.6946 14.816C43.0893 14.3787 43.2866 13.84 43.2866 13.2C43.2866 12.56 43.0893 12.0213 42.6946 11.584C42.3053 11.1467 41.804 10.928 41.1906 10.928H39.5906V15.472H41.1906ZM48.0604 15.496C47.6551 15.896 47.1591 16.096 46.5724 16.096C45.9858 16.096 45.4871 15.896 45.0764 15.496C44.6711 15.0907 44.4684 14.592 44.4684 14C44.4684 13.408 44.6711 12.912 45.0764 12.512C45.4871 12.1067 45.9858 11.904 46.5724 11.904C47.1591 11.904 47.6551 12.1067 48.0604 12.512C48.4711 12.912 48.6764 13.408 48.6764 14C48.6764 14.592 48.4711 15.0907 48.0604 15.496ZM45.4524 15.128C45.7564 15.432 46.1298 15.584 46.5724 15.584C47.0151 15.584 47.3884 15.432 47.6924 15.128C47.9964 14.8187 48.1484 14.4427 48.1484 14C48.1484 13.5573 47.9964 13.184 47.6924 12.88C47.3884 12.5707 47.0151 12.416 46.5724 12.416C46.1298 12.416 45.7564 12.5707 45.4524 12.88C45.1484 13.184 44.9964 13.5573 44.9964 14C44.9964 14.4427 45.1484 14.8187 45.4524 15.128ZM54.2198 12H54.7638L53.5318 16H52.9557L51.9238 12.776L50.8918 16H50.3158L49.0838 12H49.6278L50.6118 15.32L51.6598 12H52.1878L53.2358 15.32L54.2198 12ZM57.432 11.904C57.9173 11.904 58.2987 12.0533 58.576 12.352C58.8587 12.6453 59 13.0427 59 13.544V16H58.472V13.544C58.472 13.1867 58.376 12.9093 58.184 12.712C57.9973 12.5147 57.7307 12.416 57.384 12.416C57 12.416 56.688 12.5387 56.448 12.784C56.208 13.024 56.088 13.3973 56.088 13.904V16H55.56V12H56.088V12.624C56.3867 12.144 56.8347 11.904 57.432 11.904ZM60.0209 16V10.16H60.5489V16H60.0209ZM65.0214 15.496C64.616 15.896 64.12 16.096 63.5334 16.096C62.9467 16.096 62.448 15.896 62.0374 15.496C61.632 15.0907 61.4294 14.592 61.4294 14C61.4294 13.408 61.632 12.912 62.0374 12.512C62.448 12.1067 62.9467 11.904 63.5334 11.904C64.12 11.904 64.616 12.1067 65.0214 12.512C65.432 12.912 65.6374 13.408 65.6374 14C65.6374 14.592 65.432 15.0907 65.0214 15.496ZM62.4134 15.128C62.7174 15.432 63.0907 15.584 63.5334 15.584C63.976 15.584 64.3494 15.432 64.6534 15.128C64.9574 14.8187 65.1094 14.4427 65.1094 14C65.1094 13.5573 64.9574 13.184 64.6534 12.88C64.3494 12.5707 63.976 12.416 63.5334 12.416C63.0907 12.416 62.7174 12.5707 62.4134 12.88C62.1094 13.184 61.9574 13.5573 61.9574 14C61.9574 14.4427 62.1094 14.8187 62.4134 15.128ZM69.9609 12H70.4889V16H69.9609V15.216C69.5929 15.8027 69.0543 16.096 68.3449 16.096C67.7743 16.096 67.2863 15.8933 66.8809 15.488C66.4809 15.0827 66.2809 14.5867 66.2809 14C66.2809 13.4133 66.4809 12.9173 66.8809 12.512C67.2863 12.1067 67.7743 11.904 68.3449 11.904C69.0543 11.904 69.5929 12.1973 69.9609 12.784V12ZM67.2649 15.128C67.5689 15.432 67.9423 15.584 68.3849 15.584C68.8276 15.584 69.2009 15.432 69.5049 15.128C69.8089 14.8187 69.9609 14.4427 69.9609 14C69.9609 13.5573 69.8089 13.184 69.5049 12.88C69.2009 12.5707 68.8276 12.416 68.3849 12.416C67.9423 12.416 67.5689 12.5707 67.2649 12.88C66.9609 13.184 66.8089 13.5573 66.8089 14C66.8089 14.4427 66.9609 14.8187 67.2649 15.128ZM75.0469 10.4H75.5749V16H75.0469V15.216C74.6789 15.8027 74.1402 16.096 73.4309 16.096C72.8602 16.096 72.3722 15.8933 71.9669 15.488C71.5669 15.0827 71.3669 14.5867 71.3669 14C71.3669 13.4133 71.5669 12.9173 71.9669 12.512C72.3722 12.1067 72.8602 11.904 73.4309 11.904C74.1402 11.904 74.6789 12.1973 75.0469 12.784V10.4ZM72.3509 15.128C72.6549 15.432 73.0282 15.584 73.4709 15.584C73.9135 15.584 74.2869 15.432 74.5909 15.128C74.8949 14.8187 75.0469 14.4427 75.0469 14C75.0469 13.5573 74.8949 13.184 74.5909 12.88C74.2869 12.5707 73.9135 12.416 73.4709 12.416C73.0282 12.416 72.6549 12.5707 72.3509 12.88C72.0469 13.184 71.8949 13.5573 71.8949 14C71.8949 14.4427 72.0469 14.8187 72.3509 15.128Z" fill="#E3E3E7"/>
<path d="M44.5706 29L44.0666 27.488H40.7186L40.2146 29H38.4266L41.3666 20.6H43.4186L46.3706 29H44.5706ZM41.2466 25.94H43.5506L42.3986 22.508L41.2466 25.94ZM50.6063 22.832C51.4143 22.832 52.1023 23.14 52.6703 23.756C53.2463 24.364 53.5343 25.112 53.5343 26C53.5343 26.888 53.2463 27.64 52.6703 28.256C52.1023 28.864 51.4143 29.168 50.6063 29.168C49.7663 29.168 49.1183 28.876 48.6623 28.292V31.4H47.1143V23H48.6623V23.708C49.1183 23.124 49.7663 22.832 50.6063 22.832ZM49.1303 27.224C49.4423 27.536 49.8383 27.692 50.3183 27.692C50.7983 27.692 51.1943 27.536 51.5063 27.224C51.8263 26.904 51.9863 26.496 51.9863 26C51.9863 25.504 51.8263 25.1 51.5063 24.788C51.1943 24.468 50.7983 24.308 50.3183 24.308C49.8383 24.308 49.4423 24.468 49.1303 24.788C48.8183 25.1 48.6623 25.504 48.6623 26C48.6623 26.496 48.8183 26.904 49.1303 27.224ZM58.118 22.832C58.926 22.832 59.614 23.14 60.182 23.756C60.758 24.364 61.046 25.112 61.046 26C61.046 26.888 60.758 27.64 60.182 28.256C59.614 28.864 58.926 29.168 58.118 29.168C57.278 29.168 56.63 28.876 56.174 28.292V31.4H54.626V23H56.174V23.708C56.63 23.124 57.278 22.832 58.118 22.832ZM56.642 27.224C56.954 27.536 57.35 27.692 57.83 27.692C58.31 27.692 58.706 27.536 59.018 27.224C59.338 26.904 59.498 26.496 59.498 26C59.498 25.504 59.338 25.1 59.018 24.788C58.706 24.468 58.31 24.308 57.83 24.308C57.35 24.308 56.954 24.468 56.642 24.788C56.33 25.1 56.174 25.504 56.174 26C56.174 26.496 56.33 26.904 56.642 27.224ZM68.0777 29.168C67.2457 29.168 66.5457 28.984 65.9777 28.616C65.4097 28.24 65.0097 27.732 64.7777 27.092L66.1937 26.264C66.5217 27.12 67.1657 27.548 68.1257 27.548C68.5897 27.548 68.9297 27.464 69.1457 27.296C69.3617 27.128 69.4697 26.916 69.4697 26.66C69.4697 26.364 69.3377 26.136 69.0737 25.976C68.8097 25.808 68.3377 25.628 67.6577 25.436C67.2817 25.324 66.9617 25.212 66.6977 25.1C66.4417 24.988 66.1817 24.84 65.9177 24.656C65.6617 24.464 65.4657 24.224 65.3297 23.936C65.1937 23.648 65.1257 23.312 65.1257 22.928C65.1257 22.168 65.3937 21.564 65.9297 21.116C66.4737 20.66 67.1257 20.432 67.8857 20.432C68.5657 20.432 69.1617 20.6 69.6737 20.936C70.1937 21.264 70.5977 21.724 70.8857 22.316L69.4937 23.12C69.1577 22.4 68.6217 22.04 67.8857 22.04C67.5417 22.04 67.2697 22.12 67.0697 22.28C66.8777 22.432 66.7817 22.632 66.7817 22.88C66.7817 23.144 66.8897 23.36 67.1057 23.528C67.3297 23.688 67.7537 23.864 68.3777 24.056C68.6337 24.136 68.8257 24.2 68.9537 24.248C69.0897 24.288 69.2697 24.356 69.4937 24.452C69.7257 24.54 69.9017 24.624 70.0217 24.704C70.1497 24.784 70.2937 24.892 70.4537 25.028C70.6137 25.164 70.7337 25.304 70.8137 25.448C70.9017 25.592 70.9737 25.768 71.0297 25.976C71.0937 26.176 71.1257 26.396 71.1257 26.636C71.1257 27.412 70.8417 28.028 70.2737 28.484C69.7137 28.94 68.9817 29.168 68.0777 29.168ZM75.39 24.488H74.034V26.984C74.034 27.192 74.086 27.344 74.19 27.44C74.294 27.536 74.446 27.592 74.646 27.608C74.846 27.616 75.094 27.612 75.39 27.596V29C74.326 29.12 73.574 29.02 73.134 28.7C72.702 28.38 72.486 27.808 72.486 26.984V24.488H71.442V23H72.486V21.788L74.034 21.32V23H75.39V24.488ZM81.4059 28.256C80.7899 28.864 80.0379 29.168 79.1499 29.168C78.2619 29.168 77.5099 28.864 76.8939 28.256C76.2859 27.64 75.9819 26.888 75.9819 26C75.9819 25.112 76.2859 24.364 76.8939 23.756C77.5099 23.14 78.2619 22.832 79.1499 22.832C80.0379 22.832 80.7899 23.14 81.4059 23.756C82.0219 24.364 82.3299 25.112 82.3299 26C82.3299 26.888 82.0219 27.64 81.4059 28.256ZM77.9859 27.188C78.2979 27.5 78.6859 27.656 79.1499 27.656C79.6139 27.656 80.0019 27.5 80.3139 27.188C80.6259 26.876 80.7819 26.48 80.7819 26C80.7819 25.52 80.6259 25.124 80.3139 24.812C80.0019 24.5 79.6139 24.344 79.1499 24.344C78.6859 24.344 78.2979 24.5 77.9859 24.812C77.6819 25.124 77.5299 25.52 77.5299 26C77.5299 26.48 77.6819 26.876 77.9859 27.188ZM84.9669 24.032C85.1109 23.648 85.3469 23.36 85.6749 23.168C86.0109 22.976 86.3829 22.88 86.7909 22.88V24.608C86.3189 24.552 85.8949 24.648 85.5189 24.896C85.1509 25.144 84.9669 25.556 84.9669 26.132V29H83.4189V23H84.9669V24.032ZM88.7816 26.636C88.9896 27.388 89.5536 27.764 90.4736 27.764C91.0656 27.764 91.5136 27.564 91.8176 27.164L93.0656 27.884C92.4736 28.74 91.6016 29.168 90.4496 29.168C89.4576 29.168 88.6616 28.868 88.0616 28.268C87.4616 27.668 87.1616 26.912 87.1616 26C87.1616 25.096 87.4576 24.344 88.0496 23.744C88.6416 23.136 89.4016 22.832 90.3296 22.832C91.2096 22.832 91.9336 23.136 92.5016 23.744C93.0776 24.352 93.3656 25.104 93.3656 26C93.3656 26.2 93.3456 26.412 93.3056 26.636H88.7816ZM88.7576 25.436H91.8176C91.7296 25.028 91.5456 24.724 91.2656 24.524C90.9936 24.324 90.6816 24.224 90.3296 24.224C89.9136 24.224 89.5696 24.332 89.2976 24.548C89.0256 24.756 88.8456 25.052 88.7576 25.436Z" fill="#E3E3E7"/>
<path fill-rule="evenodd" clip-rule="evenodd" d="M25.2691 8C25.3784 9.39334 24.9271 10.7734 24.0109 11.8471C23.5723 12.3798 23.0155 12.8083 22.3826 13.1005C21.7496 13.3927 21.0571 13.5408 20.357 13.5338C20.3123 12.8637 20.4034 12.1916 20.6249 11.556C20.8464 10.9203 21.1941 10.3335 21.6481 9.82909C22.5766 8.79659 23.8695 8.14352 25.2691 8ZM27.8227 18.1412C27.3575 18.9413 27.1073 19.8433 27.0951 20.7632C27.0963 21.7979 27.4094 22.8095 27.9954 23.6717C28.5814 24.5339 29.4145 25.2086 30.3906 25.6116C30.0068 26.8288 29.4283 27.9792 28.6765 29.02C27.6668 30.4945 26.6082 31.9351 24.928 31.9617C24.1289 31.9797 23.5895 31.7554 23.0274 31.5216C22.4411 31.2778 21.8302 31.0237 20.8742 31.0237C19.8603 31.0237 19.222 31.2859 18.6063 31.5389C18.0743 31.7575 17.5593 31.9691 16.8334 31.9985C15.2333 32.0563 14.0104 30.4247 12.964 28.964C10.8726 25.981 9.24414 20.5573 11.4274 16.867C11.9314 15.9828 12.6614 15.2411 13.5463 14.7142C14.4312 14.1873 15.4408 13.8932 16.4768 13.8605C17.3843 13.8423 18.2552 14.1838 19.0187 14.4832C19.6026 14.7122 20.1237 14.9165 20.5504 14.9165C20.9255 14.9165 21.4321 14.7202 22.0224 14.4915C22.9524 14.1312 24.0903 13.6903 25.2499 13.8091C26.1385 13.8362 27.0085 14.0653 27.7906 14.4781C28.5727 14.8909 29.2455 15.4761 29.7554 16.1871C28.9527 16.6689 28.2878 17.3412 27.8227 18.1412Z" fill="#E3E3E7"/>
</svg>
