<svg width="24" height="24" viewBox="0 0 24 24" fill="none" xmlns="http://www.w3.org/2000/svg">
<path fill-rule="evenodd" clip-rule="evenodd" d="M17.3333 4H6.66667C5.19391 4 4 5.19391 4 6.66667V17.3333C4 18.8061 5.19391 20 6.66667 20H17.3333C18.8061 20 20 18.8061 20 17.3333V6.66667C20 5.19391 18.8061 4 17.3333 4ZM5.77786 6.66669C5.77786 6.17577 6.17583 5.7778 6.66675 5.7778H17.3334C17.8243 5.7778 18.2223 6.17577 18.2223 6.66669V17.3334C18.2223 17.8243 17.8243 18.2222 17.3334 18.2222H6.66675C6.17583 18.2222 5.77786 17.8243 5.77786 17.3334V6.66669Z" fill="#E3E3E7"/>
</svg>
