<svg width="24" height="24" viewBox="0 0 24 24" fill="none" xmlns="http://www.w3.org/2000/svg">
<path fill-rule="evenodd" clip-rule="evenodd" d="M17.3333 4H6.66667C5.19391 4 4 5.19391 4 6.66667V17.3333C4 18.8061 5.19391 20 6.66667 20H17.3333C18.8061 20 20 18.8061 20 17.3333V6.66667C20 5.19391 18.8061 4 17.3333 4ZM16.7216 8.29289C16.3504 7.90237 15.7486 7.90237 15.3775 8.29289L10.3468 13.5858L8.62253 11.7716C8.25136 11.3811 7.64956 11.3811 7.27838 11.7716C6.90721 12.1622 6.90721 12.7953 7.27838 13.1859L9.67472 15.7071C10.0459 16.0976 10.6477 16.0976 11.0189 15.7071L16.7216 9.70711C17.0928 9.31658 17.0928 8.68342 16.7216 8.29289Z" fill="#7B61FF"/>
</svg>
