<svg width="36" height="36" viewBox="0 0 36 36" fill="none" xmlns="http://www.w3.org/2000/svg">
<path opacity="0.5" fill-rule="evenodd" clip-rule="evenodd" d="M0 18C0 8.05887 8.05887 0 18 0C27.9411 0 36 8.05887 36 18C36 27.9411 27.9411 36 18 36C8.05887 36 0 27.9411 0 18Z" fill="#9A9BA2"/>
<path d="M24.3002 11.71C23.9102 11.32 23.2802 11.32 22.8902 11.71L18.0002 16.59L13.1102 11.7C12.7202 11.31 12.0902 11.31 11.7002 11.7C11.3102 12.09 11.3102 12.72 11.7002 13.11L16.5902 18L11.7002 22.89C11.3102 23.28 11.3102 23.91 11.7002 24.3C12.0902 24.69 12.7202 24.69 13.1102 24.3L18.0002 19.41L22.8902 24.3C23.2802 24.69 23.9102 24.69 24.3002 24.3C24.6902 23.91 24.6902 23.28 24.3002 22.89L19.4102 18L24.3002 13.11C24.6802 12.73 24.6802 12.09 24.3002 11.71Z" fill="white"/>
</svg>
