<svg width="38" height="42" viewBox="0 0 38 42" fill="none" xmlns="http://www.w3.org/2000/svg">
<path opacity="0.2" fill-rule="evenodd" clip-rule="evenodd" d="M21.1939 0.580659C19.8363 -0.193553 18.1637 -0.193553 16.8061 0.580659L2.19393 8.91361C0.836322 9.68782 0 11.1186 0 12.667V29.333C0 30.8814 0.836322 32.3122 2.19393 33.0864L16.8061 41.4193C18.1637 42.1936 19.8363 42.1936 21.1939 41.4193L35.8061 33.0864C37.1637 32.3122 38 30.8814 38 29.333V12.6671C38 11.1186 37.1637 9.68782 35.8061 8.91361L21.1939 0.580659Z" fill="#38D47E"/>
<path d="M24.2777 24.4864C24.2777 25.6556 23.8819 26.6181 23.0902 27.3739C22.2986 28.1296 21.2723 28.5788 20.0115 28.7214V29.9323C20.0115 30.3149 19.7014 30.625 19.3188 30.625C18.9362 30.625 18.6261 30.3149 18.6261 29.9323V28.7428C17.4239 28.6572 16.3977 28.3364 15.5474 27.7803C14.9557 27.3865 14.4779 26.8962 14.1141 26.3094C13.8523 25.8872 14.0474 25.3525 14.481 25.1101C15.0075 24.8156 15.6612 25.0769 16.0423 25.5445C16.6227 26.2568 17.484 26.6741 18.6261 26.7964L18.6261 21.6203C17.9664 21.3921 17.4313 21.1854 17.0208 21C16.6249 20.8004 16.2071 20.5366 15.7673 20.2086C15.3275 19.8806 14.9976 19.4814 14.7777 19.0108C14.5725 18.526 14.4699 17.9699 14.4699 17.3425C14.4699 16.1875 14.8657 15.2464 15.6574 14.5192C16.449 13.7919 17.4386 13.3713 18.6261 13.2572V12.0677C18.6261 11.6851 18.9362 11.375 19.3188 11.375C19.7014 11.375 20.0115 11.6851 20.0115 12.0677V13.2786C20.8911 13.3927 21.6755 13.6921 22.3645 14.1769C22.8228 14.4994 23.2129 14.8974 23.535 15.3712C23.8163 15.785 23.6297 16.3314 23.191 16.572C22.692 16.8458 22.0798 16.6049 21.7106 16.1718C21.2851 15.6725 20.7187 15.3569 20.0115 15.225V20.1444C20.6859 20.3869 21.221 20.6007 21.6168 20.7861C22.0127 20.9715 22.4452 21.2353 22.9143 21.5775C23.3834 21.9055 23.728 22.3119 23.9479 22.7967C24.1678 23.2815 24.2777 23.8447 24.2777 24.4864ZM16.493 17.3425C16.493 17.8844 16.6616 18.3264 16.9988 18.6686C17.336 19.0108 17.8784 19.3317 18.6261 19.6311V15.2036C17.981 15.2892 17.4606 15.5244 17.0648 15.9094C16.6836 16.2802 16.493 16.7579 16.493 17.3425ZM20.0115 26.7536C20.7152 26.6538 21.2577 26.4043 21.6388 26.005C22.0347 25.5915 22.2326 25.0924 22.2326 24.5078C22.2326 23.9231 22.0493 23.4597 21.6828 23.1175C21.331 22.761 20.7739 22.4259 20.0115 22.1122L20.0115 26.7536Z" fill="#38D47E"/>
</svg>
