<svg width="38" height="42" viewBox="0 0 38 42" fill="none" xmlns="http://www.w3.org/2000/svg">
<path opacity="0.2" fill-rule="evenodd" clip-rule="evenodd" d="M21.1939 0.580659C19.8363 -0.193553 18.1637 -0.193553 16.8061 0.580659L2.19393 8.91361C0.836322 9.68782 0 11.1186 0 12.667V29.333C0 30.8814 0.836322 32.3122 2.19393 33.0864L16.8061 41.4193C18.1637 42.1936 19.8363 42.1936 21.1939 41.4193L35.8061 33.0864C37.1637 32.3122 38 30.8814 38 29.333V12.6671C38 11.1186 37.1637 9.68782 35.8061 8.91361L21.1939 0.580659Z" fill="#7B61FF"/>
<path d="M12.8425 26.3706L25.1564 26.3706C25.1564 27.7545 24.0345 28.8764 22.6506 28.8764H15.3484C13.9644 28.8764 12.8425 27.7545 12.8425 26.3706Z" fill="#7B61FF"/>
<path d="M22.8723 13.125H25.1574V23.8643H22.8723V13.125Z" fill="#7B61FF"/>
<path d="M12.8425 13.125H15.1276L15.1276 23.8643H12.8425L12.8425 13.125Z" fill="#7B61FF"/>
</svg>
