<svg width="24" height="24" viewBox="0 0 24 24" fill="none" xmlns="http://www.w3.org/2000/svg">
<rect x="4" y="4" width="16" height="16" rx="4" fill="#696FFB"/>
<mask id="mask0" style="mask-type:alpha" maskUnits="userSpaceOnUse" x="4" y="4" width="16" height="16">
<rect x="4" y="4" width="16" height="16" rx="4" fill="#7B61FF"/>
</mask>
<g mask="url(#mask0)">
<path d="M19.9985 16.4996V15.7313L17.5167 14.1053H19.9985V13.2632H13.2617V20H14.1038V14.8894L19.4454 18.389C19.6346 18.0945 19.7806 17.7697 19.8751 17.4235" fill="white"/>
<path d="M4.23534 17.7638C4.32059 17.9838 4.42728 18.1931 4.55309 18.389L9.89466 14.8894V20H10.7367V13.2632H4V14.1053H6.48182L4 15.7313V16.5C4 16.6346 4.00787 16.7673 4.02266 16.8979" fill="white"/>
<path d="M4 7.61893V8.26864L6.48182 9.89469H4V10.7368H10.7368V4H9.89469V9.11057L4.55309 5.61092C4.3455 5.93414 4.18978 6.29379 4.09731 6.6781" fill="white"/>
<path d="M19.7585 6.22401C19.6741 6.00842 19.5689 5.8032 19.4454 5.61089L14.1038 9.11057V4H13.2617V10.7368H19.9985V9.89469H17.5167L19.9985 8.26864V7.49996C19.9985 7.36059 19.9901 7.22315 19.9742 7.08803" fill="white"/>
<path d="M13.2631 4H10.7368V10.7368H4V13.2631H10.7368V19.9998H13.2631V13.2631H19.9998V10.7368H13.2631V4Z" fill="#FF5655"/>
<path d="M8.32558 14.1055L4.02344 16.8981C4.05762 17.2001 4.13012 17.4904 4.23615 17.764L9.87231 14.1055H8.32558V14.1055Z" fill="#FF5655"/>
<path d="M14.7637 14.1055L19.8757 17.4238C19.956 17.1295 19.9991 16.8199 19.9991 16.5002V16.4998L16.3104 14.1055L14.7637 14.1055Z" fill="#FF5655"/>
<path d="M9.05257 9.89481L4.09731 6.67822C4.03384 6.94184 4 7.217 4 7.50009V7.61906L7.50584 9.89481H9.05257Z" fill="#FF5655"/>
<path d="M15.6522 9.89477L19.9759 7.08811C19.9405 6.78674 19.8671 6.49706 19.7602 6.22412L14.1055 9.89477H15.6522Z" fill="#FF5655"/>
</g>
</svg>
