<svg width="24" height="24" viewBox="0 0 24 24" fill="none" xmlns="http://www.w3.org/2000/svg">
<path fill-rule="evenodd" clip-rule="evenodd" d="M6.66667 4H17.3333C18.8061 4 20 5.19391 20 6.66667V17.3333C20 18.8061 18.8061 20 17.3333 20H6.66667C5.19391 20 4 18.8061 4 17.3333V6.66667C4 5.19391 5.19391 4 6.66667 4ZM6.66675 5.7778C6.17583 5.7778 5.77786 6.17577 5.77786 6.66669V17.3334C5.77786 17.8243 6.17583 18.2222 6.66675 18.2222H17.3334C17.8243 18.2222 18.2223 17.8243 18.2223 17.3334V6.66669C18.2223 6.17577 17.8243 5.7778 17.3334 5.7778H6.66675ZM8 12C8 12.5523 8.44772 13 9 13H15C15.5523 13 16 12.5523 16 12C16 11.4477 15.5523 11 15 11H9C8.44772 11 8 11.4477 8 12Z" fill="#9A9BA2"/>
</svg>
