<svg width="24" height="24" viewBox="0 0 24 24" fill="none" xmlns="http://www.w3.org/2000/svg">
<path fill-rule="evenodd" clip-rule="evenodd" d="M7.66471 4H18.3314C19.8041 4 20.998 5.19391 20.998 6.66667V17.3333C20.998 18.8061 19.8041 20 18.3314 20H7.66471C6.19195 20 4.99805 18.8061 4.99805 17.3333V6.66667C4.99805 5.19391 6.19195 4 7.66471 4ZM7.6648 5.7778C7.17388 5.7778 6.77591 6.17577 6.77591 6.66669V17.3334C6.77591 17.8243 7.17388 18.2222 7.6648 18.2222H18.3315C18.8224 18.2222 19.2204 17.8243 19.2204 17.3334V6.66669C19.2204 6.17577 18.8224 5.7778 18.3315 5.7778H7.6648ZM13.998 15C13.998 15.5523 13.5503 16 12.998 16C12.4458 16 11.998 15.5523 11.998 15V13H9.99805C9.44576 13 8.99805 12.5523 8.99805 12C8.99805 11.4477 9.44576 11 9.99805 11H11.998V9C11.998 8.44772 12.4458 8 12.998 8C13.5503 8 13.998 8.44772 13.998 9V11H15.998C16.5503 11 16.998 11.4477 16.998 12C16.998 12.5523 16.5503 13 15.998 13H13.998V15Z" fill="#9A9BA2"/>
</svg>
