<svg width="24" height="24" viewBox="0 0 24 24" fill="none" xmlns="http://www.w3.org/2000/svg">
<rect width="24" height="24" rx="12" fill="#4867AA"/>
<path d="M14.775 7.002L13.335 7C11.715 7 10.6725 7.966 10.6725 9.46133V10.596H9.225C9.105 10.596 9 10.6873 9 10.8V12.444C9 12.5567 9.105 12.6473 9.225 12.6473H10.6725V16.796C10.6725 16.9087 10.7775 17 10.8975 17H12.7875C12.915 17 13.0125 16.9087 13.0125 16.796V12.6473H14.7075C14.8275 12.6473 14.9325 12.5567 14.9325 12.444V10.8C14.9325 10.7453 14.91 10.694 14.865 10.6553C14.8275 10.6173 14.7675 10.596 14.7075 10.596H13.0125V9.634C13.0125 9.17133 13.1325 8.93667 13.8075 8.93667H14.775C14.895 8.93667 15 8.84533 15 8.73267V7.206C15 7.09333 14.9025 7.002 14.775 7.002Z" fill="white"/>
</svg>
