<svg width="38" height="42" viewBox="0 0 38 42" fill="none" xmlns="http://www.w3.org/2000/svg">
<path opacity="0.2" fill-rule="evenodd" clip-rule="evenodd" d="M21.1939 0.580659C19.8363 -0.193553 18.1637 -0.193553 16.8061 0.580659L2.19393 8.91361C0.836322 9.68782 0 11.1186 0 12.667V29.333C0 30.8814 0.836322 32.3122 2.19393 33.0864L16.8061 41.4193C18.1637 42.1936 19.8363 42.1936 21.1939 41.4193L35.8061 33.0864C37.1637 32.3122 38 30.8814 38 29.333V12.6671C38 11.1186 37.1637 9.68782 35.8061 8.91361L21.1939 0.580659Z" fill="#7B61FF"/>
<path d="M15.9212 30.625C16.9769 30.6313 18.0234 30.429 18.9999 30.03C19.9754 30.4324 21.0226 30.6348 22.0786 30.625C25.2849 30.625 27.7962 28.9231 27.7962 26.7496V23.1254C27.7962 20.9519 25.2849 19.25 22.0786 19.25C21.93 19.25 21.7839 19.257 21.6388 19.2649V15.1664C21.6388 13.0375 19.1275 11.375 15.9212 11.375C12.715 11.375 10.2036 13.0375 10.2036 15.1664V26.8336C10.2036 28.9625 12.715 30.625 15.9212 30.625ZM26.0369 26.7496C26.0369 27.755 24.4114 28.875 22.0786 28.875C19.7458 28.875 18.1203 27.755 18.1203 26.7496V25.9403C19.3115 26.6609 20.6847 27.0285 22.0786 26.9999C23.4725 27.0285 24.8457 26.6609 26.0369 25.9403V26.7496ZM22.0786 21C24.4114 21 26.0369 22.12 26.0369 23.1254C26.0369 24.1308 24.4114 25.2499 22.0786 25.2499C19.7458 25.2499 18.1203 24.1299 18.1203 23.1254C18.1203 22.1209 19.7458 21 22.0786 21ZM15.9212 13.125C18.254 13.125 19.8795 14.2013 19.8795 15.1664C19.8795 16.1315 18.254 17.2086 15.9212 17.2086C13.5884 17.2086 11.9629 16.1324 11.9629 15.1664C11.9629 14.2004 13.5884 13.125 15.9212 13.125ZM11.9629 17.9218C13.159 18.6284 14.5303 18.9876 15.9212 18.9586C17.3121 18.9876 18.6834 18.6284 19.8795 17.9218V19.5388C18.9209 19.7791 18.0417 20.2637 17.3286 20.9449C16.8661 21.0444 16.3944 21.0955 15.9212 21.0971C13.5884 21.0971 11.9629 20.0209 11.9629 19.0558V17.9218ZM11.9629 21.8111C13.1593 22.5171 14.5304 22.8759 15.9212 22.8471C16.0778 22.8471 16.2291 22.8279 16.383 22.82C16.3699 22.9213 16.3626 23.0233 16.361 23.1254V24.9498C16.2132 24.9585 16.0707 24.9865 15.9212 24.9865C13.5884 24.9865 11.9629 23.9103 11.9629 22.9443V21.8111ZM11.9629 25.6996C13.159 26.4063 14.5303 26.7655 15.9212 26.7365C16.069 26.7365 16.2141 26.7251 16.361 26.7181V26.7496C16.3736 27.4945 16.6614 28.2087 17.1694 28.756C16.7578 28.8333 16.34 28.8731 15.9212 28.875C13.5884 28.875 11.9629 27.7988 11.9629 26.8336V25.6996Z" fill="#7B61FF"/>
</svg>
