<svg width="54" height="59" viewBox="0 0 54 59" fill="none" xmlns="http://www.w3.org/2000/svg">
<mask id="path-1-inside-1" fill="white">
<path fill-rule="evenodd" clip-rule="evenodd" d="M0 53.0945L27.0691 38.3812C41.0936 30.7582 49.7331 16.6704 49.7331 1.42445V0L48.8798 0V1.42445C48.8798 16.3805 40.4045 30.2022 26.6438 37.6818L0 52.1639L0 53.0945ZM0 57.2634L30.4179 40.7298C44.4836 33.0845 53.1466 18.9566 53.1466 3.66909V0L54 0V3.66909C54 19.2465 45.1727 33.6406 30.8433 41.4293L0 58.194L0 57.2634ZM0 47.995L23.2949 35.3331C36.7627 28.0128 45.1542 14.5982 45.4577 0L44.6042 0C44.3008 14.3083 36.0735 27.4567 22.8696 34.6337L0 47.0644L0 47.995ZM0 42.8955L19.5208 32.2851C31.9901 25.5074 40.0091 13.3868 41.0774 0L40.2215 0C39.155 13.0968 31.3007 24.9515 19.0954 31.5857L0 41.9649L0 42.8955ZM0 37.796L15.7466 29.237C27.2097 23.0063 34.8242 12.1552 36.5563 0L35.695 0C33.9685 11.8646 26.5198 22.4507 15.3213 28.5376L0 36.8654L0 37.796ZM0 32.6965L11.9724 26.189C22.4188 20.5109 29.5929 10.9043 31.8814 0L31.0109 0C28.7344 10.6128 21.7281 19.9557 11.5471 25.4895L0 31.7659L0 32.6965ZM0 27.597L8.19827 23.1409C17.6142 18.0229 24.3067 9.6354 27.036 0L26.1519 0C23.4436 9.34274 16.9221 17.4685 7.77294 22.4415L0 26.6664L0 27.597ZM0 22.4975L4.42408 20.0928C12.7914 15.5448 18.9544 8.35036 21.9989 0L21.0951 0C18.0841 8.05642 12.0971 14.9915 3.99872 19.3934L0 21.5669L0 22.4975ZM0 17.398L0.649895 17.0448C7.94453 13.0798 13.5208 7.05194 16.7416 0L15.8101 0C12.6399 6.75681 7.24685 12.5284 0.224562 16.3454L0 16.4674L0 17.398ZM0 12.0983C4.73212 8.89909 8.55059 4.74104 11.2249 0L10.2546 0C7.75006 4.30902 4.27028 8.10976 0 11.1005L0 12.0983ZM3.70897 2.22635C3.04644 3.03277 2.34486 3.81251 1.60588 4.56286C2.18055 3.67749 2.89148 2.88875 3.70897 2.22635Z"/>
</mask>
<path d="M0 53.0945H-1L-1 54.7762L0.477559 53.9731L0 53.0945ZM27.0691 38.3812L27.5467 39.2598L27.0691 38.3812ZM49.7331 0L50.7331 0V-1L49.7331 -1V0ZM48.8798 0V-1L47.8798 -1V0L48.8798 0ZM26.6438 37.6818L27.1213 38.5604L26.6438 37.6818ZM0 52.1639L-0.477559 51.2853L-1 51.5693L-1 52.1639H0ZM0 57.2634L-0.477559 56.3848L-1 56.6688V57.2634H0ZM30.4179 40.7298L29.9404 39.8512H29.9404L30.4179 40.7298ZM53.1466 0V-1H52.1466V0L53.1466 0ZM54 0L55 0V-1H54V0ZM30.8433 41.4293L30.3657 40.5507H30.3657L30.8433 41.4293ZM0 58.194H-1L-1 59.8757L0.477559 59.0726L0 58.194ZM23.2949 35.3331L23.7725 36.2117L23.2949 35.3331ZM0 47.995H-1L-1 49.6767L0.477559 48.8736L0 47.995ZM45.4577 0L46.4575 0.0207898L46.4787 -1L45.4577 -1V0ZM44.6042 0V-1L43.6252 -1L43.6044 -0.0212022L44.6042 0ZM22.8696 34.6337L23.3472 35.5123V35.5123L22.8696 34.6337ZM0 47.0644L-0.477559 46.1858L-1 46.4698L-1 47.0644H0ZM0 42.8955H-1L-1 44.5772L0.477559 43.7741L0 42.8955ZM19.5208 32.2851L19.0432 31.4065H19.0432L19.5208 32.2851ZM41.0774 0L42.0742 0.0795496L42.1603 -1H41.0774V0ZM40.2215 0V-1H39.2996L39.2248 -0.0811641L40.2215 0ZM19.0954 31.5857L19.573 32.4643L19.0954 31.5857ZM0 41.9649L-0.477559 41.0863L-1 41.3703V41.9649H0ZM15.7466 29.237L15.269 28.3584L15.7466 29.237ZM0 37.796H-1L-1 39.4777L0.477559 38.6746L0 37.796ZM36.5563 0L37.5463 0.141073L37.7089 -1L36.5563 -1V0ZM35.695 0V-1L34.83 -1L34.7054 -0.143998L35.695 0ZM15.3213 28.5376L15.7988 29.4162H15.7988L15.3213 28.5376ZM0 36.8654L-0.477559 35.9868L-1 36.2708L-1 36.8654H0ZM0 32.6965H-1L-1 34.3783L0.477559 33.5751L0 32.6965ZM11.9724 26.189L11.4949 25.3104L11.9724 26.189ZM31.8814 0L32.86 0.205391L33.113 -1H31.8814V0ZM31.0109 0V-1H30.2027L30.0332 -0.209739L31.0109 0ZM11.5471 25.4895L12.0247 26.3681H12.0247L11.5471 25.4895ZM0 31.7659L-0.477559 30.8873L-1 31.1713L-1 31.7659H0ZM8.19827 23.1409L7.72071 22.2623H7.72071L8.19827 23.1409ZM0 27.597H-1L-1 29.2787L0.477559 28.4756L0 27.597ZM27.036 0L27.9982 0.272536L28.3586 -1L27.036 -1V0ZM26.1519 0V-1H25.4006L25.1914 -0.278421L26.1519 0ZM7.77294 22.4415L8.2505 23.3201L7.77294 22.4415ZM0 26.6664L-0.477559 25.7878L-1 26.0718V26.6664H0ZM0 22.4975H-1L-1 24.1792L0.477559 23.3761L0 22.4975ZM4.42408 20.0928L4.90164 20.9714H4.90164L4.42408 20.0928ZM21.9989 0L22.9384 0.342543L23.4279 -1L21.9989 -1V0ZM21.0951 0V-1L20.4012 -1L20.1583 -0.35008L21.0951 0ZM3.99872 19.3934L4.47628 20.272H4.47628L3.99872 19.3934ZM0 21.5669L-0.477559 20.6883L-1 20.9723L-1 21.5669H0ZM0.649895 17.0448L1.12745 17.9234H1.12745L0.649895 17.0448ZM0 17.398H-1L-1 19.0798L0.477558 18.2766L0 17.398ZM16.7416 0L17.6513 0.415449L18.2977 -1L16.7416 -1V0ZM15.8101 0V-1L15.1747 -1L14.9048 -0.424756L15.8101 0ZM0.224562 16.3454L-0.252997 15.4668L-0.253 15.4668L0.224562 16.3454ZM0 16.4674L-0.477562 15.5888L-1 15.8728V16.4674H0ZM0 12.0983H-1L-1 13.9815L0.560081 12.9268L0 12.0983ZM11.2249 0L12.0959 0.491307L12.9371 -1L11.2249 -1V0ZM10.2546 0V-1L9.67913 -1L9.38998 -0.502509L10.2546 0ZM0 11.1005L-0.573659 10.2814L-1 10.58V11.1005H0ZM3.70897 2.22635L4.48165 2.86116L3.07942 1.44939L3.70897 2.22635ZM1.60588 4.56286L0.767081 4.01843L2.31837 5.26455L1.60588 4.56286ZM0.477559 53.9731L27.5467 39.2598L26.5915 37.5026L-0.477559 52.2159L0.477559 53.9731ZM27.5467 39.2598C41.8743 31.4721 50.7331 17.0578 50.7331 1.42445L48.7331 1.42445C48.7331 16.283 40.3129 30.0444 26.5915 37.5026L27.5467 39.2598ZM50.7331 1.42445V0L48.7331 0V1.42445L50.7331 1.42445ZM48.8798 1L49.7331 1V-1H48.8798V1ZM47.8798 0V1.42445L49.8798 1.42445V0L47.8798 0ZM47.8798 1.42445C47.8798 15.9931 39.6238 29.4884 26.1662 36.8032L27.1213 38.5604C41.1852 30.916 49.8798 16.7679 49.8798 1.42445L47.8798 1.42445ZM26.1662 36.8032L-0.477559 51.2853L0.477559 53.0425L27.1213 38.5604L26.1662 36.8032ZM1 53.0945V52.1639H-1L-1 53.0945H1ZM0.477559 58.142L30.8955 41.6084L29.9404 39.8512L-0.477559 56.3848L0.477559 58.142ZM30.8955 41.6084C45.2643 33.7983 54.1466 19.344 54.1466 3.66909L52.1466 3.66909C52.1466 18.5692 43.7028 32.3707 29.9404 39.8512L30.8955 41.6084ZM54.1466 3.66909V0L52.1466 0V3.66909L54.1466 3.66909ZM53.1466 1L54 1V-1L53.1466 -1V1ZM53 0V3.66909H55V0L53 0ZM53 3.66909C53 18.8591 44.3919 32.9268 30.3657 40.5507L31.3208 42.3079C45.9534 34.3544 55 19.6339 55 3.66909H53ZM30.3657 40.5507L-0.477559 57.3154L0.477559 59.0726L31.3208 42.3079L30.3657 40.5507ZM1 58.194V57.2634H-1L-1 58.194H1ZM22.8174 34.4545L-0.477559 47.1164L0.477559 48.8736L23.7725 36.2117L22.8174 34.4545ZM44.458 -0.0207898C44.1623 14.1986 35.9875 27.2959 22.8174 34.4545L23.7725 36.2117C37.5379 28.7296 46.1461 14.9978 46.4575 0.0207898L44.458 -0.0207898ZM44.6042 1L45.4577 1V-1H44.6042V1ZM23.3472 35.5123C36.8486 28.1736 45.2925 14.7081 45.604 0.0212022L43.6044 -0.0212022C43.309 13.9085 35.2985 26.7399 22.392 33.7551L23.3472 35.5123ZM0.477559 47.943L23.3472 35.5123L22.392 33.7551L-0.477559 46.1858L0.477559 47.943ZM1 47.995V47.0644H-1L-1 47.995H1ZM0.477559 43.7741L19.9983 33.1637L19.0432 31.4065L-0.477559 42.0169L0.477559 43.7741ZM19.9983 33.1637C32.7495 26.2328 40.9776 13.8203 42.0742 0.0795496L40.0805 -0.0795496C39.0405 12.9534 31.2307 24.782 19.0432 31.4065L19.9983 33.1637ZM40.2215 1L41.0774 1V-1L40.2215 -1V1ZM39.2248 -0.0811641C38.1871 12.6624 30.5417 24.2259 18.6179 30.7071L19.573 32.4643C32.0597 25.6772 40.1229 13.5311 41.2182 0.0811641L39.2248 -0.0811641ZM18.6179 30.7071L-0.477559 41.0863L0.477559 42.8435L19.573 32.4643L18.6179 30.7071ZM1 42.8955L1 41.9649H-1L-1 42.8955H1ZM15.269 28.3584L-0.477559 36.9174L0.477559 38.6746L16.2241 30.1156L15.269 28.3584ZM35.5663 -0.141073C33.8808 11.6872 26.467 22.2718 15.269 28.3584L16.2241 30.1156C27.9524 23.7408 35.7676 12.6233 37.5463 0.141073L35.5663 -0.141073ZM35.695 1L36.5563 1V-1H35.695V1ZM15.7988 29.4162C27.2617 23.1856 34.9107 12.3343 36.6846 0.143998L34.7054 -0.143998C33.0263 11.3949 25.7778 21.7158 14.8437 27.659L15.7988 29.4162ZM0.477559 37.744L15.7988 29.4162L14.8437 27.659L-0.477559 35.9868L0.477559 37.744ZM1 37.796L1 36.8654H-1L-1 37.796H1ZM0.477559 33.5751L12.45 27.0676L11.4949 25.3104L-0.477559 31.8179L0.477559 33.5751ZM12.45 27.0676C23.1439 21.2549 30.509 11.4079 32.86 0.205391L30.9027 -0.205391C28.6768 10.4007 21.6938 19.7668 11.4949 25.3104L12.45 27.0676ZM31.0109 1L31.8814 1V-1L31.0109 -1V1ZM30.0332 -0.209739C27.8202 10.1068 21.0042 19.211 11.0695 24.611L12.0247 26.3681C22.4519 20.7004 29.6486 11.1187 31.9887 0.209739L30.0332 -0.209739ZM11.0695 24.611L-0.477559 30.8873L0.477559 32.6445L12.0247 26.3681L11.0695 24.611ZM1 32.6965V31.7659H-1L-1 32.6965H1ZM7.72071 22.2623L-0.477559 26.7184L0.477559 28.4756L8.67583 24.0195L7.72071 22.2623ZM26.0739 -0.272536C23.4204 9.0953 16.908 17.2686 7.72071 22.2623L8.67583 24.0195C18.3204 18.7772 25.1931 10.1755 27.9982 0.272536L26.0739 -0.272536ZM26.1519 1L27.036 1V-1L26.1519 -1V1ZM8.2505 23.3201C17.6266 18.2237 24.3272 9.88601 27.1123 0.278421L25.1914 -0.278421C22.5599 8.79946 16.2176 16.7132 7.29538 21.5629L8.2505 23.3201ZM0.477559 27.545L8.2505 23.3201L7.29538 21.5629L-0.477559 25.7878L0.477559 27.545ZM1 27.597V26.6664H-1L-1 27.597H1ZM0.477559 23.3761L4.90164 20.9714L3.94652 19.2142L-0.477559 21.6189L0.477559 23.3761ZM4.90164 20.9714C13.4773 16.3102 19.8081 8.92815 22.9384 0.342543L21.0594 -0.342543C18.1007 7.77258 12.1056 14.7794 3.94652 19.2142L4.90164 20.9714ZM21.0951 1L21.9989 1V-1H21.0951V1ZM20.1583 -0.35008C17.234 7.4746 11.4135 14.2249 3.52116 18.5148L4.47628 20.272C12.7807 15.7581 18.9342 8.63825 22.0318 0.35008L20.1583 -0.35008ZM3.52116 18.5148L-0.477559 20.6883L0.477559 22.4455L4.47628 20.272L3.52116 18.5148ZM1 22.4975V21.5669H-1L-1 22.4975H1ZM0.172336 16.1662L-0.477558 16.5194L0.477558 18.2766L1.12745 17.9234L0.172336 16.1662ZM15.832 -0.415449C12.7032 6.43512 7.28071 12.3025 0.172335 16.1662L1.12745 17.9234C8.60835 13.8572 14.3385 7.66875 17.6513 0.415449L15.832 -0.415449ZM15.8101 1L16.7416 1V-1H15.8101V1ZM0.702122 17.224C7.90778 13.3073 13.4528 7.3786 16.7154 0.424756L14.9048 -0.424756C11.8271 6.13501 6.58592 11.7495 -0.252997 15.4668L0.702122 17.224ZM0.477562 17.346L0.702124 17.2239L-0.253 15.4668L-0.477562 15.5888L0.477562 17.346ZM1 17.398L1 16.4674H-1L-1 17.398H1ZM0.560081 12.9268C5.41861 9.64207 9.34431 5.36933 12.0959 0.491307L10.3539 -0.491307C7.75688 4.11275 4.04564 8.15611 -0.560081 11.2699L0.560081 12.9268ZM10.2546 1L11.2249 1V-1H10.2546V1ZM9.38998 -0.502509C6.95939 3.67936 3.57954 7.37267 -0.573659 10.2814L0.573659 11.9196C4.96103 8.84685 8.54073 4.93867 11.1191 0.502509L9.38998 -0.502509ZM1 12.0983L1 11.1005H-1L-1 12.0983H1ZM2.9363 1.59155C2.29287 2.37471 1.61138 3.13214 0.893396 3.86118L2.31837 5.26455C3.07834 4.49288 3.80001 3.69083 4.48165 2.86116L2.9363 1.59155ZM2.44469 5.1073C2.96202 4.31024 3.60226 3.59989 4.33853 3.00331L3.07942 1.44939C2.1807 2.17761 1.39907 3.04474 0.767081 4.01843L2.44469 5.1073Z" fill="#E3E3E7" mask="url(#path-1-inside-1)"/>
</svg>
