<svg width="55" height="59" viewBox="0 0 55 59" fill="none" xmlns="http://www.w3.org/2000/svg">
<mask id="path-1-inside-1_2150:46825" fill="white">
<path fill-rule="evenodd" clip-rule="evenodd" d="M0.390625 53.0945L27.4597 38.3812C41.4842 30.7582 50.1238 16.6704 50.1238 1.42445V0L49.2704 0V1.42445C49.2704 16.3805 40.7951 30.2022 27.0344 37.6818L0.390625 52.1639L0.390625 53.0945ZM0.390625 57.2634L30.8086 40.7298C44.8742 33.0845 53.5372 18.9566 53.5372 3.66909V0L54.3906 0V3.66909C54.3906 19.2465 45.5633 33.6406 31.2339 41.4293L0.390625 58.194L0.390625 57.2634ZM0.390625 47.995L23.6856 35.3331C37.1533 28.0128 45.5448 14.5982 45.8484 0L44.9948 0C44.6914 14.3083 36.4642 27.4567 23.2602 34.6337L0.390625 47.0644L0.390625 47.995ZM0.390625 42.8955L19.9114 32.2851C32.3808 25.5074 40.3997 13.3868 41.468 0L40.6121 0C39.5456 13.0968 31.6913 24.9515 19.486 31.5857L0.390625 41.9649L0.390625 42.8955ZM0.390625 37.796L16.1372 29.237C27.6003 23.0063 35.2148 12.1552 36.9469 0L36.0856 0C34.3592 11.8646 26.9104 22.4507 15.7119 28.5376L0.390625 36.8654L0.390625 37.796ZM0.390625 32.6965L12.3631 26.189C22.8095 20.5109 29.9835 10.9043 32.272 0L31.4016 0C29.125 10.6128 22.1187 19.9557 11.9377 25.4895L0.390625 31.7659L0.390625 32.6965ZM0.390625 27.597L8.58889 23.1409C18.0048 18.0229 24.6973 9.6354 27.4267 0L26.5425 0C23.8342 9.34274 17.3127 17.4685 8.16356 22.4415L0.390625 26.6664L0.390625 27.597ZM0.390625 22.4975L4.81471 20.0928C13.182 15.5448 19.345 8.35036 22.3896 0L21.4857 0C18.4748 8.05642 12.4878 14.9915 4.38935 19.3934L0.390625 21.5669L0.390625 22.4975ZM0.390625 17.398L1.04052 17.0448C8.33516 13.0798 13.9114 7.05194 17.1323 0L16.2007 0C13.0305 6.75681 7.63748 12.5284 0.615187 16.3454L0.390625 16.4674L0.390625 17.398ZM0.390625 12.0983C5.12275 8.89909 8.94122 4.74104 11.6156 0L10.6452 0C8.14068 4.30902 4.66091 8.10976 0.390625 11.1005L0.390625 12.0983ZM4.0996 2.22635C3.43707 3.03277 2.73549 3.81251 1.99651 4.56286C2.57117 3.67749 3.28211 2.88875 4.0996 2.22635Z"/>
</mask>
<path d="M0.390625 53.0945H-0.609375L-0.609375 54.7762L0.868184 53.9731L0.390625 53.0945ZM27.4597 38.3812L27.9373 39.2598L27.4597 38.3812ZM50.1238 0L51.1238 0V-1L50.1238 -1V0ZM49.2704 0V-1L48.2704 -1V0L49.2704 0ZM27.0344 37.6818L27.512 38.5604L27.0344 37.6818ZM0.390625 52.1639L-0.0869342 51.2853L-0.609375 51.5693L-0.609375 52.1639H0.390625ZM0.390625 57.2634L-0.0869343 56.3848L-0.609375 56.6688V57.2634H0.390625ZM30.8086 40.7298L30.331 39.8512H30.331L30.8086 40.7298ZM53.5372 0V-1H52.5372V0L53.5372 0ZM54.3906 0L55.3906 0V-1H54.3906V0ZM31.2339 41.4293L30.7563 40.5507H30.7563L31.2339 41.4293ZM0.390625 58.194H-0.609375L-0.609375 59.8757L0.868184 59.0726L0.390625 58.194ZM23.6856 35.3331L24.1631 36.2117L23.6856 35.3331ZM0.390625 47.995H-0.609375L-0.609375 49.6767L0.868184 48.8736L0.390625 47.995ZM45.8484 0L46.8481 0.0207898L46.8694 -1L45.8484 -1V0ZM44.9948 0V-1L44.0158 -1L43.995 -0.0212022L44.9948 0ZM23.2602 34.6337L23.7378 35.5123V35.5123L23.2602 34.6337ZM0.390625 47.0644L-0.0869341 46.1858L-0.609375 46.4698L-0.609375 47.0644H0.390625ZM0.390625 42.8955H-0.609375L-0.609375 44.5772L0.868184 43.7741L0.390625 42.8955ZM19.9114 32.2851L19.4338 31.4065H19.4338L19.9114 32.2851ZM41.468 0L42.4648 0.0795496L42.551 -1H41.468V0ZM40.6121 0V-1H39.6902L39.6154 -0.0811641L40.6121 0ZM19.486 31.5857L19.9636 32.4643L19.486 31.5857ZM0.390625 41.9649L-0.0869342 41.0863L-0.609375 41.3703V41.9649H0.390625ZM16.1372 29.237L15.6597 28.3584L16.1372 29.237ZM0.390625 37.796H-0.609375L-0.609375 39.4777L0.868184 38.6746L0.390625 37.796ZM36.9469 0L37.9369 0.141073L38.0995 -1L36.9469 -1V0ZM36.0856 0V-1L35.2206 -1L35.0961 -0.143998L36.0856 0ZM15.7119 28.5376L16.1894 29.4162H16.1894L15.7119 28.5376ZM0.390625 36.8654L-0.0869341 35.9868L-0.609375 36.2708L-0.609375 36.8654H0.390625ZM0.390625 32.6965H-0.609375L-0.609375 34.3783L0.868184 33.5751L0.390625 32.6965ZM12.3631 26.189L11.8855 25.3104L12.3631 26.189ZM32.272 0L33.2507 0.205391L33.5036 -1H32.272V0ZM31.4016 0V-1H30.5933L30.4238 -0.209739L31.4016 0ZM11.9377 25.4895L12.4153 26.3681H12.4153L11.9377 25.4895ZM0.390625 31.7659L-0.0869341 30.8873L-0.609375 31.1713L-0.609375 31.7659H0.390625ZM8.58889 23.1409L8.11134 22.2623H8.11133L8.58889 23.1409ZM0.390625 27.597H-0.609375L-0.609375 29.2787L0.868184 28.4756L0.390625 27.597ZM27.4267 0L28.3888 0.272536L28.7493 -1L27.4267 -1V0ZM26.5425 0V-1H25.7912L25.582 -0.278421L26.5425 0ZM8.16356 22.4415L8.64112 23.3201L8.16356 22.4415ZM0.390625 26.6664L-0.0869341 25.7878L-0.609375 26.0718V26.6664H0.390625ZM0.390625 22.4975H-0.609375L-0.609375 24.1792L0.868184 23.3761L0.390625 22.4975ZM4.81471 20.0928L5.29227 20.9714H5.29227L4.81471 20.0928ZM22.3896 0L23.3291 0.342543L23.8186 -1L22.3896 -1V0ZM21.4857 0V-1L20.7919 -1L20.549 -0.35008L21.4857 0ZM4.38935 19.3934L4.86691 20.272H4.86691L4.38935 19.3934ZM0.390625 21.5669L-0.086934 20.6883L-0.609375 20.9723L-0.609375 21.5669H0.390625ZM1.04052 17.0448L1.51808 17.9234H1.51808L1.04052 17.0448ZM0.390625 17.398H-0.609375L-0.609375 19.0798L0.868183 18.2766L0.390625 17.398ZM17.1323 0L18.0419 0.415449L18.6884 -1L17.1323 -1V0ZM16.2007 0V-1L15.5653 -1L15.2954 -0.424756L16.2007 0ZM0.615187 16.3454L0.137628 15.4668L0.137625 15.4668L0.615187 16.3454ZM0.390625 16.4674L-0.086937 15.5888L-0.609375 15.8728V16.4674H0.390625ZM0.390625 12.0983H-0.609375L-0.609375 13.9815L0.950706 12.9268L0.390625 12.0983ZM11.6156 0L12.4865 0.491307L13.3278 -1L11.6156 -1V0ZM10.6452 0V-1L10.0698 -1L9.78061 -0.502509L10.6452 0ZM0.390625 11.1005L-0.183034 10.2814L-0.609375 10.58V11.1005H0.390625ZM4.0996 2.22635L4.87227 2.86116L3.47004 1.44939L4.0996 2.22635ZM1.99651 4.56286L1.15771 4.01843L2.709 5.26455L1.99651 4.56286ZM0.868184 53.9731L27.9373 39.2598L26.9822 37.5026L-0.0869342 52.2159L0.868184 53.9731ZM27.9373 39.2598C42.265 31.4721 51.1238 17.0578 51.1238 1.42445L49.1238 1.42445C49.1238 16.283 40.7035 30.0444 26.9822 37.5026L27.9373 39.2598ZM51.1238 1.42445V0L49.1238 0V1.42445L51.1238 1.42445ZM49.2704 1L50.1238 1V-1H49.2704V1ZM48.2704 0V1.42445L50.2704 1.42445V0L48.2704 0ZM48.2704 1.42445C48.2704 15.9931 40.0144 29.4884 26.5568 36.8032L27.512 38.5604C41.5759 30.916 50.2704 16.7679 50.2704 1.42445L48.2704 1.42445ZM26.5568 36.8032L-0.0869342 51.2853L0.868184 53.0425L27.512 38.5604L26.5568 36.8032ZM1.39063 53.0945V52.1639H-0.609375L-0.609375 53.0945H1.39063ZM0.868184 58.142L31.2861 41.6084L30.331 39.8512L-0.0869343 56.3848L0.868184 58.142ZM31.2861 41.6084C45.6549 33.7983 54.5372 19.344 54.5372 3.66909L52.5372 3.66909C52.5372 18.5692 44.0935 32.3707 30.331 39.8512L31.2861 41.6084ZM54.5372 3.66909V0L52.5372 0V3.66909L54.5372 3.66909ZM53.5372 1L54.3906 1V-1L53.5372 -1V1ZM53.3906 0V3.66909H55.3906V0L53.3906 0ZM53.3906 3.66909C53.3906 18.8591 44.7826 32.9268 30.7563 40.5507L31.7114 42.3079C46.344 34.3544 55.3906 19.6339 55.3906 3.66909H53.3906ZM30.7563 40.5507L-0.0869344 57.3154L0.868184 59.0726L31.7114 42.3079L30.7563 40.5507ZM1.39063 58.194V57.2634H-0.609375L-0.609375 58.194H1.39063ZM23.208 34.4545L-0.0869341 47.1164L0.868184 48.8736L24.1631 36.2117L23.208 34.4545ZM44.8486 -0.0207898C44.5529 14.1986 36.3782 27.2959 23.208 34.4545L24.1631 36.2117C37.9285 28.7296 46.5367 14.9978 46.8481 0.0207898L44.8486 -0.0207898ZM44.9948 1L45.8484 1V-1H44.9948V1ZM23.7378 35.5123C37.2392 28.1736 45.6831 14.7081 45.9946 0.0212022L43.995 -0.0212022C43.6996 13.9085 35.6891 26.7399 22.7827 33.7551L23.7378 35.5123ZM0.868184 47.943L23.7378 35.5123L22.7827 33.7551L-0.0869341 46.1858L0.868184 47.943ZM1.39063 47.995V47.0644H-0.609375L-0.609375 47.995H1.39063ZM0.868184 43.7741L20.389 33.1637L19.4338 31.4065L-0.0869342 42.0169L0.868184 43.7741ZM20.389 33.1637C33.1402 26.2328 41.3683 13.8203 42.4648 0.0795496L40.4712 -0.0795496C39.4311 12.9534 31.6214 24.782 19.4338 31.4065L20.389 33.1637ZM40.6121 1L41.468 1V-1L40.6121 -1V1ZM39.6154 -0.0811641C38.5777 12.6624 30.9324 24.2259 19.0085 30.7071L19.9636 32.4643C32.4503 25.6772 40.5136 13.5311 41.6088 0.0811641L39.6154 -0.0811641ZM19.0085 30.7071L-0.0869342 41.0863L0.868184 42.8435L19.9636 32.4643L19.0085 30.7071ZM1.39063 42.8955L1.39063 41.9649H-0.609375L-0.609375 42.8955H1.39063ZM15.6597 28.3584L-0.0869344 36.9174L0.868184 38.6746L16.6148 30.1156L15.6597 28.3584ZM35.9569 -0.141073C34.2714 11.6872 26.8576 22.2718 15.6597 28.3584L16.6148 30.1156C28.3431 23.7408 36.1582 12.6233 37.9369 0.141073L35.9569 -0.141073ZM36.0856 1L36.9469 1V-1H36.0856V1ZM16.1894 29.4162C27.6524 23.1856 35.3013 12.3343 37.0752 0.143998L35.0961 -0.143998C33.417 11.3949 26.1685 21.7158 15.2343 27.659L16.1894 29.4162ZM0.868184 37.744L16.1894 29.4162L15.2343 27.659L-0.0869341 35.9868L0.868184 37.744ZM1.39063 37.796L1.39063 36.8654H-0.609375L-0.609375 37.796H1.39063ZM0.868184 33.5751L12.8406 27.0676L11.8855 25.3104L-0.0869344 31.8179L0.868184 33.5751ZM12.8406 27.0676C23.5345 21.2549 30.8996 11.4079 33.2507 0.205391L31.2933 -0.205391C29.0674 10.4007 22.0844 19.7668 11.8855 25.3104L12.8406 27.0676ZM31.4016 1L32.272 1V-1L31.4016 -1V1ZM30.4238 -0.209739C28.2108 10.1068 21.3949 19.211 11.4602 24.611L12.4153 26.3681C22.8426 20.7004 30.0392 11.1187 32.3793 0.209739L30.4238 -0.209739ZM11.4602 24.611L-0.0869341 30.8873L0.868184 32.6445L12.4153 26.3681L11.4602 24.611ZM1.39063 32.6965V31.7659H-0.609375L-0.609375 32.6965H1.39063ZM8.11133 22.2623L-0.0869343 26.7184L0.868184 28.4756L9.06645 24.0195L8.11133 22.2623ZM26.4645 -0.272536C23.811 9.0953 17.2987 17.2686 8.11134 22.2623L9.06645 24.0195C18.711 18.7772 25.5837 10.1755 28.3888 0.272536L26.4645 -0.272536ZM26.5425 1L27.4267 1V-1L26.5425 -1V1ZM8.64112 23.3201C18.0172 18.2237 24.7179 9.88601 27.503 0.278421L25.582 -0.278421C22.9505 8.79946 16.6083 16.7132 7.686 21.5629L8.64112 23.3201ZM0.868184 27.545L8.64112 23.3201L7.686 21.5629L-0.0869341 25.7878L0.868184 27.545ZM1.39063 27.597V26.6664H-0.609375L-0.609375 27.597H1.39063ZM0.868184 23.3761L5.29227 20.9714L4.33715 19.2142L-0.0869342 21.6189L0.868184 23.3761ZM5.29227 20.9714C13.8679 16.3102 20.1987 8.92815 23.3291 0.342543L21.4501 -0.342543C18.4913 7.77258 12.4962 14.7794 4.33715 19.2142L5.29227 20.9714ZM21.4857 1L22.3896 1V-1H21.4857V1ZM20.549 -0.35008C17.6247 7.4746 11.8042 14.2249 3.91179 18.5148L4.86691 20.272C13.1714 15.7581 19.3249 8.63825 22.4224 0.35008L20.549 -0.35008ZM3.91179 18.5148L-0.086934 20.6883L0.868184 22.4455L4.86691 20.272L3.91179 18.5148ZM1.39063 22.4975V21.5669H-0.609375L-0.609375 22.4975H1.39063ZM0.562961 16.1662L-0.0869333 16.5194L0.868183 18.2766L1.51808 17.9234L0.562961 16.1662ZM16.2227 -0.415449C13.0938 6.43512 7.67134 12.3025 0.56296 16.1662L1.51808 17.9234C8.99897 13.8572 14.7291 7.66875 18.0419 0.415449L16.2227 -0.415449ZM16.2007 1L17.1323 1V-1H16.2007V1ZM1.09275 17.224C8.29841 13.3073 13.8434 7.3786 17.106 0.424756L15.2954 -0.424756C12.2177 6.13501 6.97654 11.7495 0.137628 15.4668L1.09275 17.224ZM0.868187 17.346L1.09275 17.2239L0.137625 15.4668L-0.086937 15.5888L0.868187 17.346ZM1.39063 17.398L1.39063 16.4674H-0.609375L-0.609375 17.398H1.39063ZM0.950706 12.9268C5.80923 9.64207 9.73494 5.36933 12.4865 0.491307L10.7446 -0.491307C8.1475 4.11275 4.43627 8.15611 -0.169456 11.2699L0.950706 12.9268ZM10.6452 1L11.6156 1V-1H10.6452V1ZM9.78061 -0.502509C7.35001 3.67936 3.97016 7.37267 -0.183034 10.2814L0.964284 11.9196C5.35166 8.84685 8.93136 4.93867 11.5098 0.502509L9.78061 -0.502509ZM1.39063 12.0983L1.39063 11.1005H-0.609375L-0.609375 12.0983H1.39063ZM3.32692 1.59155C2.6835 2.37471 2.002 3.13214 1.28402 3.86118L2.709 5.26455C3.46897 4.49288 4.19064 3.69083 4.87227 2.86116L3.32692 1.59155ZM2.83531 5.1073C3.35265 4.31024 3.99288 3.59989 4.72915 3.00331L3.47004 1.44939C2.57133 2.17761 1.78969 3.04474 1.15771 4.01843L2.83531 5.1073Z" fill="#33343E" mask="url(#path-1-inside-1_2150:46825)"/>
</svg>
