<svg width="36" height="40" viewBox="0 0 36 40" fill="none" xmlns="http://www.w3.org/2000/svg">
<path opacity="0.2" fill-rule="evenodd" clip-rule="evenodd" d="M20.0785 0.553008C18.7923 -0.184336 17.2077 -0.184336 15.9215 0.553009L2.07846 8.48915C0.792305 9.2265 0 10.5892 0 12.0639V27.9361C0 29.4108 0.792305 30.7735 2.07846 31.5108L15.9215 39.447C17.2077 40.1843 18.7923 40.1843 20.0785 39.447L33.9215 31.5108C35.2077 30.7735 36 29.4108 36 27.9361V12.0639C36 10.5892 35.2077 9.2265 33.9215 8.48915L20.0785 0.553008Z" fill="#38D47E"/>
<path d="M18 13.3332C16.1591 13.3332 14.6667 14.8256 14.6667 16.6665C14.6667 18.5075 16.1591 19.9998 18 19.9998C19.8409 19.9998 21.3333 18.5075 21.3333 16.6665C21.3333 14.8256 19.8409 13.3332 18 13.3332ZM13 16.6665C13 13.9051 15.2386 11.6665 18 11.6665C20.7614 11.6665 23 13.9051 23 16.6665C23 19.4279 20.7614 21.6665 18 21.6665C15.2386 21.6665 13 19.4279 13 16.6665ZM14.6667 24.9998C13.286 24.9998 12.1667 26.1191 12.1667 27.4998C12.1667 27.9601 11.7936 28.3332 11.3333 28.3332C10.8731 28.3332 10.5 27.9601 10.5 27.4998C10.5 25.1986 12.3655 23.3332 14.6667 23.3332H21.3333C23.6345 23.3332 25.5 25.1987 25.5 27.4998C25.5 27.9601 25.1269 28.3332 24.6667 28.3332C24.2064 28.3332 23.8333 27.9601 23.8333 27.4998C23.8333 26.1191 22.714 24.9998 21.3333 24.9998H14.6667Z" fill="#38D47E"/>
</svg>
