<svg width="36" height="40" viewBox="0 0 36 40" fill="none" xmlns="http://www.w3.org/2000/svg">
<path opacity="0.2" fill-rule="evenodd" clip-rule="evenodd" d="M20.0785 0.553008C18.7923 -0.184336 17.2077 -0.184336 15.9215 0.553009L2.07846 8.48915C0.792305 9.2265 0 10.5892 0 12.0639V27.9361C0 29.4108 0.792305 30.7735 2.07846 31.5108L15.9215 39.447C17.2077 40.1843 18.7923 40.1843 20.0785 39.447L33.9215 31.5108C35.2077 30.7735 36 29.4108 36 27.9361V12.0639C36 10.5892 35.2077 9.2265 33.9215 8.48915L20.0785 0.553008Z" fill="#FF5655"/>
<path d="M26.3334 22.5002H24.6667V20.0002C24.6667 19.7791 24.5789 19.5672 24.4226 19.4109C24.2663 19.2546 24.0544 19.1668 23.8334 19.1668H18.8334V17.5002H20.5C20.7211 17.5002 20.933 17.4124 21.0893 17.2561C21.2456 17.0998 21.3334 16.8878 21.3334 16.6668V11.6668C21.3334 11.4458 21.2456 11.2339 21.0893 11.0776C20.933 10.9213 20.7211 10.8335 20.5 10.8335H15.5C15.279 10.8335 15.0671 10.9213 14.9108 11.0776C14.7545 11.2339 14.6667 11.4458 14.6667 11.6668V16.6668C14.6667 16.8878 14.7545 17.0998 14.9108 17.2561C15.0671 17.4124 15.279 17.5002 15.5 17.5002H17.1667V19.1668H12.1667C11.9457 19.1668 11.7337 19.2546 11.5775 19.4109C11.4212 19.5672 11.3334 19.7791 11.3334 20.0002V22.5002H9.66671C9.44569 22.5002 9.23373 22.588 9.07745 22.7442C8.92117 22.9005 8.83337 23.1125 8.83337 23.3335V28.3335C8.83337 28.5545 8.92117 28.7665 9.07745 28.9228C9.23373 29.079 9.44569 29.1668 9.66671 29.1668H14.6667C14.8877 29.1668 15.0997 29.079 15.256 28.9228C15.4122 28.7665 15.5 28.5545 15.5 28.3335V23.3335C15.5 23.1125 15.4122 22.9005 15.256 22.7442C15.0997 22.588 14.8877 22.5002 14.6667 22.5002H13V20.8335H23V22.5002H21.3334C21.1124 22.5002 20.9004 22.588 20.7441 22.7442C20.5878 22.9005 20.5 23.1125 20.5 23.3335V28.3335C20.5 28.5545 20.5878 28.7665 20.7441 28.9228C20.9004 29.079 21.1124 29.1668 21.3334 29.1668H26.3334C26.5544 29.1668 26.7663 29.079 26.9226 28.9228C27.0789 28.7665 27.1667 28.5545 27.1667 28.3335V23.3335C27.1667 23.1125 27.0789 22.9005 26.9226 22.7442C26.7663 22.588 26.5544 22.5002 26.3334 22.5002ZM13.8334 24.1668V27.5002H10.5V24.1668H13.8334ZM16.3334 15.8335V12.5002H19.6667V15.8335H16.3334ZM25.5 27.5002H22.1667V24.1668H25.5V27.5002Z" fill="#FF5655"/>
</svg>
