<svg width="36" height="40" viewBox="0 0 36 40" fill="none" xmlns="http://www.w3.org/2000/svg">
<path opacity="0.2" fill-rule="evenodd" clip-rule="evenodd" d="M20.0785 0.553008C18.7923 -0.184336 17.2077 -0.184336 15.9215 0.553009L2.07846 8.48915C0.792305 9.2265 0 10.5892 0 12.0639V27.9361C0 29.4108 0.792305 30.7735 2.07846 31.5108L15.9215 39.447C17.2077 40.1843 18.7923 40.1843 20.0785 39.447L33.9215 31.5108C35.2077 30.7735 36 29.4108 36 27.9361V12.0639C36 10.5892 35.2077 9.2265 33.9215 8.48915L20.0785 0.553008Z" fill="#38D47E"/>
<path d="M16.3333 13.3332C14.4923 13.3332 13 14.8256 13 16.6665C13 18.5075 14.4923 19.9998 16.3333 19.9998C18.1742 19.9998 19.6666 18.5075 19.6666 16.6665C19.6666 14.8256 18.1742 13.3332 16.3333 13.3332ZM11.3333 16.6665C11.3333 13.9051 13.5719 11.6665 16.3333 11.6665C19.0947 11.6665 21.3333 13.9051 21.3333 16.6665C21.3333 19.4279 19.0947 21.6665 16.3333 21.6665C13.5719 21.6665 11.3333 19.4279 11.3333 16.6665ZM23.8333 19.1665C24.2935 19.1665 24.6666 19.5396 24.6666 19.9998V20.8332H25.5C25.9602 20.8332 26.3333 21.2063 26.3333 21.6665C26.3333 22.1267 25.9602 22.4998 25.5 22.4998H24.6666V23.3332C24.6666 23.7934 24.2935 24.1665 23.8333 24.1665C23.3731 24.1665 23 23.7934 23 23.3332V22.4998H22.1666C21.7064 22.4998 21.3333 22.1267 21.3333 21.6665C21.3333 21.2063 21.7064 20.8332 22.1666 20.8332H23V19.9998C23 19.5396 23.3731 19.1665 23.8333 19.1665ZM13.4166 24.9998C12.3671 24.9998 11.3333 26.0111 11.3333 27.4998C11.3333 27.9601 10.9602 28.3332 10.5 28.3332C10.0397 28.3332 9.66663 27.9601 9.66663 27.4998C9.66663 25.3067 11.2445 23.3332 13.4166 23.3332H19.25C21.4221 23.3332 23 25.3067 23 27.4998C23 27.9601 22.6269 28.3332 22.1666 28.3332C21.7064 28.3332 21.3333 27.9601 21.3333 27.4998C21.3333 26.0111 20.2995 24.9998 19.25 24.9998H13.4166Z" fill="#38D47E"/>
</svg>
