<svg width="24" height="24" viewBox="0 0 24 24" fill="none" xmlns="http://www.w3.org/2000/svg">
<path d="M20.1 2H3.9C3.66131 2 3.43239 2.09578 3.2636 2.26627C3.09482 2.43675 3 2.66799 3 2.90909V21.0909C3 21.332 3.09482 21.5632 3.2636 21.7337C3.43239 21.9042 3.66131 22 3.9 22H16.5C16.6183 21.9995 16.7354 21.9757 16.8447 21.93C16.9541 21.8843 17.0535 21.8173 17.1372 21.7327L20.7372 18.0964C20.8958 17.9197 20.9888 17.6928 21 17.4545V2.90909C21 2.66799 20.9052 2.43675 20.7364 2.26627C20.5676 2.09578 20.3387 2 20.1 2ZM15.6 17.4545V20.1818H4.8V3.81818H19.2V16.5455H16.5C16.2613 16.5455 16.0324 16.6412 15.8636 16.8117C15.6948 16.9822 15.6 17.2134 15.6 17.4545ZM16.5 10.1818C16.5 10.4229 16.4052 10.6542 16.2364 10.8246C16.0676 10.9951 15.8387 11.0909 15.6 11.0909H8.4C8.1613 11.0909 7.93239 10.9951 7.7636 10.8246C7.59482 10.6542 7.5 10.4229 7.5 10.1818C7.5 9.94071 7.59482 9.70948 7.7636 9.53899C7.93239 9.36851 8.1613 9.27273 8.4 9.27273H15.6C15.8387 9.27273 16.0676 9.36851 16.2364 9.53899C16.4052 9.70948 16.5 9.94071 16.5 10.1818ZM12.9 13.8182C12.9 14.0593 12.8052 14.2905 12.6364 14.461C12.4676 14.6315 12.2387 14.7273 12 14.7273H8.4C8.1613 14.7273 7.93239 14.6315 7.7636 14.461C7.59482 14.2905 7.5 14.0593 7.5 13.8182C7.5 13.5771 7.59482 13.3458 7.7636 13.1754C7.93239 13.0049 8.1613 12.9091 8.4 12.9091H12C12.2387 12.9091 12.4676 13.0049 12.6364 13.1754C12.8052 13.3458 12.9 13.5771 12.9 13.8182Z" fill="#7B61FF"/>
</svg>
