<svg width="38" height="42" viewBox="0 0 38 42" fill="none" xmlns="http://www.w3.org/2000/svg">
<path opacity="0.2" fill-rule="evenodd" clip-rule="evenodd" d="M21.1939 0.580659C19.8363 -0.193553 18.1637 -0.193553 16.8061 0.580659L2.19393 8.91361C0.836322 9.68782 0 11.1186 0 12.667V29.333C0 30.8814 0.836322 32.3122 2.19393 33.0864L16.8061 41.4193C18.1637 42.1936 19.8363 42.1936 21.1939 41.4193L35.8061 33.0864C37.1637 32.3122 38 30.8814 38 29.333V12.6671C38 11.1186 37.1637 9.68782 35.8061 8.91361L21.1939 0.580659Z" fill="#7B61FF"/>
<path d="M24.8997 15.1313C25.2432 15.473 25.2432 16.027 24.8997 16.3687L14.3442 26.8687C14.0006 27.2104 13.4437 27.2104 13.1002 26.8687C12.7567 26.527 12.7567 25.973 13.1002 25.6313L23.6557 15.1313C23.9992 14.7896 24.5562 14.7896 24.8997 15.1313Z" fill="#7B61FF"/>
<path d="M23.3981 27.125C24.3697 27.125 25.1573 26.3415 25.1573 25.375C25.1573 24.4085 24.3697 23.625 23.3981 23.625C22.4265 23.625 21.6388 24.4085 21.6388 25.375C21.6388 26.3415 22.4265 27.125 23.3981 27.125Z" fill="#7B61FF"/>
<path d="M14.6018 18.375C15.5734 18.375 16.361 17.5915 16.361 16.625C16.361 15.6585 15.5734 14.875 14.6018 14.875C13.6302 14.875 12.8425 15.6585 12.8425 16.625C12.8425 17.5915 13.6302 18.375 14.6018 18.375Z" fill="#7B61FF"/>
</svg>
