<svg width="37" height="40" viewBox="0 0 37 40" fill="none" xmlns="http://www.w3.org/2000/svg">
<path opacity="0.2" fill-rule="evenodd" clip-rule="evenodd" d="M20.5785 0.553008C19.2923 -0.184336 17.7077 -0.184336 16.4215 0.553009L2.57846 8.48915C1.2923 9.2265 0.5 10.5892 0.5 12.0639V27.9361C0.5 29.4108 1.2923 30.7735 2.57846 31.5108L16.4215 39.447C17.7077 40.1843 19.2923 40.1843 20.5785 39.447L34.4215 31.5108C35.7077 30.7735 36.5 29.4108 36.5 27.9361V12.0639C36.5 10.5892 35.7077 9.2265 34.4215 8.48915L20.5785 0.553008Z" fill="#5851FF"/>
<path d="M14.2861 13.7995H21.5181V15.6715L17.7261 24.9995H15.3901L19.0701 15.9115H14.2861V13.7995Z" fill="#5851FF"/>
<path opacity="0.7" d="M21.8573 31.0477C20.6011 30.7154 18.5922 31.6717 18.5922 31.6717C18.5922 31.6717 19.9554 33.5616 21.2526 33.9182C22.4982 34.2607 24.5177 33.419 24.5177 33.419C24.5177 33.419 23.1871 31.3995 21.8573 31.0477Z" fill="#5851FF"/>
<path opacity="0.7" d="M25.2804 29.3687C24.1347 29.3511 22.6003 30.6013 22.6003 30.6013C22.6003 30.6013 24.1498 31.934 25.3356 31.9637C26.4742 31.9922 28.0406 30.8383 28.0406 30.8383C28.0406 30.8383 26.4932 29.3872 25.2804 29.3687Z" fill="#5851FF"/>
<path opacity="0.7" d="M27.3581 26.5308C26.4316 27.0341 25.7308 28.7301 25.7308 28.7301C25.7308 28.7301 27.5389 29.0995 28.5027 28.5877C29.4282 28.0963 30.1955 26.4631 30.1955 26.4631C30.1955 26.4631 28.3389 25.9979 27.3581 26.5308Z" fill="#5851FF"/>
<path opacity="0.7" d="M14.9074 31.0471C16.1379 30.7177 18.1058 31.6655 18.1058 31.6655C18.1058 31.6655 16.7704 33.5383 15.4997 33.8917C14.2795 34.231 12.3012 33.397 12.3012 33.397C12.3012 33.397 13.6047 31.3957 14.9074 31.0471Z" fill="#5851FF"/>
<path opacity="0.7" d="M11.5811 29.3332C12.6993 29.316 14.1968 30.5361 14.1968 30.5361C14.1968 30.5361 12.6845 31.8369 11.5272 31.8659C10.4159 31.8937 8.88716 30.7675 8.88716 30.7675C8.88716 30.7675 10.3974 29.3513 11.5811 29.3332Z" fill="#5851FF"/>
<path opacity="0.7" d="M9.56722 26.5619C10.4714 27.0532 11.1554 28.7084 11.1554 28.7084C11.1554 28.7084 9.39075 29.0689 8.45011 28.5694C7.54689 28.0898 6.798 26.4959 6.798 26.4959C6.798 26.4959 8.60998 26.0418 9.56722 26.5619Z" fill="#5851FF"/>
<path opacity="0.3" fill-rule="evenodd" clip-rule="evenodd" d="M18.5004 8.18356C11.9115 8.18356 6.65421 13.345 6.65421 19.6093C6.65421 21.2066 6.99345 22.7255 7.60633 24.1049L5.64237 25.001C4.90761 23.3473 4.50037 21.5235 4.50037 19.6093C4.50037 12.0477 10.8148 6.00098 18.5004 6.00098C26.186 6.00098 32.5004 12.0477 32.5004 19.6093C32.5004 21.5235 32.0931 23.3473 31.3584 25.001L29.3944 24.1049C30.0073 22.7255 30.3465 21.2066 30.3465 19.6093C30.3465 13.345 25.0892 8.18356 18.5004 8.18356Z" fill="#5851FF"/>
</svg>
