<svg width="25" height="24" viewBox="0 0 25 24" fill="none" xmlns="http://www.w3.org/2000/svg">
<path d="M14.6835 16.7071C14.293 16.3166 14.293 15.6834 14.6835 15.2929C15.074 14.9024 15.7072 14.9024 16.0977 15.2929L20.0977 19.2929C20.4883 19.6834 20.4883 20.3166 20.0977 20.7071C19.7072 21.0976 19.074 21.0976 18.6835 20.7071L14.6835 16.7071Z" fill="#E3E3E7"/>
<path d="M11.3906 16C14.152 16 16.3906 13.7614 16.3906 11C16.3906 8.23858 14.152 6 11.3906 6C8.6292 6 6.39062 8.23858 6.39062 11C6.39062 13.7614 8.6292 16 11.3906 16ZM11.3906 18C7.52463 18 4.39062 14.866 4.39062 11C4.39062 7.13401 7.52463 4 11.3906 4C15.2566 4 18.3906 7.13401 18.3906 11C18.3906 14.866 15.2566 18 11.3906 18Z" fill="#E3E3E7"/>
</svg>
