<svg width="36" height="40" viewBox="0 0 36 40" fill="none" xmlns="http://www.w3.org/2000/svg">
<path fill-rule="evenodd" clip-rule="evenodd" d="M15.9215 0.553009C17.2077 -0.184336 18.7923 -0.184336 20.0785 0.553008L33.9215 8.48915C35.2077 9.2265 36 10.5892 36 12.0639V27.9361C36 29.4108 35.2077 30.7735 33.9215 31.5109L20.0785 39.447C18.7923 40.1843 17.2077 40.1843 15.9215 39.447L2.07846 31.5109C0.792305 30.7735 0 29.4108 0 27.9361V12.0639C0 10.5892 0.792305 9.2265 2.07846 8.48915L15.9215 0.553009ZM13 12C12.4477 12 12 12.4477 12 13V27C12 27.5523 12.4477 28 13 28H21.7097C23.1849 28 24.2688 27.6495 24.9613 26.9486C25.6538 26.2476 26 25.1505 26 23.6571C26 23.0324 25.9247 22.4838 25.7742 22.0114C25.3376 20.701 24.5097 19.8781 23.2903 19.5429C23.8624 19.3143 24.3441 18.9181 24.7355 18.3543C25.1269 17.7752 25.3226 17.0286 25.3226 16.1143C25.3226 14.7276 24.9763 13.699 24.2839 13.0286C23.5914 12.3429 22.5075 12 21.0323 12H13ZM20.5806 21.6C21.4839 21.6 21.9355 22.0571 21.9355 22.9714V23.4286C21.9355 24.3429 21.4839 24.8 20.5806 24.8H16.0645V21.6H20.5806ZM19.9032 15.2C20.8065 15.2 21.2581 15.6571 21.2581 16.5714V17.0286C21.2581 17.9429 20.8065 18.4 19.9032 18.4H16.0645V15.2H19.9032Z" fill="#7B61FF
"/>
</svg>
