<svg width="24" height="24" viewBox="0 0 24 24" fill="none" xmlns="http://www.w3.org/2000/svg">
<path d="M4.49963 0C3.67463 0 2.99963 0.675 2.99963 1.5V22.5C2.99963 23.325 3.67463 24 4.49963 24H19.4996C20.3246 24 20.9996 23.325 20.9996 22.5V6L14.9996 0H4.49963Z" fill="#E3E3E7"/>
<path d="M16.4998 6H20.9998L14.9998 0V4.5C14.9998 5.325 15.6748 6 16.4998 6Z" fill="#C8C9D0"/>
<path d="M20.9996 10.5L16.4996 6H20.9996V10.5Z" fill="#DDDEE5"/>
<path d="M22.4999 19.5C22.4999 19.9125 22.1061 20.25 21.6233 20.25H2.37644C1.89363 20.25 1.49988 19.9125 1.49988 19.5V12C1.49988 11.5875 1.89363 11.25 2.37644 11.25H21.628C22.1108 11.25 22.5046 11.5875 22.5046 12V19.5H22.4999Z" fill="#33343E"/>
<path d="M20.9996 20.25H2.99963V21H20.9996V20.25Z" fill="#D7DFEC"/>
<path d="M8.34342 15.1453L9.38873 13.8375C9.70279 13.4297 10.3075 13.95 9.96529 14.3391C9.60435 14.7656 9.22935 15.225 8.86842 15.6985L10.0919 17.2219C10.42 17.6719 9.76373 18.1031 9.44029 17.6578L8.33404 16.2422L7.24654 17.686C6.94185 18.1219 6.26217 17.6297 6.60435 17.2219L7.80904 15.6938C7.42935 15.2203 7.06373 14.7563 6.6981 14.3344C6.3231 13.8844 7.02154 13.425 7.2981 13.8422L8.34342 15.1453Z" fill="white"/>
<path d="M10.828 14.0672C10.828 13.8703 10.9968 13.7015 11.2077 13.7015C11.3999 13.7015 11.5639 13.8703 11.5639 14.0672V17.0719H13.1952C13.7811 17.0719 13.7952 17.8594 13.1952 17.8594H11.2124C11.0014 17.8594 10.8327 17.7094 10.8327 17.4937L10.828 14.0672Z" fill="white"/>
<path d="M14.3297 14.6063C14.4656 13.4438 16.2234 13.2328 17.0531 13.8703C17.4609 14.1984 17.0297 14.7234 16.6688 14.4563C16.2234 14.175 15.2156 14.0438 15.0938 14.6672C14.9297 15.6516 17.5406 15.0891 17.4984 16.6828C17.4563 18.2063 15.2484 18.2391 14.4234 17.5594C14.2266 17.3953 14.2313 17.1328 14.3391 16.9734C14.4938 16.8188 14.6672 16.7625 14.8734 16.9313C15.3656 17.2688 16.6313 17.5172 16.7203 16.6688C16.6359 15.7781 14.1422 16.3125 14.3297 14.6063Z" fill="white"/>
</svg>
