<svg width="24" height="24" viewBox="0 0 24 24" fill="none" xmlns="http://www.w3.org/2000/svg">
<rect width="24" height="24" rx="12" fill="#1DA1F2"/>
<path fill-rule="evenodd" clip-rule="evenodd" d="M11.8554 10.1281L11.8771 10.4741L11.5158 10.4318C10.2007 10.2694 9.05187 9.71855 8.07642 8.79347L7.59954 8.33446L7.4767 8.67342C7.21658 9.42902 7.38277 10.227 7.92469 10.7637C8.21371 11.0603 8.14868 11.1026 7.65012 10.9261C7.4767 10.8696 7.32497 10.8272 7.31052 10.8484C7.25994 10.8978 7.43335 11.5405 7.57064 11.7947C7.7585 12.1478 8.14145 12.4938 8.56054 12.6986L8.91459 12.861L8.49551 12.8681C8.09088 12.8681 8.07642 12.8751 8.11978 13.0234C8.26429 13.4824 8.83511 13.9697 9.47096 14.1815L9.91894 14.3298L9.52876 14.5558C8.95072 14.8806 8.27151 15.0642 7.59231 15.0784C7.26716 15.0854 6.99982 15.1137 6.99982 15.1349C6.99982 15.2055 7.88133 15.6009 8.39435 15.7563C9.93339 16.2153 11.7615 16.0176 13.1343 15.2337C14.1098 14.6759 15.0852 13.5672 15.5404 12.4938C15.7861 11.9218 16.0318 10.8767 16.0318 10.3753C16.0318 10.0504 16.0534 10.0081 16.4581 9.61968C16.6965 9.39371 16.9205 9.14655 16.9639 9.07593C17.0361 8.94176 17.0289 8.94176 16.6604 9.06181C16.0462 9.27366 15.9595 9.24541 16.263 8.92764C16.487 8.70166 16.7543 8.29209 16.7543 8.17204C16.7543 8.15085 16.6459 8.18616 16.5231 8.24972C16.393 8.32033 16.104 8.42626 15.8872 8.48981L15.4971 8.60986L15.143 8.37683C14.9479 8.24972 14.6734 8.10848 14.5288 8.06611C14.1603 7.96725 13.5967 7.98137 13.2644 8.09436C12.3612 8.41214 11.7904 9.23129 11.8554 10.1281Z" fill="white"/>
</svg>
