<svg width="38" height="42" viewBox="0 0 38 42" fill="none" xmlns="http://www.w3.org/2000/svg">
<path opacity="0.2" fill-rule="evenodd" clip-rule="evenodd" d="M21.1939 0.580659C19.8363 -0.193553 18.1637 -0.193553 16.8061 0.580659L2.19393 8.91361C0.836322 9.68782 0 11.1186 0 12.667V29.333C0 30.8814 0.836322 32.3122 2.19393 33.0864L16.8061 41.4193C18.1637 42.1936 19.8363 42.1936 21.1939 41.4193L35.8061 33.0864C37.1637 32.3122 38 30.8814 38 29.333V12.6671C38 11.1186 37.1637 9.68782 35.8061 8.91361L21.1939 0.580659Z" fill="#38D47E"/>
<path d="M24.4992 19.1319C24.8551 19.4641 24.8551 20.0283 24.4992 20.3605C24.1764 20.6617 23.6755 20.6617 23.3527 20.3605L19.9421 17.1777L19.9421 27.1204C19.9421 27.6062 19.5483 28 19.0625 28C18.5767 28 18.1829 27.6062 18.1829 27.1204C18.1829 23.7673 18.1828 20.4142 18.1829 17.0611L14.6473 20.3605C14.3245 20.6617 13.8236 20.6617 13.5008 20.3605C13.1449 20.0283 13.1449 19.4641 13.5008 19.1319L19 14L24.4992 19.1319Z" fill="#38D47E"/>
</svg>
