<svg width="38" height="42" viewBox="0 0 38 42" fill="none" xmlns="http://www.w3.org/2000/svg">
<path opacity="0.2" fill-rule="evenodd" clip-rule="evenodd" d="M21.1939 0.580659C19.8363 -0.193553 18.1637 -0.193553 16.8061 0.580659L2.19393 8.91361C0.836322 9.68782 0 11.1186 0 12.667V29.333C0 30.8814 0.836322 32.3122 2.19393 33.0864L16.8061 41.4193C18.1637 42.1936 19.8363 42.1936 21.1939 41.4193L35.8061 33.0864C37.1637 32.3122 38 30.8814 38 29.333V12.6671C38 11.1186 37.1637 9.68782 35.8061 8.91361L21.1939 0.580659Z" fill="#38D47E"/>
<path d="M19 14C17.0568 14 15.4815 15.567 15.4815 17.5C15.4815 19.433 17.0568 21 19 21C20.9432 21 22.5185 19.433 22.5185 17.5C22.5185 15.567 20.9432 14 19 14ZM13.7222 17.5C13.7222 14.6005 16.0852 12.25 19 12.25C21.9148 12.25 24.2778 14.6005 24.2778 17.5C24.2778 20.3995 21.9148 22.75 19 22.75C16.0852 22.75 13.7222 20.3995 13.7222 17.5ZM15.4815 26.25C14.0241 26.25 12.8426 27.4253 12.8426 28.875C12.8426 29.3582 12.4488 29.75 11.963 29.75C11.4772 29.75 11.0833 29.3582 11.0833 28.875C11.0833 26.4588 13.0525 24.5 15.4815 24.5H22.5185C24.9476 24.5 26.9167 26.4588 26.9167 28.875C26.9167 29.3582 26.5229 29.75 26.037 29.75C25.5512 29.75 25.1574 29.3582 25.1574 28.875C25.1574 27.4253 23.9759 26.25 22.5185 26.25H15.4815Z" fill="#38D47E"/>
</svg>
