<svg width="24" height="24" viewBox="0 0 24 24" fill="none" xmlns="http://www.w3.org/2000/svg">
<rect width="24" height="24" rx="12" fill="#2790C4"/>
<path d="M17.9364 14.8218C17.9218 14.7898 17.9083 14.7632 17.8957 14.7419C17.6875 14.3585 17.2896 13.888 16.7023 13.3301L16.6899 13.3173L16.6837 13.311L16.6774 13.3046H16.6711C16.4046 13.0448 16.2358 12.8702 16.1651 12.7807C16.0358 12.6104 16.0068 12.4379 16.0775 12.2632C16.1274 12.1312 16.315 11.8524 16.6398 11.4265C16.8107 11.2008 16.946 11.0198 17.0459 10.8835C17.7665 9.90401 18.079 9.27807 17.9831 9.00549L17.9459 8.94179C17.9209 8.90344 17.8563 8.86836 17.7523 8.83636C17.6481 8.80443 17.5148 8.79915 17.3523 8.82043L15.553 8.83314C15.5238 8.82258 15.4822 8.82356 15.428 8.83636C15.3738 8.84916 15.3467 8.85558 15.3467 8.85558L15.3154 8.87158L15.2906 8.8908C15.2697 8.90351 15.2468 8.92586 15.2218 8.95781C15.1969 8.98965 15.1761 9.02701 15.1595 9.06959C14.9636 9.58488 14.7408 10.064 14.4909 10.5069C14.3367 10.7709 14.1952 10.9998 14.0659 11.1936C13.9368 11.3873 13.8285 11.53 13.7411 11.6215C13.6536 11.7131 13.5746 11.7864 13.5037 11.8419C13.4328 11.8973 13.3788 11.9207 13.3413 11.9122C13.3038 11.9036 13.2684 11.8951 13.235 11.8866C13.1767 11.8482 13.1298 11.7961 13.0945 11.7301C13.059 11.6641 13.0351 11.581 13.0226 11.4809C13.0102 11.3808 13.0028 11.2946 13.0007 11.2222C12.9988 11.1499 12.9997 11.0476 13.0039 10.9156C13.0082 10.7835 13.0102 10.6941 13.0102 10.6473C13.0102 10.4854 13.0133 10.3098 13.0194 10.1203C13.0258 9.93074 13.0309 9.78059 13.0351 9.66997C13.0394 9.55924 13.0413 9.44209 13.0413 9.31859C13.0413 9.19509 13.034 9.09823 13.0194 9.02793C13.0051 8.95772 12.9831 8.88957 12.954 8.8235C12.9248 8.75749 12.882 8.70644 12.8259 8.67019C12.7697 8.63399 12.6998 8.60526 12.6166 8.58392C12.3959 8.53284 12.1147 8.5052 11.7731 8.50091C10.9984 8.49241 10.5006 8.54355 10.2799 8.65428C10.1924 8.70107 10.1132 8.76499 10.0425 8.84585C9.96747 8.93957 9.95701 8.99072 10.0112 8.99913C10.2611 9.03742 10.4381 9.12899 10.5422 9.27377L10.5797 9.35049C10.6089 9.40585 10.6381 9.50385 10.6672 9.64436C10.6964 9.78486 10.7152 9.9403 10.7234 10.1106C10.7442 10.4215 10.7442 10.6877 10.7234 10.9091C10.7026 11.1306 10.6829 11.303 10.6641 11.4265C10.6453 11.55 10.6172 11.6501 10.5797 11.7267C10.5422 11.8034 10.5172 11.8502 10.5047 11.8672C10.4922 11.8842 10.4818 11.895 10.4735 11.8992C10.4194 11.9204 10.3631 11.9312 10.3048 11.9312C10.2464 11.9312 10.1757 11.9013 10.0924 11.8417C10.0091 11.782 9.9227 11.7001 9.83313 11.5957C9.74356 11.4914 9.64255 11.3455 9.53004 11.1582C9.41763 10.9708 9.30099 10.7494 9.18019 10.4939L9.08025 10.3086C9.01777 10.1893 8.93243 10.0158 8.82413 9.78797C8.71576 9.56009 8.61998 9.33967 8.53671 9.12673C8.50342 9.0373 8.45342 8.96922 8.38679 8.92237L8.35551 8.90315C8.33473 8.88614 8.30135 8.86809 8.25557 8.84885C8.20973 8.82963 8.16189 8.81585 8.11186 8.80737L6.39994 8.82007C6.22501 8.82007 6.10631 8.86059 6.04381 8.94152L6.0188 8.9798C6.0063 9.00112 6 9.03518 6 9.08205C6 9.1289 6.0125 9.1864 6.03751 9.25449C6.28742 9.85501 6.55919 10.4342 6.85282 10.992C7.14645 11.5499 7.40161 11.9993 7.61815 12.3398C7.83473 12.6805 8.05549 13.0021 8.28043 13.3044C8.50537 13.6067 8.65427 13.8005 8.72712 13.8857C8.80006 13.971 8.85735 14.0347 8.89899 14.0773L9.05522 14.2306C9.15518 14.3328 9.30197 14.4552 9.49566 14.5979C9.6894 14.7406 9.90388 14.8811 10.1392 15.0196C10.3746 15.1579 10.6484 15.2708 10.9609 15.3581C11.2732 15.4454 11.5773 15.4805 11.873 15.4636H12.5916C12.7373 15.4507 12.8477 15.4039 12.9227 15.323L12.9476 15.291C12.9643 15.2656 12.9799 15.2261 12.9944 15.1729C13.009 15.1197 13.0163 15.0611 13.0163 14.9973C13.012 14.8142 13.0256 14.6492 13.0568 14.5023C13.0879 14.3554 13.1234 14.2447 13.1631 14.1701C13.2028 14.0956 13.2476 14.0327 13.2974 13.9818C13.3474 13.9307 13.3829 13.8997 13.4038 13.8891C13.4246 13.8784 13.4411 13.8711 13.4536 13.8667C13.5536 13.8327 13.6712 13.8657 13.8067 13.9658C13.9421 14.0659 14.0691 14.1895 14.1879 14.3363C14.3066 14.4833 14.4492 14.6483 14.6158 14.8313C14.7825 15.0145 14.9283 15.1506 15.0532 15.2402L15.1781 15.3169C15.2615 15.368 15.3698 15.4149 15.5031 15.4574C15.6362 15.5 15.7528 15.5106 15.8529 15.4894L17.4523 15.4639C17.6105 15.4639 17.7336 15.4371 17.8209 15.3839C17.9084 15.3307 17.9604 15.2721 17.9771 15.2083C17.9938 15.1444 17.9947 15.072 17.9803 14.991C17.9655 14.9102 17.9509 14.8537 17.9364 14.8218Z" fill="white"/>
</svg>
